<svg xmlns="http://www.w3.org/2000/svg" viewBox="0 0 1100 800"><defs><style>.cls-1{fill:#4b4a4a;}</style></defs><title>transparent-benddetail-directional-flat-top</title><g id="Text_OUTLINED" data-name="Text OUTLINED"><path class="cls-1" d="M734.25,477h8.33a6.58,6.58,0,0,1,4.36,1.4,5.72,5.72,0,0,1,2.12,4.56,6,6,0,0,1-4.13,5.92l5,9.47H746l-4.41-9.12h-4.13v9.12h-3.24Zm3.24,9.36h4.89a3.5,3.5,0,0,0,2.72-1.06,3.26,3.26,0,0,0,.9-2.34,2.85,2.85,0,0,0-1.07-2.42,3.72,3.72,0,0,0-2.37-.66h-5.07Z"/><path class="cls-1" d="M754.81,487.64a36.72,36.72,0,0,1,.22-5,6,6,0,0,1,.72-2,7.55,7.55,0,0,1,6.7-3.84,7.47,7.47,0,0,1,4.24,1.2,7,7,0,0,1,2.43,2.64,4.81,4.81,0,0,1,.75,2,65.1,65.1,0,0,1,0,9.94,4.85,4.85,0,0,1-.75,2.06,6.81,6.81,0,0,1-2.43,2.61,7.64,7.64,0,0,1-4.24,1.23,7.53,7.53,0,0,1-4.21-1.23,7.16,7.16,0,0,1-2.49-2.61c-.16-.32-.3-.63-.42-.92a6,6,0,0,1-.3-1.14A36.88,36.88,0,0,1,754.81,487.64Zm3.26,0a24.83,24.83,0,0,0,.23,4.27,3.59,3.59,0,0,0,.83,1.8,4,4,0,0,0,1.35,1.07,3.83,3.83,0,0,0,2,.48,4,4,0,0,0,2-.48,3.6,3.6,0,0,0,1.29-1.07,3.8,3.8,0,0,0,.87-1.8,27.55,27.55,0,0,0,.22-4.27,28,28,0,0,0-.22-4.29,4.53,4.53,0,0,0-2.16-2.87,4.72,4.72,0,0,0-2-.45,4.54,4.54,0,0,0-2,.45,4.21,4.21,0,0,0-1.35,1.1,3.56,3.56,0,0,0-.83,1.77A25.19,25.19,0,0,0,758.07,487.64Z"/><path class="cls-1" d="M791.24,492.35a8,8,0,0,1-2.68,4.57,7.65,7.65,0,0,1-4.82,1.58,7.5,7.5,0,0,1-4.2-1.23,7,7,0,0,1-2.49-2.61c-.16-.32-.3-.63-.43-.92a6.06,6.06,0,0,1-.29-1.14,56.25,56.25,0,0,1,0-9.94,5.6,5.6,0,0,1,.72-2,7.21,7.21,0,0,1,2.49-2.64,7.33,7.33,0,0,1,4.2-1.2,7.25,7.25,0,0,1,5,1.83,8,8,0,0,1,2.46,4.5h-3.43a4.71,4.71,0,0,0-1.43-2.2,4.22,4.22,0,0,0-2.64-.89,4.53,4.53,0,0,0-2,.45,4,4,0,0,0-1.35,1.1,3.48,3.48,0,0,0-.83,1.77,24.87,24.87,0,0,0-.24,4.29,24.51,24.51,0,0,0,.24,4.27,3.5,3.5,0,0,0,.83,1.8,4.38,4.38,0,0,0,3.31,1.55,4.33,4.33,0,0,0,4.07-2.91Z"/><path class="cls-1" d="M796.53,477h3.23v11h.06l8.79-11h3.84l-6.84,8.42,7.56,12.93h-3.84l-5.82-10.44-3.75,3.94v6.5h-3.23Z"/><path class="cls-1" d="M818.42,477h13.64V480h-10.4v6.09h8.88V489h-8.88v6.27h10.4v3.06H818.42Z"/><path class="cls-1" d="M838.11,477h8.33a6.53,6.53,0,0,1,4.35,1.4,5.7,5.7,0,0,1,2.13,4.56,6,6,0,0,1-4.13,5.92l5,9.47h-3.86l-4.4-9.12h-4.14v9.12h-3.23Zm3.23,9.36h4.9a3.5,3.5,0,0,0,2.72-1.06,3.26,3.26,0,0,0,.9-2.34,2.85,2.85,0,0,0-1.07-2.42,3.73,3.73,0,0,0-2.38-.66h-5.07Z"/><path class="cls-1" d="M401,477h13.64V480h-10.4v6.3h8.87v2.87h-8.87v9.12H401Z"/><path class="cls-1" d="M420.11,477h3.24v18.29h10.4v3.06H420.11Z"/><path class="cls-1" d="M450.74,493.55h-8.1L441,498.32h-3.43L445.33,477H448l7.77,21.35h-3.42Zm-.92-2.87-3.09-9.33h-.06l-3.09,9.33Z"/><path class="cls-1" d="M462.48,479.85h-5.84V477h14.94v2.88h-5.84v18.47h-3.26Z"/></g><g id="Art_OUTLINED" data-name="Art OUTLINED"><path class="cls-1" d="M689.68,376.7H222.21c-39.85,0-78.32-16.53-108.34-46.55a3,3,0,1,1,4.24-4.24c37,37,77,44.79,104.1,44.79H689.68c38.83,0,100.85-3.35,158.47-12.74,69.38-11.31,117.7-28.94,139.73-51a3,3,0,0,1,4.24,4.25C940.34,363,771.64,376.7,689.68,376.7Z"/><path class="cls-1" d="M989.84,453.82H111.1a.5.5,0,0,1-.5-.5.5.5,0,0,1,.5-.5H989.84a.5.5,0,0,1,.5.5A.51.51,0,0,1,989.84,453.82Z"/><path class="cls-1" d="M202.34,453.82a.5.5,0,0,1-.5-.5v-31.5a.5.5,0,0,1,.5-.5.5.5,0,0,1,.5.5v31.5A.51.51,0,0,1,202.34,453.82Z"/><path class="cls-1" d="M690.52,453.82a.51.51,0,0,1-.5-.5v-31.5a.5.5,0,0,1,.5-.5.5.5,0,0,1,.5.5v31.5A.5.5,0,0,1,690.52,453.82Z"/><path class="cls-1" d="M898.77,453.82a.5.5,0,0,1-.5-.5v-31.5a.5.5,0,0,1,.5-.5.5.5,0,0,1,.5.5v31.5A.51.51,0,0,1,898.77,453.82Z"/></g></svg>