<svg xmlns="http://www.w3.org/2000/svg" viewBox="0 0 1100 800"><defs><style>.cls-1{fill:#4b4a4a;}</style></defs><title>transparent-benddetail-flat-top</title><g id="Text_OUTLINED" data-name="Text OUTLINED"><path class="cls-1" d="M129.87,477h8.33a6.53,6.53,0,0,1,4.35,1.4,5.7,5.7,0,0,1,2.13,4.56,6,6,0,0,1-4.13,5.92l4.95,9.47h-3.86l-4.41-9.12H133.1v9.12h-3.23Zm3.23,9.36H138a3.5,3.5,0,0,0,2.72-1.06,3.25,3.25,0,0,0,.89-2.34,2.82,2.82,0,0,0-1.06-2.42,3.73,3.73,0,0,0-2.38-.66H133.1Z"/><path class="cls-1" d="M150.43,487.64a35.07,35.07,0,0,1,.22-5,6,6,0,0,1,.72-2,7.55,7.55,0,0,1,6.69-3.84,7.48,7.48,0,0,1,4.25,1.2,7.18,7.18,0,0,1,2.43,2.64,5,5,0,0,1,.75,2,65.1,65.1,0,0,1,0,9.94,5,5,0,0,1-.75,2.06,7,7,0,0,1-2.43,2.61,7.65,7.65,0,0,1-4.25,1.23,7.5,7.5,0,0,1-4.2-1.23,7.16,7.16,0,0,1-2.49-2.61c-.16-.32-.3-.63-.43-.92a6.94,6.94,0,0,1-.29-1.14A35.21,35.21,0,0,1,150.43,487.64Zm3.25,0a24.51,24.51,0,0,0,.24,4.27,3.5,3.5,0,0,0,.83,1.8,4.38,4.38,0,0,0,3.31,1.55,4,4,0,0,0,2-.48,3.6,3.6,0,0,0,1.29-1.07,3.7,3.7,0,0,0,.86-1.8,26.3,26.3,0,0,0,.22-4.27,26.69,26.69,0,0,0-.22-4.29,3.68,3.68,0,0,0-.86-1.77,3.77,3.77,0,0,0-1.29-1.1,4.8,4.8,0,0,0-2-.45,4.53,4.53,0,0,0-2,.45,4,4,0,0,0-1.35,1.1,3.48,3.48,0,0,0-.83,1.77A24.87,24.87,0,0,0,153.68,487.64Z"/><path class="cls-1" d="M186.86,492.35a8,8,0,0,1-2.68,4.57,7.67,7.67,0,0,1-4.82,1.58,7.56,7.56,0,0,1-4.21-1.23,7.16,7.16,0,0,1-2.49-2.61l-.42-.92a5.38,5.38,0,0,1-.29-1.14,56.25,56.25,0,0,1,0-9.94,5.8,5.8,0,0,1,.71-2,7.55,7.55,0,0,1,6.7-3.84,7.25,7.25,0,0,1,5,1.83,8,8,0,0,1,2.46,4.5h-3.43a4.66,4.66,0,0,0-1.44-2.2,4.19,4.19,0,0,0-2.63-.89,4.5,4.5,0,0,0-2,.45,4,4,0,0,0-1.35,1.1,3.57,3.57,0,0,0-.84,1.77,26.32,26.32,0,0,0-.23,4.29,25.94,25.94,0,0,0,.23,4.27,3.6,3.6,0,0,0,.84,1.8,4.38,4.38,0,0,0,3.31,1.55,4.34,4.34,0,0,0,4.07-2.91Z"/><path class="cls-1" d="M192.14,477h3.24v11h.06l8.79-11h3.84l-6.84,8.42,7.55,12.93H205l-5.82-10.44-3.75,3.94v6.5h-3.24Z"/><path class="cls-1" d="M214,477h13.64V480h-10.4v6.09h8.87V489h-8.87v6.27h10.4v3.06H214Z"/><path class="cls-1" d="M233.72,477h8.34a6.53,6.53,0,0,1,4.35,1.4,5.66,5.66,0,0,1,2.12,4.56,5.94,5.94,0,0,1-4.13,5.92l4.95,9.47H245.5l-4.41-9.12H237v9.12h-3.24Zm3.24,9.36h4.89a3.53,3.53,0,0,0,2.73-1.06,3.3,3.3,0,0,0,.89-2.34,2.82,2.82,0,0,0-1.07-2.42,3.7,3.7,0,0,0-2.37-.66H237Z"/><path class="cls-1" d="M846,477h8.33a6.53,6.53,0,0,1,4.35,1.4,5.7,5.7,0,0,1,2.13,4.56,6,6,0,0,1-4.13,5.92l5,9.47h-3.86l-4.41-9.12h-4.13v9.12H846Zm3.23,9.36h4.9a3.5,3.5,0,0,0,2.72-1.06,3.25,3.25,0,0,0,.89-2.34,2.84,2.84,0,0,0-1.06-2.42,3.73,3.73,0,0,0-2.38-.66h-5.07Z"/><path class="cls-1" d="M866.56,487.64a35.07,35.07,0,0,1,.22-5,6,6,0,0,1,.72-2,7.55,7.55,0,0,1,6.69-3.84,7.48,7.48,0,0,1,4.25,1.2,7.18,7.18,0,0,1,2.43,2.64,5,5,0,0,1,.75,2,65.1,65.1,0,0,1,0,9.94,5,5,0,0,1-.75,2.06,7,7,0,0,1-2.43,2.61,7.65,7.65,0,0,1-4.25,1.23,7.5,7.5,0,0,1-4.2-1.23,7.08,7.08,0,0,1-2.49-2.61c-.16-.32-.3-.63-.43-.92a6.94,6.94,0,0,1-.29-1.14A35.21,35.21,0,0,1,866.56,487.64Zm3.25,0a24.51,24.51,0,0,0,.24,4.27,3.5,3.5,0,0,0,.83,1.8,4.38,4.38,0,0,0,3.31,1.55,4,4,0,0,0,2-.48,3.6,3.6,0,0,0,1.29-1.07,3.7,3.7,0,0,0,.86-1.8,26.3,26.3,0,0,0,.22-4.27,26.69,26.69,0,0,0-.22-4.29,3.68,3.68,0,0,0-.86-1.77,3.77,3.77,0,0,0-1.29-1.1,4.8,4.8,0,0,0-2-.45,4.53,4.53,0,0,0-2,.45,4,4,0,0,0-1.35,1.1,3.48,3.48,0,0,0-.83,1.77A24.87,24.87,0,0,0,869.81,487.64Z"/><path class="cls-1" d="M903,492.35a8,8,0,0,1-2.68,4.57,7.67,7.67,0,0,1-4.82,1.58,7.56,7.56,0,0,1-4.21-1.23,7.16,7.16,0,0,1-2.49-2.61l-.42-.92a5.38,5.38,0,0,1-.29-1.14,56.25,56.25,0,0,1,0-9.94,5.8,5.8,0,0,1,.71-2,7.55,7.55,0,0,1,6.7-3.84,7.25,7.25,0,0,1,5,1.83,8,8,0,0,1,2.46,4.5h-3.43a4.66,4.66,0,0,0-1.44-2.2,4.19,4.19,0,0,0-2.63-.89,4.58,4.58,0,0,0-2,.45,4.06,4.06,0,0,0-1.34,1.1,3.57,3.57,0,0,0-.84,1.77,26.32,26.32,0,0,0-.23,4.29,25.94,25.94,0,0,0,.23,4.27,3.6,3.6,0,0,0,.84,1.8,4.34,4.34,0,0,0,3.31,1.55,4.34,4.34,0,0,0,4.07-2.91Z"/><path class="cls-1" d="M908.27,477h3.24v11h.06l8.79-11h3.84l-6.85,8.42,7.56,12.93h-3.83l-5.82-10.44-3.75,3.94v6.5h-3.24Z"/><path class="cls-1" d="M930.17,477h13.64V480h-10.4v6.09h8.87V489h-8.87v6.27h10.4v3.06H930.17Z"/><path class="cls-1" d="M949.85,477h8.34a6.53,6.53,0,0,1,4.35,1.4,5.69,5.69,0,0,1,2.12,4.56,5.94,5.94,0,0,1-4.13,5.92l5,9.47h-3.85l-4.41-9.12h-4.13v9.12h-3.24Zm3.24,9.36H958a3.53,3.53,0,0,0,2.73-1.06,3.3,3.3,0,0,0,.89-2.34,2.82,2.82,0,0,0-1.07-2.42,3.7,3.7,0,0,0-2.37-.66h-5.07Z"/><path class="cls-1" d="M519.45,477h13.63V480h-10.4v6.3h8.88v2.87h-8.88v9.12h-3.23Z"/><path class="cls-1" d="M538.56,477h3.24v18.29h10.4v3.06H538.56Z"/><path class="cls-1" d="M569.19,493.55h-8.1l-1.64,4.77H556L563.78,477h2.71l7.77,21.35h-3.42Zm-.93-2.87-3.09-9.33h-.06L562,490.68Z"/><path class="cls-1" d="M580.93,479.85h-5.84V477H590v2.88h-5.85v18.47h-3.25Z"/></g><g id="Art_OUTLINED" data-name="Art OUTLINED"><path class="cls-1" d="M687.34,376.7c-22.41,0-45.19-.13-66.93-.26-19-.12-36.89-.22-52.65-.22H539.48c-15.75,0-33.67.1-52.64.22-61.15.36-130.46.77-176.74-1.92l-3-.17c-61.17-3.55-130.51-7.56-191.77-60.37a3,3,0,0,1,3.92-4.54c59.71,51.48,128,55.43,188.2,58.92l3,.17c46.08,2.68,115.29,2.27,176.36,1.91,19-.12,36.9-.22,52.67-.22h28.28c15.78,0,33.7.1,52.68.22,61.06.36,130.28.77,176.36-1.91l3-.17c60.22-3.49,128.48-7.44,188.2-58.92A3,3,0,1,1,992,314c-61.26,52.81-130.6,56.82-191.78,60.37l-3,.17C767.33,376.26,727.94,376.7,687.34,376.7Z"/><path class="cls-1" d="M989.84,453.82H112.37a.5.5,0,0,1-.5-.5.5.5,0,0,1,.5-.5H989.84a.5.5,0,0,1,.5.5A.51.51,0,0,1,989.84,453.82Z"/><path class="cls-1" d="M304,453.82a.5.5,0,0,1-.5-.5V421.87a.5.5,0,0,1,.5-.5.5.5,0,0,1,.5.5v31.45A.51.51,0,0,1,304,453.82Z"/><path class="cls-1" d="M803,453.82a.51.51,0,0,1-.5-.5V421.87a.5.5,0,0,1,.5-.5.5.5,0,0,1,.5.5v31.45A.5.5,0,0,1,803,453.82Z"/></g></svg>