<svg xmlns="http://www.w3.org/2000/svg" viewBox="0 0 1100 800"><defs><style>.cls-1{fill:#4b4a4a;}</style></defs><title>transparent-benddetail-camber</title><g id="Text_OUTLINED" data-name="Text OUTLINED"><path class="cls-1" d="M502,492.35a8,8,0,0,1-2.68,4.57,7.63,7.63,0,0,1-4.82,1.58,7.52,7.52,0,0,1-4.2-1.23,7.16,7.16,0,0,1-2.49-2.61c-.16-.32-.3-.63-.42-.92a6,6,0,0,1-.3-1.14,56.25,56.25,0,0,1,0-9.94,6,6,0,0,1,.72-2,7.55,7.55,0,0,1,6.69-3.84,7.21,7.21,0,0,1,5,1.83,8,8,0,0,1,2.46,4.5h-3.42a4.73,4.73,0,0,0-1.44-2.2,4.2,4.2,0,0,0-2.64-.89,4.53,4.53,0,0,0-2,.45,4.21,4.21,0,0,0-1.35,1.1,3.56,3.56,0,0,0-.83,1.77,25.19,25.19,0,0,0-.23,4.29,24.83,24.83,0,0,0,.23,4.27,3.59,3.59,0,0,0,.83,1.8,4,4,0,0,0,1.35,1.07,3.82,3.82,0,0,0,2,.48,4.35,4.35,0,0,0,4.08-2.91Z"/><path class="cls-1" d="M518.23,493.55h-8.1l-1.64,4.77h-3.43L512.83,477h2.71l7.76,21.35h-3.41Zm-.92-2.87-3.09-9.33h-.06l-3.09,9.33Z"/><path class="cls-1" d="M528.59,477h3l6.13,13.91,6-13.91h3.06v21.35h-3.23V485h-.08l-4.46,10.25h-2.7L531.88,485h-.06v13.31h-3.23Z"/><path class="cls-1" d="M554.32,477h8.28a6.58,6.58,0,0,1,4.73,1.58,5.54,5.54,0,0,1,1.59,4.14,5,5,0,0,1-.62,2.52,4.23,4.23,0,0,1-1,1.09,7,7,0,0,1-1.55,1v.06a4.25,4.25,0,0,1,2.63,1.83,6,6,0,0,1,.84,3.09,5.87,5.87,0,0,1-1.73,4.38,5.72,5.72,0,0,1-4.21,1.68h-9Zm3.24,2.88V486h4.67a3.38,3.38,0,0,0,2.61-.92,2.93,2.93,0,0,0,.85-2.14,3.06,3.06,0,0,0-.85-2.18,3.65,3.65,0,0,0-2.61-.87Zm0,9v6.41h5a3.4,3.4,0,0,0,2.63-1,3.41,3.41,0,0,0,0-4.48,3.43,3.43,0,0,0-2.63-.95Z"/><path class="cls-1" d="M575.62,477h13.63V480h-10.4v6.09h8.88V489h-8.88v6.27h10.4v3.06H575.62Z"/><path class="cls-1" d="M595.3,477h8.34a6.57,6.57,0,0,1,4.35,1.4,5.72,5.72,0,0,1,2.12,4.56,6,6,0,0,1-4.13,5.92l4.95,9.47h-3.85l-4.41-9.12h-4.13v9.12H595.3Zm3.24,9.36h4.89a3.53,3.53,0,0,0,2.73-1.06,3.3,3.3,0,0,0,.89-2.34,2.85,2.85,0,0,0-1.07-2.42,3.72,3.72,0,0,0-2.37-.66h-5.07Z"/></g><g id="Art_OUTLINED" data-name="Art OUTLINED"><path class="cls-1" d="M988.31,453.82H111.52a.51.51,0,0,1-.5-.5.5.5,0,0,1,.5-.5H988.31a.5.5,0,0,1,.5.5A.5.5,0,0,1,988.31,453.82Z"/><path class="cls-1" d="M300.61,453.82a.5.5,0,0,1-.5-.5V421.89a.5.5,0,0,1,.5-.5.5.5,0,0,1,.5.5v31.43A.51.51,0,0,1,300.61,453.82Z"/><path class="cls-1" d="M799.23,453.82a.5.5,0,0,1-.5-.5V421.89a.5.5,0,1,1,1,0v31.43A.5.5,0,0,1,799.23,453.82Z"/><path class="cls-1" d="M882.49,376.7c-30.72,0-77.43-10.34-131.52-22.32-65.53-14.5-139.8-30.94-198.53-30.94s-133,16.44-198.53,30.94c-54.09,12-100.8,22.32-131.52,22.32-39.76,0-78.16-16.5-108.11-46.45a3,3,0,0,1,4.24-4.24c36.94,36.93,76.87,44.69,103.87,44.69,30.06,0,78.71-10.77,130.22-22.17,65.83-14.58,140.44-31.09,199.83-31.09s134,16.51,199.82,31.09c51.51,11.4,100.16,22.17,130.23,22.17,27,0,66.93-7.76,103.86-44.69a3,3,0,0,1,4.25,4.24C960.64,360.2,922.25,376.7,882.49,376.7Z"/></g></svg>