<svg xmlns="http://www.w3.org/2000/svg" viewBox="0 0 1100 800"><defs><style>.cls-1{fill:#4b4a4a;}</style></defs><title>transparent-benddetail-purepop</title><g id="Text_OUTLINED" data-name="Text OUTLINED"><path class="cls-1" d="M502.07,492.35a8.1,8.1,0,0,1-2.68,4.57,7.67,7.67,0,0,1-4.82,1.58,7.53,7.53,0,0,1-4.21-1.23,7.16,7.16,0,0,1-2.49-2.61c-.15-.32-.3-.63-.42-.92a6,6,0,0,1-.3-1.14,56.25,56.25,0,0,1,0-9.94,6,6,0,0,1,.72-2,7.55,7.55,0,0,1,6.7-3.84,7.25,7.25,0,0,1,5,1.83,8.15,8.15,0,0,1,2.46,4.5h-3.43a4.73,4.73,0,0,0-1.44-2.2,4.19,4.19,0,0,0-2.63-.89,4.54,4.54,0,0,0-2,.45,4.06,4.06,0,0,0-1.34,1.1,3.57,3.57,0,0,0-.84,1.77,25.19,25.19,0,0,0-.23,4.29,24.83,24.83,0,0,0,.23,4.27,3.6,3.6,0,0,0,.84,1.8,3.87,3.87,0,0,0,1.34,1.07,3.83,3.83,0,0,0,2,.48,4.34,4.34,0,0,0,4.07-2.91Z"/><path class="cls-1" d="M518.29,493.55h-8.1l-1.64,4.77h-3.43L512.89,477h2.71l7.76,21.35H520Zm-.92-2.87-3.09-9.33h-.06l-3.09,9.33Z"/><path class="cls-1" d="M528.65,477h3l6.13,13.91,6-13.91h3.06v21.35h-3.23V485h-.08l-4.46,10.25h-2.7L531.94,485h-.06v13.31h-3.23Z"/><path class="cls-1" d="M554.38,477h8.28a6.58,6.58,0,0,1,4.73,1.58,5.54,5.54,0,0,1,1.6,4.14,4.92,4.92,0,0,1-.63,2.52,4.23,4.23,0,0,1-1,1.09,7,7,0,0,1-1.55,1v.06a4.25,4.25,0,0,1,2.63,1.83,6,6,0,0,1,.84,3.09,5.87,5.87,0,0,1-1.73,4.38,5.7,5.7,0,0,1-4.2,1.68h-9Zm3.24,2.88V486h4.67a3.38,3.38,0,0,0,2.61-.92,2.89,2.89,0,0,0,.85-2.14,3,3,0,0,0-.85-2.18,3.65,3.65,0,0,0-2.61-.87Zm0,9v6.41h5a3.44,3.44,0,0,0,2.64-1,3.44,3.44,0,0,0,0-4.48,3.47,3.47,0,0,0-2.64-.95Z"/><path class="cls-1" d="M575.68,477h13.64V480H578.91v6.09h8.88V489h-8.88v6.27h10.41v3.06H575.68Z"/><path class="cls-1" d="M595.36,477h8.34a6.57,6.57,0,0,1,4.35,1.4,5.72,5.72,0,0,1,2.12,4.56,5.94,5.94,0,0,1-4.13,5.92l5,9.47h-3.85l-4.41-9.12H598.6v9.12h-3.24Zm3.24,9.36h4.89a3.53,3.53,0,0,0,2.73-1.06,3.3,3.3,0,0,0,.89-2.34,2.85,2.85,0,0,0-1.07-2.42,3.72,3.72,0,0,0-2.37-.66H598.6Z"/><path class="cls-1" d="M804.73,477h13.63V480H808v6.3h8.88v2.87H808v9.12h-3.23Z"/><path class="cls-1" d="M823.84,477h3.24v18.29h10.4v3.06H823.84Z"/><path class="cls-1" d="M854.47,493.55h-8.11l-1.64,4.77H841.3L849.06,477h2.71l7.76,21.35h-3.41Zm-.93-2.87-3.09-9.33h-.06l-3.09,9.33Z"/><path class="cls-1" d="M866.21,479.85h-5.84V477h14.94v2.88h-5.85v18.47h-3.25Z"/><path class="cls-1" d="M116.59,556h13.64V559H119.82v6.09h8.88V568h-8.88v6.27h10.41v3.06H116.59Z"/><path class="cls-1" d="M147.21,572.55h-8.1l-1.64,4.77h-3.42L141.81,556h2.71l7.76,21.35h-3.41Zm-.92-2.87-3.09-9.33h-.06l-3.09,9.33Z"/><path class="cls-1" d="M157.57,556h8.33a6.53,6.53,0,0,1,4.35,1.4,5.7,5.7,0,0,1,2.13,4.56,6,6,0,0,1-4.13,5.92l4.95,9.47h-3.85l-4.41-9.12h-4.13v9.12h-3.24Zm3.24,9.36h4.89a3.5,3.5,0,0,0,2.72-1.06,3.26,3.26,0,0,0,.9-2.34,2.85,2.85,0,0,0-1.07-2.42,3.73,3.73,0,0,0-2.38-.66h-5.06Z"/><path class="cls-1" d="M178.86,556h3.24v18.29h10.4v3.06H178.86Z"/><path class="cls-1" d="M198.4,568.53,192,556h3.43l4.53,9.47,4.52-9.47h3.43l-6.43,12.56v8.79h-3Z"/><path class="cls-1" d="M128.67,592H137a6.57,6.57,0,0,1,4.35,1.4,5.72,5.72,0,0,1,2.12,4.56,6,6,0,0,1-4.13,5.92l5,9.47h-3.85L136,604.2h-4.13v9.12h-3.24Zm3.24,9.36h4.89a3.53,3.53,0,0,0,2.73-1.06,3.3,3.3,0,0,0,.89-2.34,2.85,2.85,0,0,0-1.07-2.42,3.72,3.72,0,0,0-2.37-.66h-5.07Z"/><path class="cls-1" d="M150,592h3.23v21.35H150Z"/><path class="cls-1" d="M167,610.26q4.16-.06,4.22-3c0-1.59-.91-2.55-2.79-2.87l-2.82-.4a7,7,0,0,1-4.19-2,5.68,5.68,0,0,1-1.48-4,5.83,5.83,0,0,1,1.86-4.51,7.27,7.27,0,0,1,5.11-1.73,12,12,0,0,1,6.93,2.21l-1.8,2.67a9.76,9.76,0,0,0-5.29-1.64,4.07,4.07,0,0,0-2.49.74,2.79,2.79,0,0,0-1.07,2.32,2.36,2.36,0,0,0,.72,1.67,4.05,4.05,0,0,0,2.3,1c.58.1,1.39.21,2.4.34a6.66,6.66,0,0,1,4.44,2.15,6.06,6.06,0,0,1,1.42,4q-.17,6.12-7.5,6.21a12.15,12.15,0,0,1-8.16-2.93l2.12-2.43A9.44,9.44,0,0,0,167,610.26Z"/><path class="cls-1" d="M180.91,592h13.64V595h-10.4v6.09H193V604h-8.88v6.27h10.4v3.06H180.91Z"/><path class="cls-1" d="M225.29,477h13.63V480h-10.4v6.3h8.88v2.87h-8.88v9.12h-3.23Z"/><path class="cls-1" d="M244.4,477h3.24v18.29H258v3.06H244.4Z"/><path class="cls-1" d="M275,493.55h-8.1l-1.64,4.77h-3.43L269.62,477h2.71l7.77,21.35h-3.42Zm-.93-2.87L271,481.35H271l-3.1,9.33Z"/><path class="cls-1" d="M286.77,479.85h-5.84V477h14.94v2.88H290v18.47h-3.25Z"/><path class="cls-1" d="M893.22,556h13.63V559h-10.4v6.09h8.88V568h-8.88v6.27h10.4v3.06H893.22Z"/><path class="cls-1" d="M923.84,572.55h-8.1l-1.64,4.77h-3.43L918.44,556h2.71l7.76,21.35H925.5Zm-.92-2.87-3.09-9.33h-.06l-3.09,9.33Z"/><path class="cls-1" d="M934.2,556h8.33a6.53,6.53,0,0,1,4.35,1.4,5.7,5.7,0,0,1,2.13,4.56,6,6,0,0,1-4.13,5.92l5,9.47H946l-4.41-9.12h-4.14v9.12H934.2Zm3.23,9.36h4.9a3.5,3.5,0,0,0,2.72-1.06,3.26,3.26,0,0,0,.9-2.34,2.85,2.85,0,0,0-1.07-2.42,3.73,3.73,0,0,0-2.38-.66h-5.07Z"/><path class="cls-1" d="M955.49,556h3.24v18.29h10.4v3.06H955.49Z"/><path class="cls-1" d="M975,568.53,968.6,556H972l4.53,9.47,4.52-9.47h3.43l-6.43,12.56v8.79H975Z"/><path class="cls-1" d="M905.3,592h8.34a6.57,6.57,0,0,1,4.35,1.4,5.72,5.72,0,0,1,2.12,4.56,6,6,0,0,1-4.13,5.92l4.95,9.47h-3.85l-4.41-9.12h-4.13v9.12H905.3Zm3.24,9.36h4.89a3.5,3.5,0,0,0,2.72-1.06,3.26,3.26,0,0,0,.9-2.34,2.85,2.85,0,0,0-1.07-2.42,3.72,3.72,0,0,0-2.37-.66h-5.07Z"/><path class="cls-1" d="M926.6,592h3.23v21.35H926.6Z"/><path class="cls-1" d="M943.66,610.26q4.15-.06,4.22-3c0-1.59-.91-2.55-2.79-2.87l-2.82-.4a7,7,0,0,1-4.19-2,5.68,5.68,0,0,1-1.48-4,5.83,5.83,0,0,1,1.86-4.51,7.27,7.27,0,0,1,5.11-1.73A12,12,0,0,1,950.5,594l-1.8,2.67a9.76,9.76,0,0,0-5.29-1.64,4.07,4.07,0,0,0-2.49.74,2.79,2.79,0,0,0-1.07,2.32,2.36,2.36,0,0,0,.72,1.67,4.05,4.05,0,0,0,2.3,1c.58.1,1.38.21,2.4.34a6.66,6.66,0,0,1,4.44,2.15,6.06,6.06,0,0,1,1.42,4q-.17,6.12-7.5,6.21a12.15,12.15,0,0,1-8.16-2.93l2.12-2.43A9.44,9.44,0,0,0,943.66,610.26Z"/><path class="cls-1" d="M957.54,592h13.64V595h-10.4v6.09h8.88V604h-8.88v6.27h10.4v3.06H957.54Z"/></g><g id="Art_OUTLINED" data-name="Art OUTLINED"><path class="cls-1" d="M881.26,376.7H792.84c-34.4,0-61.36-10.29-92.57-22.21C661.9,339.84,618.42,323.24,550,323.24s-110.73,16.65-147.94,31.33C372,366.45,346,376.7,312,376.7H218.74c-39.9,0-78.44-16.56-108.5-46.62a3,3,0,0,1,4.25-4.24c37.07,37.08,77.15,44.86,104.25,44.86H312c32.84,0,58.32-10.06,87.83-21.71,37.7-14.88,80.44-31.75,150.14-31.75,69.53,0,113.56,16.81,152.41,31.64,30.66,11.71,57.14,21.82,90.43,21.82h88.42c27.1,0,67.18-7.78,104.25-44.86a3,3,0,0,1,4.25,4.24C959.69,360.14,921.16,376.7,881.26,376.7Z"/><path class="cls-1" d="M990,453.82H963.07a.5.5,0,0,1-.5-.5.5.5,0,0,1,.5-.5H990a.5.5,0,0,1,.5.5A.5.5,0,0,1,990,453.82Z"/><path class="cls-1" d="M911.94,453.82H186.44a.51.51,0,0,1-.5-.5.5.5,0,0,1,.5-.5h725.5a.5.5,0,0,1,.5.5A.5.5,0,0,1,911.94,453.82Z"/><path class="cls-1" d="M135.31,453.82H110a.5.5,0,0,1-.5-.5.5.5,0,0,1,.5-.5h25.31a.5.5,0,0,1,.5.5A.5.5,0,0,1,135.31,453.82Z"/><path class="cls-1" d="M214.07,453.82a.5.5,0,0,1-.5-.5V421.77a.5.5,0,0,1,.5-.5.51.51,0,0,1,.5.5v31.55A.51.51,0,0,1,214.07,453.82Z"/><path class="cls-1" d="M110,453.82a.5.5,0,0,1-.5-.5V421.77a.5.5,0,0,1,1,0v31.55A.5.5,0,0,1,110,453.82Z"/><path class="cls-1" d="M308,453.82a.5.5,0,0,1-.5-.5V421.77a.5.5,0,0,1,.5-.5.51.51,0,0,1,.5.5v31.55A.51.51,0,0,1,308,453.82Z"/><path class="cls-1" d="M792,453.82a.5.5,0,0,1-.5-.5V421.77a.5.5,0,0,1,.5-.5.51.51,0,0,1,.5.5v31.55A.51.51,0,0,1,792,453.82Z"/><path class="cls-1" d="M889,453.82a.5.5,0,0,1-.5-.5V421.77a.5.5,0,0,1,1,0v31.55A.5.5,0,0,1,889,453.82Z"/><path class="cls-1" d="M160.88,531.09a.5.5,0,0,1-.5-.5V371.85a.5.5,0,0,1,.5-.5.5.5,0,0,1,.5.5V530.59A.5.5,0,0,1,160.88,531.09Z"/><path class="cls-1" d="M937.51,531.09a.5.5,0,0,1-.5-.5V371.85a.5.5,0,0,1,.5-.5.5.5,0,0,1,.5.5V530.59A.5.5,0,0,1,937.51,531.09Z"/><path class="cls-1" d="M990,453.82a.5.5,0,0,1-.5-.5V421.77a.5.5,0,0,1,1,0v31.55A.5.5,0,0,1,990,453.82Z"/></g></svg>