<svg xmlns="http://www.w3.org/2000/svg" viewBox="0 0 1100 800"><defs><style>.cls-1{fill:#4b4a4a;}</style></defs><title>transparent-benddetail-directional-camber</title><g id="Text_OUTLINED" data-name="Text OUTLINED"><path class="cls-1" d="M400.52,492.35a8.1,8.1,0,0,1-2.68,4.57A7.67,7.67,0,0,1,393,498.5a7.56,7.56,0,0,1-4.21-1.23,7.16,7.16,0,0,1-2.49-2.61c-.15-.32-.3-.63-.42-.92a6,6,0,0,1-.3-1.14,56.25,56.25,0,0,1,0-9.94,6,6,0,0,1,.72-2,7.55,7.55,0,0,1,6.7-3.84,7.25,7.25,0,0,1,5,1.83,8.15,8.15,0,0,1,2.46,4.5h-3.43a4.73,4.73,0,0,0-1.44-2.2A4.19,4.19,0,0,0,393,480a4.54,4.54,0,0,0-2,.45,4.06,4.06,0,0,0-1.34,1.1,3.57,3.57,0,0,0-.84,1.77,25.19,25.19,0,0,0-.23,4.29,24.83,24.83,0,0,0,.23,4.27,3.6,3.6,0,0,0,.84,1.8,3.87,3.87,0,0,0,1.34,1.07,3.83,3.83,0,0,0,2,.48,4.34,4.34,0,0,0,4.07-2.91Z"/><path class="cls-1" d="M416.74,493.55h-8.1L407,498.32h-3.43L411.34,477h2.71l7.76,21.35H418.4Zm-.92-2.87-3.09-9.33h-.06l-3.09,9.33Z"/><path class="cls-1" d="M427.1,477h3l6.13,13.91,6-13.91h3.06v21.35H442.1V485H442l-4.46,10.25h-2.7L430.39,485h-.06v13.31H427.1Z"/><path class="cls-1" d="M452.83,477h8.28a6.58,6.58,0,0,1,4.73,1.58,5.54,5.54,0,0,1,1.6,4.14,4.92,4.92,0,0,1-.63,2.52,4.23,4.23,0,0,1-1,1.09,7,7,0,0,1-1.55,1v.06a4.25,4.25,0,0,1,2.63,1.83,6,6,0,0,1,.84,3.09,5.87,5.87,0,0,1-1.73,4.38,5.7,5.7,0,0,1-4.2,1.68h-9Zm3.24,2.88V486h4.67a3.38,3.38,0,0,0,2.61-.92,2.89,2.89,0,0,0,.85-2.14,3,3,0,0,0-.85-2.18,3.65,3.65,0,0,0-2.61-.87Zm0,9v6.41h5a3.44,3.44,0,0,0,2.64-1,3.44,3.44,0,0,0,0-4.48,3.47,3.47,0,0,0-2.64-.95Z"/><path class="cls-1" d="M474.13,477h13.64V480H477.36v6.09h8.88V489h-8.88v6.27h10.41v3.06H474.13Z"/><path class="cls-1" d="M493.81,477h8.34a6.57,6.57,0,0,1,4.35,1.4,5.69,5.69,0,0,1,2.12,4.56,5.94,5.94,0,0,1-4.13,5.92l4.95,9.47h-3.85l-4.41-9.12h-4.13v9.12h-3.24Zm3.24,9.36h4.89a3.53,3.53,0,0,0,2.73-1.06,3.3,3.3,0,0,0,.89-2.34,2.85,2.85,0,0,0-1.07-2.42,3.72,3.72,0,0,0-2.37-.66h-5.07Z"/><path class="cls-1" d="M729.47,477h8.34a6.57,6.57,0,0,1,4.35,1.4,5.72,5.72,0,0,1,2.12,4.56,5.94,5.94,0,0,1-4.13,5.92l5,9.47h-3.85l-4.41-9.12h-4.13v9.12h-3.24Zm3.24,9.36h4.89a3.53,3.53,0,0,0,2.73-1.06,3.3,3.3,0,0,0,.89-2.34,2.85,2.85,0,0,0-1.07-2.42,3.72,3.72,0,0,0-2.37-.66h-5.07Z"/><path class="cls-1" d="M750,487.64a37.28,37.28,0,0,1,.21-5,6,6,0,0,1,.72-2,7.55,7.55,0,0,1,6.7-3.84,7.5,7.5,0,0,1,4.25,1.2,7.18,7.18,0,0,1,2.43,2.64,4.81,4.81,0,0,1,.74,2,65.1,65.1,0,0,1,0,9.94,4.85,4.85,0,0,1-.74,2.06,7,7,0,0,1-2.43,2.61,7.67,7.67,0,0,1-4.25,1.23,7.56,7.56,0,0,1-4.21-1.23,7.16,7.16,0,0,1-2.49-2.61c-.15-.32-.3-.63-.42-.92a6,6,0,0,1-.3-1.14A37.44,37.44,0,0,1,750,487.64Zm3.25,0a25.94,25.94,0,0,0,.23,4.27,3.6,3.6,0,0,0,.84,1.8,4.34,4.34,0,0,0,3.31,1.55,4,4,0,0,0,2-.48,3.6,3.6,0,0,0,1.29-1.07,3.8,3.8,0,0,0,.87-1.8,27.55,27.55,0,0,0,.22-4.27,28,28,0,0,0-.22-4.29,4.53,4.53,0,0,0-2.16-2.87,4.72,4.72,0,0,0-2-.45,4.58,4.58,0,0,0-2,.45,4.06,4.06,0,0,0-1.34,1.1,3.57,3.57,0,0,0-.84,1.77A26.32,26.32,0,0,0,753.29,487.64Z"/><path class="cls-1" d="M786.46,492.35a8,8,0,0,1-2.68,4.57A7.65,7.65,0,0,1,779,498.5a7.5,7.5,0,0,1-4.2-1.23,7.16,7.16,0,0,1-2.49-2.61c-.16-.32-.3-.63-.43-.92a6.94,6.94,0,0,1-.29-1.14,56.25,56.25,0,0,1,0-9.94,6,6,0,0,1,.72-2,7.55,7.55,0,0,1,6.69-3.84,7.25,7.25,0,0,1,5,1.83,8,8,0,0,1,2.46,4.5H783a4.81,4.81,0,0,0-1.44-2.2A4.2,4.2,0,0,0,779,480a4.53,4.53,0,0,0-2,.45,4,4,0,0,0-1.35,1.1,3.48,3.48,0,0,0-.83,1.77,24.87,24.87,0,0,0-.24,4.29,24.51,24.51,0,0,0,.24,4.27,3.5,3.5,0,0,0,.83,1.8,4.38,4.38,0,0,0,3.31,1.55,4.35,4.35,0,0,0,4.08-2.91Z"/><path class="cls-1" d="M791.75,477H795v11h0l8.79-11h3.84l-6.84,8.42,7.56,12.93h-3.84l-5.81-10.44L795,491.82v6.5h-3.24Z"/><path class="cls-1" d="M813.64,477h13.64V480h-10.4v6.09h8.88V489h-8.88v6.27h10.4v3.06H813.64Z"/><path class="cls-1" d="M833.33,477h8.33a6.53,6.53,0,0,1,4.35,1.4,5.7,5.7,0,0,1,2.13,4.56,6,6,0,0,1-4.13,5.92l5,9.47h-3.85l-4.41-9.12h-4.13v9.12h-3.24Zm3.24,9.36h4.89a3.5,3.5,0,0,0,2.72-1.06,3.26,3.26,0,0,0,.9-2.34,2.85,2.85,0,0,0-1.07-2.42,3.73,3.73,0,0,0-2.38-.66h-5.06Z"/></g><g id="Art_OUTLINED" data-name="Art OUTLINED"><path class="cls-1" d="M687.19,376.7c-31,0-62.39-10.91-95.65-22.47-41.74-14.5-89-30.93-147.75-30.93s-100,16.41-136.47,30.89c-29.18,11.57-56.73,22.51-87.78,22.51-39.86,0-78.35-16.54-108.38-46.57a3,3,0,0,1,4.24-4.24c37,37,77.08,44.81,104.14,44.81,29.9,0,55.7-10.24,85.56-22.09,37-14.68,78.9-31.31,138.69-31.31s107.53,16.61,149.72,31.26c34.19,11.88,63.72,22.14,93.68,22.14,38.85,0,100.9-3.35,158.54-12.75,69.41-11.31,117.75-28.94,139.79-51a3,3,0,0,1,4.24,4.24C938,363,769.19,376.7,687.19,376.7Z"/><path class="cls-1" d="M990,453.82H110.92a.5.5,0,0,1-.5-.5.5.5,0,0,1,.5-.5H990a.5.5,0,0,1,.5.5A.5.5,0,0,1,990,453.82Z"/><path class="cls-1" d="M213.8,453.82a.5.5,0,0,1-.5-.5V421.81a.5.5,0,0,1,.5-.5.5.5,0,0,1,.5.5v31.51A.51.51,0,0,1,213.8,453.82Z"/><path class="cls-1" d="M683.07,453.82a.5.5,0,0,1-.5-.5V421.81a.5.5,0,0,1,.5-.5.5.5,0,0,1,.5.5v31.51A.51.51,0,0,1,683.07,453.82Z"/><path class="cls-1" d="M896.67,453.82a.5.5,0,0,1-.5-.5V421.81a.5.5,0,0,1,.5-.5.5.5,0,0,1,.5.5v31.51A.51.51,0,0,1,896.67,453.82Z"/></g></svg>