<svg xmlns="http://www.w3.org/2000/svg" viewBox="0 0 1100 800"><defs><style>.cls-1{fill:#4b4a4a;}</style></defs><title>transparent-benddetail-flying-v</title><g id="Text_OUTLINED" data-name="Text OUTLINED"><path class="cls-1" d="M188.3,477h8.33a6.53,6.53,0,0,1,4.35,1.4,5.7,5.7,0,0,1,2.13,4.56,6,6,0,0,1-4.14,5.92l5,9.47h-3.86l-4.41-9.12h-4.13v9.12H188.3Zm3.23,9.36h4.9a3.5,3.5,0,0,0,2.72-1.06,3.25,3.25,0,0,0,.89-2.34,2.82,2.82,0,0,0-1.07-2.42,3.68,3.68,0,0,0-2.37-.66h-5.07Z"/><path class="cls-1" d="M208.86,487.64a35.07,35.07,0,0,1,.22-5,5.8,5.8,0,0,1,.72-2,7.21,7.21,0,0,1,2.49-2.64,7.33,7.33,0,0,1,4.2-1.2,7.48,7.48,0,0,1,4.25,1.2,7.18,7.18,0,0,1,2.43,2.64,5,5,0,0,1,.75,2,65.1,65.1,0,0,1,0,9.94,5,5,0,0,1-.75,2.06,7,7,0,0,1-2.43,2.61,7.65,7.65,0,0,1-4.25,1.23,7.5,7.5,0,0,1-4.2-1.23,7,7,0,0,1-2.49-2.61c-.16-.32-.3-.63-.43-.92a6.06,6.06,0,0,1-.29-1.14A35.21,35.21,0,0,1,208.86,487.64Zm3.25,0a24.51,24.51,0,0,0,.24,4.27,3.5,3.5,0,0,0,.83,1.8,4.38,4.38,0,0,0,3.31,1.55,4,4,0,0,0,2-.48,4.28,4.28,0,0,0,2.15-2.87,26.3,26.3,0,0,0,.22-4.27,26.69,26.69,0,0,0-.22-4.29,3.68,3.68,0,0,0-.86-1.77,3.87,3.87,0,0,0-1.29-1.1,4.8,4.8,0,0,0-2-.45,4.53,4.53,0,0,0-2,.45,4,4,0,0,0-1.35,1.1,3.48,3.48,0,0,0-.83,1.77A24.87,24.87,0,0,0,212.11,487.64Z"/><path class="cls-1" d="M245.29,492.35a8.1,8.1,0,0,1-2.68,4.57,7.67,7.67,0,0,1-4.82,1.58,7.56,7.56,0,0,1-4.21-1.23,7.16,7.16,0,0,1-2.49-2.61l-.42-.92a5.38,5.38,0,0,1-.29-1.14,56.25,56.25,0,0,1,0-9.94,5.8,5.8,0,0,1,.71-2,7.55,7.55,0,0,1,6.7-3.84,7.25,7.25,0,0,1,5,1.83,8,8,0,0,1,2.46,4.5h-3.43a4.66,4.66,0,0,0-1.44-2.2,4.19,4.19,0,0,0-2.63-.89,4.58,4.58,0,0,0-2,.45,4.06,4.06,0,0,0-1.34,1.1,3.57,3.57,0,0,0-.84,1.77,26.32,26.32,0,0,0-.23,4.29,25.94,25.94,0,0,0,.23,4.27,3.6,3.6,0,0,0,.84,1.8,4.34,4.34,0,0,0,3.31,1.55,4.34,4.34,0,0,0,4.07-2.91Z"/><path class="cls-1" d="M250.57,477h3.24v11h.06l8.79-11h3.84l-6.85,8.42,7.56,12.93h-3.83l-5.82-10.44-3.75,3.94v6.5h-3.24Z"/><path class="cls-1" d="M272.47,477h13.64V480h-10.4v6.09h8.87V489h-8.87v6.27h10.4v3.06H272.47Z"/><path class="cls-1" d="M292.15,477h8.34a6.53,6.53,0,0,1,4.35,1.4,5.69,5.69,0,0,1,2.12,4.56,5.94,5.94,0,0,1-4.13,5.92l4.95,9.47h-3.85l-4.41-9.12h-4.13v9.12h-3.24Zm3.24,9.36h4.89a3.53,3.53,0,0,0,2.73-1.06,3.3,3.3,0,0,0,.89-2.34,2.82,2.82,0,0,0-1.07-2.42,3.7,3.7,0,0,0-2.37-.66h-5.07Z"/><path class="cls-1" d="M351.3,571.35a8,8,0,0,1-2.68,4.57,7.67,7.67,0,0,1-4.82,1.58,7.56,7.56,0,0,1-4.21-1.23,7.16,7.16,0,0,1-2.49-2.61l-.42-.92a5.38,5.38,0,0,1-.29-1.14,56.25,56.25,0,0,1,0-9.94,5.8,5.8,0,0,1,.71-2,7.55,7.55,0,0,1,6.7-3.84,7.25,7.25,0,0,1,5,1.83,8,8,0,0,1,2.46,4.5h-3.43a4.66,4.66,0,0,0-1.44-2.2,4.19,4.19,0,0,0-2.63-.89,4.5,4.5,0,0,0-2,.45,4,4,0,0,0-1.35,1.1,3.57,3.57,0,0,0-.84,1.77,26.32,26.32,0,0,0-.23,4.29,25.94,25.94,0,0,0,.23,4.27,3.6,3.6,0,0,0,.84,1.8,4.38,4.38,0,0,0,3.31,1.55,4.34,4.34,0,0,0,4.07-2.91Z"/><path class="cls-1" d="M367.53,572.55h-8.11l-1.64,4.77h-3.42L362.12,556h2.71l7.76,21.35h-3.41Zm-.93-2.87-3.09-9.33h-.06l-3.09,9.33Z"/><path class="cls-1" d="M377.88,556h3.05l6.12,13.91,6-13.91h3.07v21.35h-3.24V564h-.07l-4.47,10.25h-2.7L381.17,564h-.05v13.31h-3.24Z"/><path class="cls-1" d="M403.61,556h8.28a6.56,6.56,0,0,1,4.73,1.58,5.51,5.51,0,0,1,1.6,4.14,4.92,4.92,0,0,1-.63,2.52,4.23,4.23,0,0,1-1,1.09,7,7,0,0,1-1.55,1v.06a4.3,4.3,0,0,1,2.64,1.83,6.07,6.07,0,0,1,.83,3.09,5.87,5.87,0,0,1-1.73,4.38,5.7,5.7,0,0,1-4.2,1.68h-9Zm3.24,2.88V565h4.67a3.37,3.37,0,0,0,2.61-.92,2.89,2.89,0,0,0,.85-2.14,3,3,0,0,0-.85-2.18,3.63,3.63,0,0,0-2.61-.87Zm0,9v6.41h5a3.44,3.44,0,0,0,2.64-1,3.44,3.44,0,0,0,0-4.48,3.47,3.47,0,0,0-2.64-.95Z"/><path class="cls-1" d="M424.91,556h13.64V559h-10.4v6.09H437V568h-8.87v6.27h10.4v3.06H424.91Z"/><path class="cls-1" d="M444.59,556h8.34a6.53,6.53,0,0,1,4.35,1.4,5.69,5.69,0,0,1,2.12,4.56,5.94,5.94,0,0,1-4.13,5.92l5,9.47h-3.85L452,568.2h-4.13v9.12h-3.24Zm3.24,9.36h4.89a3.53,3.53,0,0,0,2.73-1.06,3.3,3.3,0,0,0,.89-2.34,2.82,2.82,0,0,0-1.07-2.42,3.7,3.7,0,0,0-2.37-.66h-5.07Z"/><path class="cls-1" d="M790.38,477h8.33a6.53,6.53,0,0,1,4.35,1.4,5.7,5.7,0,0,1,2.13,4.56,6,6,0,0,1-4.13,5.92l5,9.47h-3.86l-4.41-9.12h-4.13v9.12h-3.23Zm3.23,9.36h4.9a3.5,3.5,0,0,0,2.72-1.06,3.25,3.25,0,0,0,.89-2.34,2.82,2.82,0,0,0-1.06-2.42,3.73,3.73,0,0,0-2.38-.66h-5.07Z"/><path class="cls-1" d="M810.94,487.64a35.07,35.07,0,0,1,.22-5,6,6,0,0,1,.72-2,7.55,7.55,0,0,1,6.69-3.84,7.48,7.48,0,0,1,4.25,1.2,7.18,7.18,0,0,1,2.43,2.64,5,5,0,0,1,.75,2,65.1,65.1,0,0,1,0,9.94,5,5,0,0,1-.75,2.06,7,7,0,0,1-2.43,2.61,7.65,7.65,0,0,1-4.25,1.23,7.5,7.5,0,0,1-4.2-1.23,7.16,7.16,0,0,1-2.49-2.61c-.16-.32-.3-.63-.43-.92a6.94,6.94,0,0,1-.29-1.14A35.21,35.21,0,0,1,810.94,487.64Zm3.25,0a24.51,24.51,0,0,0,.24,4.27,3.5,3.5,0,0,0,.83,1.8,4.38,4.38,0,0,0,3.31,1.55,4,4,0,0,0,2-.48,3.6,3.6,0,0,0,1.29-1.07,3.7,3.7,0,0,0,.86-1.8,26.3,26.3,0,0,0,.22-4.27,26.69,26.69,0,0,0-.22-4.29,3.68,3.68,0,0,0-.86-1.77,3.77,3.77,0,0,0-1.29-1.1,4.8,4.8,0,0,0-2-.45,4.53,4.53,0,0,0-2,.45,4,4,0,0,0-1.35,1.1,3.48,3.48,0,0,0-.83,1.77A24.87,24.87,0,0,0,814.19,487.64Z"/><path class="cls-1" d="M847.37,492.35a8,8,0,0,1-2.68,4.57,7.67,7.67,0,0,1-4.82,1.58,7.56,7.56,0,0,1-4.21-1.23,7.16,7.16,0,0,1-2.49-2.61l-.42-.92a5.38,5.38,0,0,1-.29-1.14,56.25,56.25,0,0,1,0-9.94,5.8,5.8,0,0,1,.71-2,7.55,7.55,0,0,1,6.7-3.84,7.25,7.25,0,0,1,5,1.83,8,8,0,0,1,2.46,4.5h-3.43a4.66,4.66,0,0,0-1.44-2.2,4.19,4.19,0,0,0-2.63-.89,4.58,4.58,0,0,0-2,.45,4.06,4.06,0,0,0-1.34,1.1,3.57,3.57,0,0,0-.84,1.77,26.32,26.32,0,0,0-.23,4.29,25.94,25.94,0,0,0,.23,4.27,3.6,3.6,0,0,0,.84,1.8,4.34,4.34,0,0,0,3.31,1.55,4.34,4.34,0,0,0,4.07-2.91Z"/><path class="cls-1" d="M852.65,477h3.24v11H856l8.79-11h3.84l-6.85,8.42,7.56,12.93h-3.83l-5.82-10.44-3.75,3.94v6.5h-3.24Z"/><path class="cls-1" d="M874.55,477h13.64V480h-10.4v6.09h8.87V489h-8.87v6.27h10.4v3.06H874.55Z"/><path class="cls-1" d="M894.23,477h8.34a6.53,6.53,0,0,1,4.35,1.4,5.69,5.69,0,0,1,2.12,4.56,5.94,5.94,0,0,1-4.13,5.92l5,9.47H906l-4.41-9.12h-4.13v9.12h-3.24Zm3.24,9.36h4.89a3.53,3.53,0,0,0,2.73-1.06,3.3,3.3,0,0,0,.89-2.34,2.82,2.82,0,0,0-1.07-2.42,3.7,3.7,0,0,0-2.37-.66h-5.07Z"/><path class="cls-1" d="M489.34,477h8.33a6.53,6.53,0,0,1,4.35,1.4,5.7,5.7,0,0,1,2.13,4.56,6,6,0,0,1-4.13,5.92l5,9.47h-3.86l-4.4-9.12h-4.14v9.12h-3.23Zm3.23,9.36h4.9a3.5,3.5,0,0,0,2.72-1.06,3.26,3.26,0,0,0,.9-2.34,2.85,2.85,0,0,0-1.07-2.42,3.73,3.73,0,0,0-2.38-.66h-5.07Z"/><path class="cls-1" d="M509.9,487.64a35.07,35.07,0,0,1,.22-5,6,6,0,0,1,.72-2,7.55,7.55,0,0,1,6.69-3.84,7.48,7.48,0,0,1,4.25,1.2,7.18,7.18,0,0,1,2.43,2.64,5,5,0,0,1,.75,2,65.1,65.1,0,0,1,0,9.94,5,5,0,0,1-.75,2.06,7,7,0,0,1-2.43,2.61,7.65,7.65,0,0,1-4.25,1.23,7.5,7.5,0,0,1-4.2-1.23,7.16,7.16,0,0,1-2.49-2.61c-.16-.32-.3-.63-.43-.92a6.94,6.94,0,0,1-.29-1.14A35.21,35.21,0,0,1,509.9,487.64Zm3.25,0a24.51,24.51,0,0,0,.24,4.27,3.5,3.5,0,0,0,.83,1.8,4.38,4.38,0,0,0,3.31,1.55,4,4,0,0,0,2-.48,3.6,3.6,0,0,0,1.29-1.07,3.7,3.7,0,0,0,.86-1.8,26.3,26.3,0,0,0,.22-4.27,26.69,26.69,0,0,0-.22-4.29,3.68,3.68,0,0,0-.86-1.77,3.77,3.77,0,0,0-1.29-1.1,4.8,4.8,0,0,0-2-.45,4.53,4.53,0,0,0-2,.45,4,4,0,0,0-1.35,1.1,3.48,3.48,0,0,0-.83,1.77A24.87,24.87,0,0,0,513.15,487.64Z"/><path class="cls-1" d="M546.33,492.35a8,8,0,0,1-2.68,4.57,7.67,7.67,0,0,1-4.82,1.58,7.56,7.56,0,0,1-4.21-1.23,7.16,7.16,0,0,1-2.49-2.61l-.42-.92a5.38,5.38,0,0,1-.29-1.14,56.25,56.25,0,0,1,0-9.94,5.8,5.8,0,0,1,.71-2,7.55,7.55,0,0,1,6.7-3.84,7.25,7.25,0,0,1,5,1.83,8,8,0,0,1,2.46,4.5H542.9a4.71,4.71,0,0,0-1.43-2.2,4.24,4.24,0,0,0-2.64-.89,4.5,4.5,0,0,0-2,.45,4,4,0,0,0-1.35,1.1,3.57,3.57,0,0,0-.84,1.77,26.32,26.32,0,0,0-.23,4.29,25.94,25.94,0,0,0,.23,4.27,3.6,3.6,0,0,0,.84,1.8,4.38,4.38,0,0,0,3.31,1.55,4.33,4.33,0,0,0,4.07-2.91Z"/><path class="cls-1" d="M551.61,477h3.24v11h.06l8.79-11h3.84l-6.84,8.42,7.55,12.93h-3.83l-5.82-10.44-3.75,3.94v6.5h-3.24Z"/><path class="cls-1" d="M573.51,477h13.64V480h-10.4v6.09h8.87V489h-8.87v6.27h10.4v3.06H573.51Z"/><path class="cls-1" d="M593.19,477h8.34a6.53,6.53,0,0,1,4.35,1.4,5.66,5.66,0,0,1,2.12,4.56,5.93,5.93,0,0,1-4.13,5.92l5,9.47H605l-4.41-9.12h-4.13v9.12h-3.24Zm3.24,9.36h4.89a3.52,3.52,0,0,0,2.73-1.06,3.25,3.25,0,0,0,.89-2.34,2.82,2.82,0,0,0-1.07-2.42,3.68,3.68,0,0,0-2.37-.66h-5.07Z"/><path class="cls-1" d="M652.34,571.35a8,8,0,0,1-2.68,4.57,7.67,7.67,0,0,1-4.82,1.58,7.56,7.56,0,0,1-4.21-1.23,7.16,7.16,0,0,1-2.49-2.61l-.42-.92a5.38,5.38,0,0,1-.29-1.14,56.25,56.25,0,0,1,0-9.94,5.8,5.8,0,0,1,.71-2,7.55,7.55,0,0,1,6.7-3.84,7.25,7.25,0,0,1,5,1.83,8,8,0,0,1,2.46,4.5h-3.43a4.66,4.66,0,0,0-1.44-2.2,4.19,4.19,0,0,0-2.63-.89,4.58,4.58,0,0,0-2,.45,4.06,4.06,0,0,0-1.34,1.1,3.57,3.57,0,0,0-.84,1.77,26.32,26.32,0,0,0-.23,4.29,25.94,25.94,0,0,0,.23,4.27,3.6,3.6,0,0,0,.84,1.8,4.34,4.34,0,0,0,3.31,1.55,4.34,4.34,0,0,0,4.07-2.91Z"/><path class="cls-1" d="M668.57,572.55h-8.11l-1.64,4.77H655.4L663.16,556h2.71l7.76,21.35h-3.41Zm-.93-2.87-3.09-9.33h-.06l-3.09,9.33Z"/><path class="cls-1" d="M678.92,556H682l6.12,13.91,6-13.91h3.07v21.35h-3.24V564h-.07l-4.47,10.25h-2.7L682.21,564h-.05v13.31h-3.24Z"/><path class="cls-1" d="M704.65,556h8.28a6.56,6.56,0,0,1,4.73,1.58,5.51,5.51,0,0,1,1.6,4.14,4.92,4.92,0,0,1-.63,2.52,4.23,4.23,0,0,1-1,1.09,7,7,0,0,1-1.55,1v.06a4.25,4.25,0,0,1,2.63,1.83,6,6,0,0,1,.84,3.09,5.87,5.87,0,0,1-1.73,4.38,5.7,5.7,0,0,1-4.2,1.68h-9Zm3.24,2.88V565h4.67a3.38,3.38,0,0,0,2.61-.92,2.89,2.89,0,0,0,.85-2.14,3,3,0,0,0-.85-2.18,3.65,3.65,0,0,0-2.61-.87Zm0,9v6.41h5a3.44,3.44,0,0,0,2.64-1,3.44,3.44,0,0,0,0-4.48,3.47,3.47,0,0,0-2.64-.95Z"/><path class="cls-1" d="M726,556h13.64V559h-10.4v6.09h8.87V568h-8.87v6.27h10.4v3.06H726Z"/><path class="cls-1" d="M745.63,556H754a6.53,6.53,0,0,1,4.35,1.4,5.69,5.69,0,0,1,2.12,4.56,5.94,5.94,0,0,1-4.13,5.92l5,9.47h-3.85L753,568.2h-4.13v9.12h-3.24Zm3.24,9.36h4.89a3.53,3.53,0,0,0,2.73-1.06,3.3,3.3,0,0,0,.89-2.34,2.82,2.82,0,0,0-1.07-2.42,3.7,3.7,0,0,0-2.37-.66h-5.07Z"/></g><g id="Art_OUTLINED" data-name="Art OUTLINED"><path class="cls-1" d="M549.73,376.7c-26.76,0-36.3-2.48-103-21.87-48.41-14.1-70.58-11.12-104.13-6.61-11.06,1.48-23.59,3.16-38.57,4.4-58.63,4.84-126.81,6.15-193.93-39.85a3,3,0,1,1,3.39-4.95,227.16,227.16,0,0,0,97.19,38c32.22,4.77,63.67,3.2,92.86.79,14.82-1.22,27.28-2.9,38.26-4.37,33.08-4.44,57-7.65,106.61,6.79,65.92,19.19,75.34,21.64,101.28,21.64S585.1,368.25,651,349.06c49.64-14.44,73.53-11.23,106.61-6.79,11,1.47,23.44,3.15,38.26,4.37,29.19,2.41,60.64,4,92.86-.79a227.16,227.16,0,0,0,97.19-38,3,3,0,1,1,3.39,4.95c-67.12,46-135.3,44.69-193.93,39.85-15-1.24-27.51-2.92-38.57-4.4-33.55-4.51-55.72-7.49-104.14,6.61C586,374.22,576.5,376.7,549.73,376.7Z"/><path class="cls-1" d="M990,453.82H724.24a.51.51,0,0,1-.5-.5.5.5,0,0,1,.5-.5H990a.5.5,0,0,1,.5.5A.5.5,0,0,1,990,453.82Z"/><path class="cls-1" d="M673.11,453.82H423.2a.51.51,0,0,1-.5-.5.5.5,0,0,1,.5-.5H673.11a.5.5,0,0,1,.5.5A.5.5,0,0,1,673.11,453.82Z"/><path class="cls-1" d="M372.07,453.82H109.47a.5.5,0,0,1-.5-.5.5.5,0,0,1,.5-.5h262.6a.5.5,0,0,1,.5.5A.5.5,0,0,1,372.07,453.82Z"/><path class="cls-1" d="M324,453.82a.5.5,0,0,1-.5-.5V421.76a.5.5,0,0,1,.5-.5.5.5,0,0,1,.5.5v31.56A.51.51,0,0,1,324,453.82Z"/><path class="cls-1" d="M474.48,453.82a.5.5,0,0,1-.5-.5V421.76a.5.5,0,0,1,.5-.5.5.5,0,0,1,.5.5v31.56A.51.51,0,0,1,474.48,453.82Z"/><path class="cls-1" d="M625,453.82a.5.5,0,0,1-.5-.5V421.76a.5.5,0,0,1,.5-.5.5.5,0,0,1,.5.5v31.56A.51.51,0,0,1,625,453.82Z"/><path class="cls-1" d="M173.44,453.82a.5.5,0,0,1-.5-.5V421.76a.5.5,0,0,1,.5-.5.5.5,0,0,1,.5.5v31.56A.51.51,0,0,1,173.44,453.82Z"/><path class="cls-1" d="M775.52,453.82a.5.5,0,0,1-.5-.5V421.76a.5.5,0,0,1,.5-.5.5.5,0,0,1,.5.5v31.56A.51.51,0,0,1,775.52,453.82Z"/><path class="cls-1" d="M926,453.82a.5.5,0,0,1-.5-.5V421.76a.5.5,0,0,1,.5-.5.5.5,0,0,1,.5.5v31.56A.51.51,0,0,1,926,453.82Z"/><path class="cls-1" d="M397.64,531.09a.5.5,0,0,1-.5-.5V371.85a.5.5,0,0,1,.5-.5.5.5,0,0,1,.5.5V530.59A.5.5,0,0,1,397.64,531.09Z"/><path class="cls-1" d="M698.68,531.09a.5.5,0,0,1-.5-.5V371.85a.5.5,0,0,1,.5-.5.5.5,0,0,1,.5.5V530.59A.5.5,0,0,1,698.68,531.09Z"/></g></svg>