<svg xmlns="http://www.w3.org/2000/svg" xmlns:xlink="http://www.w3.org/1999/xlink" viewBox="0 0 1100 800"><defs><style>.cls-1{fill:none;}.cls-2{clip-path:url(#clip-path);}.cls-3{fill:#4b4a4a;}</style><clipPath id="clip-path"><path class="cls-1" d="M863.91,315.79c-72.48,8.68-174.39,16.31-312.33,16.31h-3.16c-137.94,0-239.85-7.63-312.33-16.31C157,306.31,110,341.82,110,400S157,493.69,236.09,484.21c72.48-8.68,174.39-16.31,312.33-16.31h3.16c137.94,0,239.85,7.63,312.33,16.31C943.05,493.69,990,458.18,990,400S943.05,306.31,863.91,315.79Z"/></clipPath></defs><title>transparent-core-fsc-certified-super-fly-ii-700g-core-with-dualzone-egd</title><g id="Art_OUTLINED" data-name="Art OUTLINED"><g class="cls-2"><path class="cls-3" d="M990,371.54H110a.5.5,0,0,1-.5-.5.5.5,0,0,1,.5-.5H990a.5.5,0,0,1,.5.5A.5.5,0,0,1,990,371.54Z"/><path class="cls-3" d="M990,360H110a.5.5,0,0,1-.5-.5.5.5,0,0,1,.5-.5H990a.5.5,0,0,1,.5.5A.5.5,0,0,1,990,360Z"/><path class="cls-3" d="M238,348.37H110a.5.5,0,0,1-.5-.5.51.51,0,0,1,.5-.5H238a.5.5,0,0,1,.5.5A.5.5,0,0,1,238,348.37Z"/><path class="cls-3" d="M238,336.79H110a.51.51,0,0,1-.5-.5.5.5,0,0,1,.5-.5H238a.5.5,0,0,1,.5.5A.5.5,0,0,1,238,336.79Z"/><path class="cls-3" d="M990,325.2H110a.5.5,0,0,1,0-1H990a.5.5,0,0,1,0,1Z"/><path class="cls-3" d="M990,429.46H110a.5.5,0,0,1,0-1H990a.5.5,0,0,1,0,1Z"/><path class="cls-3" d="M990,417.88H110a.5.5,0,0,1-.5-.5.5.5,0,0,1,.5-.5H990a.5.5,0,0,1,.5.5A.5.5,0,0,1,990,417.88Z"/><path class="cls-3" d="M990,406.29H110a.5.5,0,0,1-.5-.5.5.5,0,0,1,.5-.5H990a.5.5,0,0,1,.5.5A.5.5,0,0,1,990,406.29Z"/><path class="cls-3" d="M990,394.71H110a.5.5,0,0,1-.5-.5.5.5,0,0,1,.5-.5H990a.5.5,0,0,1,.5.5A.5.5,0,0,1,990,394.71Z"/><path class="cls-3" d="M990,383.12H110a.5.5,0,0,1-.5-.5.5.5,0,0,1,.5-.5H990a.5.5,0,0,1,.5.5A.5.5,0,0,1,990,383.12Z"/><path class="cls-3" d="M990,475.8H110a.5.5,0,1,1,0-1H990a.5.5,0,0,1,0,1Z"/><path class="cls-3" d="M238,464.22H110a.51.51,0,0,1-.5-.5.5.5,0,0,1,.5-.5H238a.5.5,0,0,1,.5.5A.5.5,0,0,1,238,464.22Z"/><path class="cls-3" d="M238,452.63H110a.5.5,0,0,1-.5-.5.51.51,0,0,1,.5-.5H238a.5.5,0,0,1,.5.5A.5.5,0,0,1,238,452.63Z"/><path class="cls-3" d="M990,441.05H110a.5.5,0,0,1-.5-.5.5.5,0,0,1,.5-.5H990a.5.5,0,0,1,.5.5A.5.5,0,0,1,990,441.05Z"/><path class="cls-3" d="M990,348.37H862a.5.5,0,0,1-.5-.5.51.51,0,0,1,.5-.5H990a.5.5,0,0,1,.5.5A.5.5,0,0,1,990,348.37Z"/><path class="cls-3" d="M990,336.79H862a.51.51,0,0,1-.5-.5.5.5,0,0,1,.5-.5H990a.5.5,0,0,1,.5.5A.5.5,0,0,1,990,336.79Z"/><path class="cls-3" d="M990,464.22H862a.51.51,0,0,1-.5-.5.5.5,0,0,1,.5-.5H990a.5.5,0,0,1,.5.5A.5.5,0,0,1,990,464.22Z"/><path class="cls-3" d="M990,452.63H862a.5.5,0,0,1,0-1H990a.5.5,0,0,1,0,1Z"/><path class="cls-3" d="M862.5,475.81h-625V440.06h625Zm-624-1h623V441.06h-623Z"/><path class="cls-3" d="M862.5,360h-625V324.2h625Zm-624-1h623V325.2h-623Z"/><path class="cls-3" d="M238,358.83a.5.5,0,0,1-.5-.5V326a.5.5,0,0,1,.5-.5.5.5,0,0,1,.5.5v32.34A.5.5,0,0,1,238,358.83Z"/><path class="cls-3" d="M248.23,360a.5.5,0,0,1-.5-.5V324.7a.5.5,0,0,1,.5-.5.5.5,0,0,1,.5.5v34.75A.5.5,0,0,1,248.23,360Z"/><path class="cls-3" d="M258.46,360a.5.5,0,0,1-.5-.5V324.7a.5.5,0,0,1,.5-.5.5.5,0,0,1,.5.5v34.75A.5.5,0,0,1,258.46,360Z"/><path class="cls-3" d="M268.69,360a.5.5,0,0,1-.5-.5V324.7a.5.5,0,0,1,.5-.5.5.5,0,0,1,.5.5v34.75A.5.5,0,0,1,268.69,360Z"/><path class="cls-3" d="M278.92,360a.5.5,0,0,1-.5-.5V324.7a.5.5,0,0,1,.5-.5.5.5,0,0,1,.5.5v34.75A.5.5,0,0,1,278.92,360Z"/><path class="cls-3" d="M289.15,360a.5.5,0,0,1-.5-.5V324.7a.5.5,0,0,1,.5-.5.5.5,0,0,1,.5.5v34.75A.5.5,0,0,1,289.15,360Z"/><path class="cls-3" d="M299.38,360a.5.5,0,0,1-.5-.5V324.7a.5.5,0,0,1,.5-.5.5.5,0,0,1,.5.5v34.75A.5.5,0,0,1,299.38,360Z"/><path class="cls-3" d="M309.61,360a.5.5,0,0,1-.5-.5V324.7a.5.5,0,0,1,.5-.5.5.5,0,0,1,.5.5v34.75A.5.5,0,0,1,309.61,360Z"/><path class="cls-3" d="M319.84,360a.5.5,0,0,1-.5-.5V324.7a.5.5,0,0,1,.5-.5.5.5,0,0,1,.5.5v34.75A.5.5,0,0,1,319.84,360Z"/><path class="cls-3" d="M330.06,360a.5.5,0,0,1-.5-.5V324.7a.5.5,0,0,1,.5-.5.5.5,0,0,1,.5.5v34.75A.5.5,0,0,1,330.06,360Z"/><path class="cls-3" d="M340.29,360a.5.5,0,0,1-.5-.5V324.7a.5.5,0,0,1,.5-.5.5.5,0,0,1,.5.5v34.75A.5.5,0,0,1,340.29,360Z"/><path class="cls-3" d="M350.52,360a.5.5,0,0,1-.5-.5V324.7a.5.5,0,0,1,.5-.5.5.5,0,0,1,.5.5v34.75A.5.5,0,0,1,350.52,360Z"/><path class="cls-3" d="M360.75,360a.5.5,0,0,1-.5-.5V324.7a.5.5,0,0,1,.5-.5.5.5,0,0,1,.5.5v34.75A.5.5,0,0,1,360.75,360Z"/><path class="cls-3" d="M371,360a.5.5,0,0,1-.5-.5V324.7a.5.5,0,0,1,.5-.5.5.5,0,0,1,.5.5v34.75A.5.5,0,0,1,371,360Z"/><path class="cls-3" d="M381.21,360a.5.5,0,0,1-.5-.5V324.7a.5.5,0,0,1,.5-.5.5.5,0,0,1,.5.5v34.75A.5.5,0,0,1,381.21,360Z"/><path class="cls-3" d="M391.44,360a.5.5,0,0,1-.5-.5V324.7a.5.5,0,0,1,.5-.5.5.5,0,0,1,.5.5v34.75A.5.5,0,0,1,391.44,360Z"/><path class="cls-3" d="M401.67,360a.5.5,0,0,1-.5-.5V324.7a.5.5,0,0,1,.5-.5.5.5,0,0,1,.5.5v34.75A.5.5,0,0,1,401.67,360Z"/><path class="cls-3" d="M411.9,360a.5.5,0,0,1-.5-.5V324.7a.5.5,0,1,1,1,0v34.75A.5.5,0,0,1,411.9,360Z"/><path class="cls-3" d="M422.13,360a.5.5,0,0,1-.5-.5V324.7a.5.5,0,1,1,1,0v34.75A.5.5,0,0,1,422.13,360Z"/><path class="cls-3" d="M432.36,360a.5.5,0,0,1-.5-.5V324.7a.5.5,0,1,1,1,0v34.75A.5.5,0,0,1,432.36,360Z"/><path class="cls-3" d="M442.59,360a.5.5,0,0,1-.5-.5V324.7a.5.5,0,0,1,1,0v34.75A.5.5,0,0,1,442.59,360Z"/><path class="cls-3" d="M452.82,360a.5.5,0,0,1-.5-.5V324.7a.5.5,0,0,1,1,0v34.75A.5.5,0,0,1,452.82,360Z"/><path class="cls-3" d="M463.05,360a.5.5,0,0,1-.5-.5V324.7a.5.5,0,0,1,1,0v34.75A.5.5,0,0,1,463.05,360Z"/><path class="cls-3" d="M473.28,360a.5.5,0,0,1-.5-.5V324.7a.5.5,0,0,1,.5-.5.5.5,0,0,1,.5.5v34.75A.5.5,0,0,1,473.28,360Z"/><path class="cls-3" d="M483.51,360a.5.5,0,0,1-.5-.5V324.7a.5.5,0,0,1,.5-.5.5.5,0,0,1,.5.5v34.75A.5.5,0,0,1,483.51,360Z"/><path class="cls-3" d="M493.74,360a.5.5,0,0,1-.5-.5V324.7a.5.5,0,0,1,.5-.5.5.5,0,0,1,.5.5v34.75A.5.5,0,0,1,493.74,360Z"/><path class="cls-3" d="M504,360a.5.5,0,0,1-.5-.5V324.7a.5.5,0,0,1,.5-.5.5.5,0,0,1,.5.5v34.75A.5.5,0,0,1,504,360Z"/><path class="cls-3" d="M514.2,360a.5.5,0,0,1-.5-.5V324.7a.5.5,0,0,1,.5-.5.5.5,0,0,1,.5.5v34.75A.5.5,0,0,1,514.2,360Z"/><path class="cls-3" d="M524.43,360a.5.5,0,0,1-.5-.5V324.7a.5.5,0,0,1,.5-.5.5.5,0,0,1,.5.5v34.75A.5.5,0,0,1,524.43,360Z"/><path class="cls-3" d="M534.66,360a.5.5,0,0,1-.5-.5V324.7a.5.5,0,0,1,.5-.5.5.5,0,0,1,.5.5v34.75A.5.5,0,0,1,534.66,360Z"/><path class="cls-3" d="M544.89,360a.5.5,0,0,1-.5-.5V324.7a.5.5,0,0,1,.5-.5.5.5,0,0,1,.5.5v34.75A.5.5,0,0,1,544.89,360Z"/><path class="cls-3" d="M555.11,360a.5.5,0,0,1-.5-.5V324.7a.5.5,0,0,1,.5-.5.5.5,0,0,1,.5.5v34.75A.5.5,0,0,1,555.11,360Z"/><path class="cls-3" d="M565.34,360a.5.5,0,0,1-.5-.5V324.7a.5.5,0,0,1,.5-.5.5.5,0,0,1,.5.5v34.75A.5.5,0,0,1,565.34,360Z"/><path class="cls-3" d="M575.57,360a.5.5,0,0,1-.5-.5V324.7a.5.5,0,0,1,.5-.5.5.5,0,0,1,.5.5v34.75A.5.5,0,0,1,575.57,360Z"/><path class="cls-3" d="M585.8,360a.5.5,0,0,1-.5-.5V324.7a.5.5,0,0,1,.5-.5.5.5,0,0,1,.5.5v34.75A.5.5,0,0,1,585.8,360Z"/><path class="cls-3" d="M596,360a.5.5,0,0,1-.5-.5V324.7a.5.5,0,0,1,.5-.5.5.5,0,0,1,.5.5v34.75A.5.5,0,0,1,596,360Z"/><path class="cls-3" d="M606.26,360a.5.5,0,0,1-.5-.5V324.7a.5.5,0,0,1,.5-.5.5.5,0,0,1,.5.5v34.75A.5.5,0,0,1,606.26,360Z"/><path class="cls-3" d="M616.49,360a.5.5,0,0,1-.5-.5V324.7a.5.5,0,0,1,.5-.5.5.5,0,0,1,.5.5v34.75A.5.5,0,0,1,616.49,360Z"/><path class="cls-3" d="M626.72,360a.5.5,0,0,1-.5-.5V324.7a.5.5,0,0,1,.5-.5.5.5,0,0,1,.5.5v34.75A.5.5,0,0,1,626.72,360Z"/><path class="cls-3" d="M637,360a.5.5,0,0,1-.5-.5V324.7a.5.5,0,0,1,1,0v34.75A.5.5,0,0,1,637,360Z"/><path class="cls-3" d="M647.18,360a.5.5,0,0,1-.5-.5V324.7a.5.5,0,1,1,1,0v34.75A.5.5,0,0,1,647.18,360Z"/><path class="cls-3" d="M657.41,360a.5.5,0,0,1-.5-.5V324.7a.5.5,0,1,1,1,0v34.75A.5.5,0,0,1,657.41,360Z"/><path class="cls-3" d="M667.64,360a.5.5,0,0,1-.5-.5V324.7a.5.5,0,1,1,1,0v34.75A.5.5,0,0,1,667.64,360Z"/><path class="cls-3" d="M677.87,360a.5.5,0,0,1-.5-.5V324.7a.5.5,0,1,1,1,0v34.75A.5.5,0,0,1,677.87,360Z"/><path class="cls-3" d="M688.1,360a.5.5,0,0,1-.5-.5V324.74a.5.5,0,0,1,1,0v34.71A.5.5,0,0,1,688.1,360Z"/><path class="cls-3" d="M698.33,360a.5.5,0,0,1-.5-.5V324.74a.5.5,0,0,1,1,0v34.71A.5.5,0,0,1,698.33,360Z"/><path class="cls-3" d="M708.56,360a.5.5,0,0,1-.5-.5V324.74a.5.5,0,0,1,.5-.5.51.51,0,0,1,.5.5v34.71A.5.5,0,0,1,708.56,360Z"/><path class="cls-3" d="M718.79,360a.5.5,0,0,1-.5-.5V324.74a.5.5,0,0,1,.5-.5.51.51,0,0,1,.5.5v34.71A.5.5,0,0,1,718.79,360Z"/><path class="cls-3" d="M729,360a.5.5,0,0,1-.5-.5V324.74a.5.5,0,0,1,.5-.5.51.51,0,0,1,.5.5v34.71A.5.5,0,0,1,729,360Z"/><path class="cls-3" d="M739.25,360a.5.5,0,0,1-.5-.5V324.74a.5.5,0,0,1,.5-.5.51.51,0,0,1,.5.5v34.71A.5.5,0,0,1,739.25,360Z"/><path class="cls-3" d="M749.48,360a.5.5,0,0,1-.5-.5V324.74a.5.5,0,0,1,.5-.5.51.51,0,0,1,.5.5v34.71A.5.5,0,0,1,749.48,360Z"/><path class="cls-3" d="M759.71,360a.5.5,0,0,1-.5-.5V324.74a.5.5,0,0,1,.5-.5.51.51,0,0,1,.5.5v34.71A.5.5,0,0,1,759.71,360Z"/><path class="cls-3" d="M769.94,360a.5.5,0,0,1-.5-.5V324.74a.5.5,0,0,1,.5-.5.51.51,0,0,1,.5.5v34.71A.5.5,0,0,1,769.94,360Z"/><path class="cls-3" d="M780.17,360a.5.5,0,0,1-.5-.5V324.74a.5.5,0,0,1,.5-.5.51.51,0,0,1,.5.5v34.71A.5.5,0,0,1,780.17,360Z"/><path class="cls-3" d="M790.39,360a.5.5,0,0,1-.5-.5V324.74a.51.51,0,0,1,.5-.5.5.5,0,0,1,.5.5v34.71A.5.5,0,0,1,790.39,360Z"/><path class="cls-3" d="M800.62,360a.5.5,0,0,1-.5-.5V324.74a.51.51,0,0,1,.5-.5.5.5,0,0,1,.5.5v34.71A.5.5,0,0,1,800.62,360Z"/><path class="cls-3" d="M810.85,360a.5.5,0,0,1-.5-.5V324.74a.51.51,0,0,1,.5-.5.5.5,0,0,1,.5.5v34.71A.5.5,0,0,1,810.85,360Z"/><path class="cls-3" d="M821.08,360a.5.5,0,0,1-.5-.5V324.74a.51.51,0,0,1,.5-.5.5.5,0,0,1,.5.5v34.71A.5.5,0,0,1,821.08,360Z"/><path class="cls-3" d="M831.31,360a.5.5,0,0,1-.5-.5V324.74a.51.51,0,0,1,.5-.5.5.5,0,0,1,.5.5v34.71A.5.5,0,0,1,831.31,360Z"/><path class="cls-3" d="M841.54,360a.5.5,0,0,1-.5-.5V324.74a.51.51,0,0,1,.5-.5.5.5,0,0,1,.5.5v34.71A.5.5,0,0,1,841.54,360Z"/><path class="cls-3" d="M851.77,360a.5.5,0,0,1-.5-.5V324.74a.51.51,0,0,1,.5-.5.5.5,0,0,1,.5.5v34.71A.5.5,0,0,1,851.77,360Z"/><path class="cls-3" d="M862,358.83a.5.5,0,0,1-.5-.5V326a.5.5,0,0,1,.5-.5.5.5,0,0,1,.5.5v32.34A.5.5,0,0,1,862,358.83Z"/><path class="cls-3" d="M252.79,394.55a.51.51,0,0,1-.5-.5v-10.9a.51.51,0,0,1,.5-.5.5.5,0,0,1,.5.5v10.9A.5.5,0,0,1,252.79,394.55Z"/><path class="cls-3" d="M252.79,417.88a.51.51,0,0,1-.5-.5V405.79a.51.51,0,0,1,.5-.5.5.5,0,0,1,.5.5v11.59A.5.5,0,0,1,252.79,417.88Z"/><path class="cls-3" d="M844.34,394.71a.5.5,0,0,1-.5-.5V383.15a.5.5,0,0,1,.5-.5.51.51,0,0,1,.5.5v11.06A.51.51,0,0,1,844.34,394.71Z"/><path class="cls-3" d="M844.34,417.74a.5.5,0,0,1-.5-.5V405.76a.5.5,0,0,1,.5-.5.51.51,0,0,1,.5.5v11.48A.5.5,0,0,1,844.34,417.74Z"/><path class="cls-3" d="M238,475.8a.5.5,0,0,1-.5-.5V440.57a.5.5,0,0,1,.5-.5.51.51,0,0,1,.5.5V475.3A.5.5,0,0,1,238,475.8Z"/><path class="cls-3" d="M248.23,475.8a.5.5,0,0,1-.5-.5V440.57a.5.5,0,0,1,.5-.5.51.51,0,0,1,.5.5V475.3A.5.5,0,0,1,248.23,475.8Z"/><path class="cls-3" d="M258.46,475.8a.5.5,0,0,1-.5-.5V440.57a.5.5,0,0,1,.5-.5.51.51,0,0,1,.5.5V475.3A.5.5,0,0,1,258.46,475.8Z"/><path class="cls-3" d="M268.69,475.8a.5.5,0,0,1-.5-.5V440.57a.5.5,0,0,1,.5-.5.51.51,0,0,1,.5.5V475.3A.5.5,0,0,1,268.69,475.8Z"/><path class="cls-3" d="M278.92,475.8a.5.5,0,0,1-.5-.5V440.57a.5.5,0,0,1,.5-.5.51.51,0,0,1,.5.5V475.3A.5.5,0,0,1,278.92,475.8Z"/><path class="cls-3" d="M289.15,475.8a.5.5,0,0,1-.5-.5V440.57a.5.5,0,0,1,.5-.5.51.51,0,0,1,.5.5V475.3A.5.5,0,0,1,289.15,475.8Z"/><path class="cls-3" d="M299.38,475.8a.5.5,0,0,1-.5-.5V440.57a.5.5,0,0,1,.5-.5.51.51,0,0,1,.5.5V475.3A.5.5,0,0,1,299.38,475.8Z"/><path class="cls-3" d="M309.61,475.8a.5.5,0,0,1-.5-.5V440.57a.5.5,0,0,1,.5-.5.51.51,0,0,1,.5.5V475.3A.5.5,0,0,1,309.61,475.8Z"/><path class="cls-3" d="M319.84,475.8a.5.5,0,0,1-.5-.5V440.57a.5.5,0,0,1,.5-.5.51.51,0,0,1,.5.5V475.3A.5.5,0,0,1,319.84,475.8Z"/><path class="cls-3" d="M330.06,475.8a.5.5,0,0,1-.5-.5V440.57a.51.51,0,0,1,.5-.5.5.5,0,0,1,.5.5V475.3A.5.5,0,0,1,330.06,475.8Z"/><path class="cls-3" d="M340.29,475.8a.5.5,0,0,1-.5-.5V440.57a.51.51,0,0,1,.5-.5.5.5,0,0,1,.5.5V475.3A.5.5,0,0,1,340.29,475.8Z"/><path class="cls-3" d="M350.52,475.8a.5.5,0,0,1-.5-.5V440.57a.51.51,0,0,1,.5-.5.5.5,0,0,1,.5.5V475.3A.5.5,0,0,1,350.52,475.8Z"/><path class="cls-3" d="M360.75,475.8a.5.5,0,0,1-.5-.5V440.57a.51.51,0,0,1,.5-.5.5.5,0,0,1,.5.5V475.3A.5.5,0,0,1,360.75,475.8Z"/><path class="cls-3" d="M371,475.8a.5.5,0,0,1-.5-.5V440.57a.51.51,0,0,1,.5-.5.5.5,0,0,1,.5.5V475.3A.5.5,0,0,1,371,475.8Z"/><path class="cls-3" d="M381.21,475.8a.5.5,0,0,1-.5-.5V440.57a.51.51,0,0,1,.5-.5.5.5,0,0,1,.5.5V475.3A.5.5,0,0,1,381.21,475.8Z"/><path class="cls-3" d="M391.44,475.8a.5.5,0,0,1-.5-.5V440.57a.51.51,0,0,1,.5-.5.5.5,0,0,1,.5.5V475.3A.5.5,0,0,1,391.44,475.8Z"/><path class="cls-3" d="M401.67,475.8a.5.5,0,0,1-.5-.5V440.57a.51.51,0,0,1,.5-.5.5.5,0,0,1,.5.5V475.3A.5.5,0,0,1,401.67,475.8Z"/><path class="cls-3" d="M411.9,475.8a.5.5,0,0,1-.5-.5V440.57a.5.5,0,0,1,1,0V475.3A.5.5,0,0,1,411.9,475.8Z"/><path class="cls-3" d="M422.13,475.8a.5.5,0,0,1-.5-.5V440.57a.5.5,0,0,1,1,0V475.3A.5.5,0,0,1,422.13,475.8Z"/><path class="cls-3" d="M432.36,475.8a.5.5,0,0,1-.5-.5V440.57a.5.5,0,0,1,1,0V475.3A.5.5,0,0,1,432.36,475.8Z"/><path class="cls-3" d="M442.59,475.8a.5.5,0,0,1-.5-.5V440.57a.5.5,0,0,1,1,0V475.3A.5.5,0,0,1,442.59,475.8Z"/><path class="cls-3" d="M452.82,475.8a.5.5,0,0,1-.5-.5V440.57a.5.5,0,0,1,1,0V475.3A.5.5,0,0,1,452.82,475.8Z"/><path class="cls-3" d="M463.05,475.8a.5.5,0,0,1-.5-.5V440.57a.5.5,0,0,1,1,0V475.3A.5.5,0,0,1,463.05,475.8Z"/><path class="cls-3" d="M473.28,475.8a.5.5,0,0,1-.5-.5V440.57a.5.5,0,0,1,.5-.5.51.51,0,0,1,.5.5V475.3A.5.5,0,0,1,473.28,475.8Z"/><path class="cls-3" d="M483.51,475.8a.5.5,0,0,1-.5-.5V440.57a.5.5,0,0,1,.5-.5.51.51,0,0,1,.5.5V475.3A.5.5,0,0,1,483.51,475.8Z"/><path class="cls-3" d="M493.74,475.8a.5.5,0,0,1-.5-.5V440.57a.5.5,0,0,1,.5-.5.51.51,0,0,1,.5.5V475.3A.5.5,0,0,1,493.74,475.8Z"/><path class="cls-3" d="M504,475.8a.5.5,0,0,1-.5-.5V440.57a.5.5,0,0,1,.5-.5.51.51,0,0,1,.5.5V475.3A.5.5,0,0,1,504,475.8Z"/><path class="cls-3" d="M514.2,475.8a.5.5,0,0,1-.5-.5V440.57a.5.5,0,0,1,.5-.5.51.51,0,0,1,.5.5V475.3A.5.5,0,0,1,514.2,475.8Z"/><path class="cls-3" d="M524.43,475.8a.5.5,0,0,1-.5-.5V440.57a.5.5,0,0,1,.5-.5.51.51,0,0,1,.5.5V475.3A.5.5,0,0,1,524.43,475.8Z"/><path class="cls-3" d="M534.66,475.8a.5.5,0,0,1-.5-.5V440.57a.5.5,0,0,1,.5-.5.51.51,0,0,1,.5.5V475.3A.5.5,0,0,1,534.66,475.8Z"/><path class="cls-3" d="M544.89,475.8a.5.5,0,0,1-.5-.5V440.57a.5.5,0,0,1,.5-.5.51.51,0,0,1,.5.5V475.3A.5.5,0,0,1,544.89,475.8Z"/><path class="cls-3" d="M555.11,475.8a.5.5,0,0,1-.5-.5V440.57a.51.51,0,0,1,.5-.5.5.5,0,0,1,.5.5V475.3A.5.5,0,0,1,555.11,475.8Z"/><path class="cls-3" d="M565.34,475.8a.5.5,0,0,1-.5-.5V440.57a.51.51,0,0,1,.5-.5.5.5,0,0,1,.5.5V475.3A.5.5,0,0,1,565.34,475.8Z"/><path class="cls-3" d="M575.57,475.8a.5.5,0,0,1-.5-.5V440.57a.51.51,0,0,1,.5-.5.5.5,0,0,1,.5.5V475.3A.5.5,0,0,1,575.57,475.8Z"/><path class="cls-3" d="M585.8,475.8a.5.5,0,0,1-.5-.5V440.57a.51.51,0,0,1,.5-.5.5.5,0,0,1,.5.5V475.3A.5.5,0,0,1,585.8,475.8Z"/><path class="cls-3" d="M596,475.8a.5.5,0,0,1-.5-.5V440.57a.51.51,0,0,1,.5-.5.5.5,0,0,1,.5.5V475.3A.5.5,0,0,1,596,475.8Z"/><path class="cls-3" d="M606.26,475.8a.5.5,0,0,1-.5-.5V440.57a.51.51,0,0,1,.5-.5.5.5,0,0,1,.5.5V475.3A.5.5,0,0,1,606.26,475.8Z"/><path class="cls-3" d="M616.49,475.8a.5.5,0,0,1-.5-.5V440.57a.51.51,0,0,1,.5-.5.5.5,0,0,1,.5.5V475.3A.5.5,0,0,1,616.49,475.8Z"/><path class="cls-3" d="M626.72,475.8a.5.5,0,0,1-.5-.5V440.57a.51.51,0,0,1,.5-.5.5.5,0,0,1,.5.5V475.3A.5.5,0,0,1,626.72,475.8Z"/><path class="cls-3" d="M637,475.8a.5.5,0,0,1-.5-.5V440.57a.5.5,0,1,1,1,0V475.3A.5.5,0,0,1,637,475.8Z"/><path class="cls-3" d="M647.18,475.8a.5.5,0,0,1-.5-.5V440.57a.5.5,0,0,1,1,0V475.3A.5.5,0,0,1,647.18,475.8Z"/><path class="cls-3" d="M657.41,475.8a.5.5,0,0,1-.5-.5V440.57a.5.5,0,0,1,1,0V475.3A.5.5,0,0,1,657.41,475.8Z"/><path class="cls-3" d="M667.64,475.8a.5.5,0,0,1-.5-.5V440.57a.5.5,0,0,1,1,0V475.3A.5.5,0,0,1,667.64,475.8Z"/><path class="cls-3" d="M677.87,475.8a.5.5,0,0,1-.5-.5V440.57a.5.5,0,0,1,1,0V475.3A.5.5,0,0,1,677.87,475.8Z"/><path class="cls-3" d="M688.1,475.8a.5.5,0,0,1-.5-.5V440.57a.5.5,0,0,1,1,0V475.3A.5.5,0,0,1,688.1,475.8Z"/><path class="cls-3" d="M698.33,475.8a.5.5,0,0,1-.5-.5V440.57a.5.5,0,0,1,1,0V475.3A.5.5,0,0,1,698.33,475.8Z"/><path class="cls-3" d="M708.56,475.8a.5.5,0,0,1-.5-.5V440.57a.5.5,0,0,1,.5-.5.51.51,0,0,1,.5.5V475.3A.5.5,0,0,1,708.56,475.8Z"/><path class="cls-3" d="M718.79,475.8a.5.5,0,0,1-.5-.5V440.57a.5.5,0,0,1,.5-.5.51.51,0,0,1,.5.5V475.3A.5.5,0,0,1,718.79,475.8Z"/><path class="cls-3" d="M729,475.8a.5.5,0,0,1-.5-.5V440.57a.5.5,0,0,1,.5-.5.51.51,0,0,1,.5.5V475.3A.5.5,0,0,1,729,475.8Z"/><path class="cls-3" d="M739.25,475.8a.5.5,0,0,1-.5-.5V440.57a.5.5,0,0,1,.5-.5.51.51,0,0,1,.5.5V475.3A.5.5,0,0,1,739.25,475.8Z"/><path class="cls-3" d="M749.48,475.8a.5.5,0,0,1-.5-.5V440.57a.5.5,0,0,1,.5-.5.51.51,0,0,1,.5.5V475.3A.5.5,0,0,1,749.48,475.8Z"/><path class="cls-3" d="M759.71,475.8a.5.5,0,0,1-.5-.5V440.57a.5.5,0,0,1,.5-.5.51.51,0,0,1,.5.5V475.3A.5.5,0,0,1,759.71,475.8Z"/><path class="cls-3" d="M769.94,475.8a.5.5,0,0,1-.5-.5V440.57a.5.5,0,0,1,.5-.5.51.51,0,0,1,.5.5V475.3A.5.5,0,0,1,769.94,475.8Z"/><path class="cls-3" d="M780.17,475.8a.5.5,0,0,1-.5-.5V440.57a.5.5,0,0,1,.5-.5.51.51,0,0,1,.5.5V475.3A.5.5,0,0,1,780.17,475.8Z"/><path class="cls-3" d="M790.39,475.8a.5.5,0,0,1-.5-.5V440.57a.51.51,0,0,1,.5-.5.5.5,0,0,1,.5.5V475.3A.5.5,0,0,1,790.39,475.8Z"/><path class="cls-3" d="M800.62,475.8a.5.5,0,0,1-.5-.5V440.57a.51.51,0,0,1,.5-.5.5.5,0,0,1,.5.5V475.3A.5.5,0,0,1,800.62,475.8Z"/><path class="cls-3" d="M810.85,475.8a.5.5,0,0,1-.5-.5V440.57a.51.51,0,0,1,.5-.5.5.5,0,0,1,.5.5V475.3A.5.5,0,0,1,810.85,475.8Z"/><path class="cls-3" d="M821.08,475.8a.5.5,0,0,1-.5-.5V440.57a.51.51,0,0,1,.5-.5.5.5,0,0,1,.5.5V475.3A.5.5,0,0,1,821.08,475.8Z"/><path class="cls-3" d="M831.31,475.8a.5.5,0,0,1-.5-.5V440.57a.51.51,0,0,1,.5-.5.5.5,0,0,1,.5.5V475.3A.5.5,0,0,1,831.31,475.8Z"/><path class="cls-3" d="M841.54,475.8a.5.5,0,0,1-.5-.5V440.57a.51.51,0,0,1,.5-.5.5.5,0,0,1,.5.5V475.3A.5.5,0,0,1,841.54,475.8Z"/><path class="cls-3" d="M851.77,475.8a.5.5,0,0,1-.5-.5V440.57a.51.51,0,0,1,.5-.5.5.5,0,0,1,.5.5V475.3A.5.5,0,0,1,851.77,475.8Z"/><path class="cls-3" d="M862,475.8a.5.5,0,0,1-.5-.5V440.57a.51.51,0,0,1,.5-.5.5.5,0,0,1,.5.5V475.3A.5.5,0,0,1,862,475.8Z"/></g><path class="cls-3" d="M211.3,488.76c-32.42,0-58.89-8.47-77.46-24.95C116.28,448.23,107,426.17,107,400s9.28-48.23,26.84-63.81c23.17-20.56,58.65-28.65,102.61-23.38,90.21,10.81,195.17,16.29,312,16.29h3.16c116.8,0,221.76-5.48,312-16.29,44-5.27,79.44,2.82,102.61,23.38C983.72,351.77,993,373.83,993,400s-9.28,48.23-26.84,63.81c-23.17,20.56-58.65,28.65-102.61,23.38-90.21-10.81-195.17-16.29-312-16.29h-3.16c-116.8,0-221.76,5.48-312,16.29A212.94,212.94,0,0,1,211.3,488.76Zm0-171.52c-30.9,0-56,7.95-73.45,23.43C121.58,355.08,113,375.6,113,400s8.58,44.92,24.82,59.33c21.85,19.38,55.71,27,97.91,21.9,90.45-10.83,195.66-16.33,312.69-16.33h3.16c117,0,222.24,5.5,312.69,16.33,42.2,5.06,76.06-2.52,97.91-21.91C978.42,444.92,987,424.4,987,400s-8.58-44.92-24.82-59.33c-21.85-19.38-55.71-27-97.91-21.9l-.36-3,.36,3C773.82,329.6,668.62,335.1,551.58,335.1h-3.16c-117,0-222.24-5.5-312.69-16.33A205.56,205.56,0,0,0,211.27,317.24Z"/></g></svg>