<svg xmlns="http://www.w3.org/2000/svg" xmlns:xlink="http://www.w3.org/1999/xlink" viewBox="0 0 1100 800"><defs><style>.cls-1{fill:none;}.cls-2{clip-path:url(#clip-path);}.cls-3{fill:#4b4a4a;}.cls-4{fill:#f5f5f5;}</style><clipPath id="clip-path"><path class="cls-1" d="M863.69,315.79c-72.45,8.68-174.33,16.31-312.23,16.31h-3.17c-137.9,0-239.78-7.63-312.23-16.31C156.94,306.31,110,341.82,110,400s46.94,93.67,126.06,84.19c72.45-8.68,174.33-16.31,312.23-16.31h3.17c137.9,0,239.78,7.63,312.23,16.31,79.12,9.48,126.06-26,126.06-84.19S942.81,306.31,863.69,315.79Z"/></clipPath></defs><title>transparent-core-fsc-certified-dragonfly-600g-core-with-multizone-egd</title><g id="Art_OUTLINED" data-name="Art OUTLINED"><g class="cls-2"><path class="cls-3" d="M989.75,371.53H110a.5.5,0,0,1-.5-.5.5.5,0,0,1,.5-.5H989.75a.5.5,0,0,1,.5.5A.51.51,0,0,1,989.75,371.53Z"/><path class="cls-3" d="M989.75,360H110a.5.5,0,0,1-.5-.5.5.5,0,0,1,.5-.5H989.75a.5.5,0,0,1,.5.5A.51.51,0,0,1,989.75,360Z"/><path class="cls-3" d="M266.7,348.37H110a.5.5,0,0,1-.5-.5.5.5,0,0,1,.5-.5H266.7a.5.5,0,0,1,.5.5A.5.5,0,0,1,266.7,348.37Z"/><path class="cls-3" d="M266.7,336.78H110a.5.5,0,0,1-.5-.5.5.5,0,0,1,.5-.5H266.7a.5.5,0,0,1,.5.5A.5.5,0,0,1,266.7,336.78Z"/><path class="cls-3" d="M989.75,336.78H833a.5.5,0,0,1-.5-.5.51.51,0,0,1,.5-.5H989.75a.51.51,0,0,1,.5.5A.5.5,0,0,1,989.75,336.78Z"/><path class="cls-3" d="M989.75,325.2H110a.5.5,0,0,1-.5-.5.5.5,0,0,1,.5-.5H989.75a.51.51,0,0,1,.5.5A.5.5,0,0,1,989.75,325.2Z"/><path class="cls-3" d="M989.75,429.43H110a.5.5,0,0,1-.5-.5.5.5,0,0,1,.5-.5H989.75a.51.51,0,0,1,.5.5A.5.5,0,0,1,989.75,429.43Z"/><path class="cls-3" d="M989.75,417.85H110a.5.5,0,0,1-.5-.5.5.5,0,0,1,.5-.5H989.75a.51.51,0,0,1,.5.5A.5.5,0,0,1,989.75,417.85Z"/><path class="cls-3" d="M989.75,406.27H110a.5.5,0,0,1-.5-.5.5.5,0,0,1,.5-.5H989.75a.51.51,0,0,1,.5.5A.5.5,0,0,1,989.75,406.27Z"/><path class="cls-3" d="M989.75,394.69H110a.5.5,0,0,1,0-1H989.75a.5.5,0,0,1,0,1Z"/><path class="cls-3" d="M989.75,383.11H110a.5.5,0,0,1-.5-.5.5.5,0,0,1,.5-.5H989.75a.5.5,0,0,1,.5.5A.51.51,0,0,1,989.75,383.11Z"/><path class="cls-3" d="M989.75,475.76H110a.5.5,0,0,1-.5-.5.5.5,0,0,1,.5-.5H989.75a.5.5,0,0,1,.5.5A.51.51,0,0,1,989.75,475.76Z"/><path class="cls-3" d="M266.7,464.18H110a.5.5,0,0,1-.5-.5.5.5,0,0,1,.5-.5H266.7a.5.5,0,0,1,.5.5A.5.5,0,0,1,266.7,464.18Z"/><path class="cls-3" d="M989.75,464.18H833a.5.5,0,0,1-.5-.5.5.5,0,0,1,.5-.5H989.75a.5.5,0,0,1,.5.5A.51.51,0,0,1,989.75,464.18Z"/><path class="cls-3" d="M266.7,452.6H110a.51.51,0,0,1-.5-.5.5.5,0,0,1,.5-.5H266.7a.5.5,0,0,1,.5.5A.5.5,0,0,1,266.7,452.6Z"/><path class="cls-3" d="M989.75,441H110a.5.5,0,0,1-.5-.5.5.5,0,0,1,.5-.5H989.75a.51.51,0,0,1,.5.5A.5.5,0,0,1,989.75,441Z"/><path class="cls-3" d="M989.75,348.37H833a.5.5,0,0,1-.5-.5.5.5,0,0,1,.5-.5H989.75a.5.5,0,0,1,.5.5A.51.51,0,0,1,989.75,348.37Z"/><path class="cls-3" d="M597.71,348.37H502a.5.5,0,0,1-.5-.5.5.5,0,0,1,.5-.5h95.67a.5.5,0,0,1,.5.5A.5.5,0,0,1,597.71,348.37Z"/><path class="cls-3" d="M597.71,452.6H502a.5.5,0,0,1-.5-.5.5.5,0,0,1,.5-.5h95.67a.5.5,0,0,1,.5.5A.5.5,0,0,1,597.71,452.6Z"/><path class="cls-3" d="M990,452.6H833a.51.51,0,0,1-.5-.5.5.5,0,0,1,.5-.5H990a.5.5,0,0,1,.5.5A.51.51,0,0,1,990,452.6Z"/><rect class="cls-4" x="266.7" y="440.61" width="235.33" height="34.58"/><path class="cls-3" d="M502.54,475.68H266.2V440.11H502.54Zm-235.34-1H501.54V441.11H267.2Z"/><rect class="cls-4" x="597.71" y="440.51" width="235.33" height="34.67"/><path class="cls-3" d="M833.54,475.68H597.21V440H833.54Zm-235.33-1H832.54V441H598.21Z"/><rect class="cls-4" x="266.7" y="324.7" width="235.33" height="34.74"/><path class="cls-3" d="M502.54,360H266.2V324.2H502.54ZM267.2,359H501.54V325.2H267.2Z"/><rect class="cls-4" x="597.71" y="324.7" width="235.33" height="34.74"/><path class="cls-3" d="M833.54,360H597.21V324.2H833.54Zm-235.33-1H832.54V325.2H598.21Z"/><path class="cls-3" d="M266.7,359.41a.51.51,0,0,1-.5-.5V324.73a.5.5,0,0,1,.5-.5.5.5,0,0,1,.5.5v34.18A.5.5,0,0,1,266.7,359.41Z"/><path class="cls-3" d="M275.42,359.41a.5.5,0,0,1-.5-.5V324.73a.5.5,0,0,1,1,0v34.18A.5.5,0,0,1,275.42,359.41Z"/><path class="cls-3" d="M284.14,359.41a.5.5,0,0,1-.5-.5V324.73a.5.5,0,0,1,.5-.5.5.5,0,0,1,.5.5v34.18A.51.51,0,0,1,284.14,359.41Z"/><path class="cls-3" d="M292.85,359.41a.51.51,0,0,1-.5-.5V324.73a.5.5,0,0,1,.5-.5.5.5,0,0,1,.5.5v34.18A.5.5,0,0,1,292.85,359.41Z"/><path class="cls-3" d="M301.57,359.41a.5.5,0,0,1-.5-.5V324.73a.5.5,0,0,1,.5-.5.5.5,0,0,1,.5.5v34.18A.51.51,0,0,1,301.57,359.41Z"/><path class="cls-3" d="M310.28,359.41a.51.51,0,0,1-.5-.5V324.73a.5.5,0,0,1,.5-.5.5.5,0,0,1,.5.5v34.18A.5.5,0,0,1,310.28,359.41Z"/><path class="cls-3" d="M319,359.41a.5.5,0,0,1-.5-.5V324.73a.5.5,0,0,1,1,0v34.18A.5.5,0,0,1,319,359.41Z"/><path class="cls-3" d="M327.72,359.41a.5.5,0,0,1-.5-.5V324.73a.5.5,0,0,1,.5-.5.5.5,0,0,1,.5.5v34.18A.51.51,0,0,1,327.72,359.41Z"/><path class="cls-3" d="M336.43,359.41a.51.51,0,0,1-.5-.5V324.73a.5.5,0,0,1,.5-.5.5.5,0,0,1,.5.5v34.18A.5.5,0,0,1,336.43,359.41Z"/><path class="cls-3" d="M345.15,359.41a.5.5,0,0,1-.5-.5V324.73a.5.5,0,0,1,.5-.5.5.5,0,0,1,.5.5v34.18A.51.51,0,0,1,345.15,359.41Z"/><path class="cls-3" d="M353.86,359.41a.51.51,0,0,1-.5-.5V324.73a.5.5,0,0,1,.5-.5.5.5,0,0,1,.5.5v34.18A.5.5,0,0,1,353.86,359.41Z"/><path class="cls-3" d="M362.58,359.41a.5.5,0,0,1-.5-.5V324.73a.5.5,0,0,1,1,0v34.18A.5.5,0,0,1,362.58,359.41Z"/><path class="cls-3" d="M371.3,359.41a.5.5,0,0,1-.5-.5V324.73a.5.5,0,0,1,.5-.5.5.5,0,0,1,.5.5v34.18A.51.51,0,0,1,371.3,359.41Z"/><path class="cls-3" d="M380,359.41a.51.51,0,0,1-.5-.5V324.73a.5.5,0,0,1,.5-.5.5.5,0,0,1,.5.5v34.18A.5.5,0,0,1,380,359.41Z"/><path class="cls-3" d="M388.73,359.41a.5.5,0,0,1-.5-.5V324.73a.5.5,0,0,1,.5-.5.5.5,0,0,1,.5.5v34.18A.51.51,0,0,1,388.73,359.41Z"/><path class="cls-3" d="M397.44,359.41a.51.51,0,0,1-.5-.5V324.73a.5.5,0,0,1,.5-.5.5.5,0,0,1,.5.5v34.18A.5.5,0,0,1,397.44,359.41Z"/><path class="cls-3" d="M406.16,359.41a.5.5,0,0,1-.5-.5V324.73a.5.5,0,0,1,1,0v34.18A.5.5,0,0,1,406.16,359.41Z"/><path class="cls-3" d="M414.88,359.41a.5.5,0,0,1-.5-.5V324.73a.5.5,0,0,1,.5-.5.5.5,0,0,1,.5.5v34.18A.51.51,0,0,1,414.88,359.41Z"/><path class="cls-3" d="M423.59,359.41a.51.51,0,0,1-.5-.5V324.73a.5.5,0,0,1,.5-.5.5.5,0,0,1,.5.5v34.18A.5.5,0,0,1,423.59,359.41Z"/><path class="cls-3" d="M432.31,359.41a.5.5,0,0,1-.5-.5V324.73a.5.5,0,0,1,1,0v34.18A.5.5,0,0,1,432.31,359.41Z"/><path class="cls-3" d="M441,359.41a.5.5,0,0,1-.5-.5V324.73a.5.5,0,0,1,.5-.5.5.5,0,0,1,.5.5v34.18A.51.51,0,0,1,441,359.41Z"/><path class="cls-3" d="M449.74,359.41a.51.51,0,0,1-.5-.5V324.73a.5.5,0,0,1,.5-.5.5.5,0,0,1,.5.5v34.18A.5.5,0,0,1,449.74,359.41Z"/><path class="cls-3" d="M458.46,359.41a.5.5,0,0,1-.5-.5V324.73a.5.5,0,0,1,.5-.5.5.5,0,0,1,.5.5v34.18A.51.51,0,0,1,458.46,359.41Z"/><path class="cls-3" d="M467.17,359.41a.51.51,0,0,1-.5-.5V324.73a.5.5,0,0,1,.5-.5.5.5,0,0,1,.5.5v34.18A.5.5,0,0,1,467.17,359.41Z"/><path class="cls-3" d="M475.89,359.41a.5.5,0,0,1-.5-.5V324.73a.5.5,0,0,1,1,0v34.18A.5.5,0,0,1,475.89,359.41Z"/><path class="cls-3" d="M484.61,359.41a.5.5,0,0,1-.5-.5V324.73a.5.5,0,0,1,.5-.5.5.5,0,0,1,.5.5v34.18A.51.51,0,0,1,484.61,359.41Z"/><path class="cls-3" d="M493.32,359.41a.51.51,0,0,1-.5-.5V324.73a.5.5,0,0,1,.5-.5.5.5,0,0,1,.5.5v34.18A.5.5,0,0,1,493.32,359.41Z"/><path class="cls-3" d="M502,359.41a.5.5,0,0,1-.5-.5V324.73a.5.5,0,0,1,.5-.5.5.5,0,0,1,.5.5v34.18A.51.51,0,0,1,502,359.41Z"/><path class="cls-3" d="M597.71,359.27a.5.5,0,0,1-.5-.5V325a.5.5,0,0,1,1,0v33.81A.5.5,0,0,1,597.71,359.27Z"/><path class="cls-3" d="M606.43,359.27a.5.5,0,0,1-.5-.5V325a.5.5,0,0,1,.5-.5.5.5,0,0,1,.5.5v33.81A.5.5,0,0,1,606.43,359.27Z"/><path class="cls-3" d="M615.14,359.27a.5.5,0,0,1-.5-.5V325a.5.5,0,0,1,.5-.5.5.5,0,0,1,.5.5v33.81A.5.5,0,0,1,615.14,359.27Z"/><path class="cls-3" d="M623.86,359.27a.5.5,0,0,1-.5-.5V325a.5.5,0,0,1,.5-.5.5.5,0,0,1,.5.5v33.81A.5.5,0,0,1,623.86,359.27Z"/><path class="cls-3" d="M632.57,359.27a.5.5,0,0,1-.5-.5V325a.5.5,0,0,1,.5-.5.5.5,0,0,1,.5.5v33.81A.5.5,0,0,1,632.57,359.27Z"/><path class="cls-3" d="M641.29,359.27a.5.5,0,0,1-.5-.5V325a.5.5,0,0,1,1,0v33.81A.5.5,0,0,1,641.29,359.27Z"/><path class="cls-3" d="M650,359.27a.5.5,0,0,1-.5-.5V325a.5.5,0,0,1,.5-.5.5.5,0,0,1,.5.5v33.81A.5.5,0,0,1,650,359.27Z"/><path class="cls-3" d="M658.72,359.27a.5.5,0,0,1-.5-.5V325a.5.5,0,0,1,.5-.5.5.5,0,0,1,.5.5v33.81A.5.5,0,0,1,658.72,359.27Z"/><path class="cls-3" d="M667.44,359.27a.5.5,0,0,1-.5-.5V325a.5.5,0,0,1,.5-.5.5.5,0,0,1,.5.5v33.81A.5.5,0,0,1,667.44,359.27Z"/><path class="cls-3" d="M676.15,359.27a.5.5,0,0,1-.5-.5V325a.5.5,0,0,1,.5-.5.5.5,0,0,1,.5.5v33.81A.5.5,0,0,1,676.15,359.27Z"/><path class="cls-3" d="M684.87,359.27a.5.5,0,0,1-.5-.5V325a.5.5,0,1,1,1,0v33.81A.5.5,0,0,1,684.87,359.27Z"/><path class="cls-3" d="M693.59,359.27a.5.5,0,0,1-.5-.5V325a.5.5,0,0,1,.5-.5.5.5,0,0,1,.5.5v33.81A.5.5,0,0,1,693.59,359.27Z"/><path class="cls-3" d="M702.3,359.27a.5.5,0,0,1-.5-.5V325a.5.5,0,0,1,.5-.5.5.5,0,0,1,.5.5v33.81A.5.5,0,0,1,702.3,359.27Z"/><path class="cls-3" d="M711,359.27a.5.5,0,0,1-.5-.5V325a.5.5,0,0,1,.5-.5.5.5,0,0,1,.5.5v33.81A.5.5,0,0,1,711,359.27Z"/><path class="cls-3" d="M719.73,359.27a.5.5,0,0,1-.5-.5V325a.5.5,0,0,1,.5-.5.5.5,0,0,1,.5.5v33.81A.5.5,0,0,1,719.73,359.27Z"/><path class="cls-3" d="M728.45,359.27a.5.5,0,0,1-.5-.5V325a.5.5,0,0,1,1,0v33.81A.5.5,0,0,1,728.45,359.27Z"/><path class="cls-3" d="M737.17,359.27a.5.5,0,0,1-.5-.5V325a.5.5,0,0,1,.5-.5.5.5,0,0,1,.5.5v33.81A.5.5,0,0,1,737.17,359.27Z"/><path class="cls-3" d="M745.88,359.27a.5.5,0,0,1-.5-.5V325a.5.5,0,0,1,.5-.5.5.5,0,0,1,.5.5v33.81A.5.5,0,0,1,745.88,359.27Z"/><path class="cls-3" d="M754.6,359.27a.5.5,0,0,1-.5-.5V325a.5.5,0,1,1,1,0v33.81A.5.5,0,0,1,754.6,359.27Z"/><path class="cls-3" d="M763.32,359.27a.5.5,0,0,1-.5-.5V325a.5.5,0,0,1,.5-.5.5.5,0,0,1,.5.5v33.81A.5.5,0,0,1,763.32,359.27Z"/><path class="cls-3" d="M772,359.27a.5.5,0,0,1-.5-.5V325a.5.5,0,0,1,.5-.5.5.5,0,0,1,.5.5v33.81A.5.5,0,0,1,772,359.27Z"/><path class="cls-3" d="M780.75,359.27a.5.5,0,0,1-.5-.5V325a.5.5,0,0,1,.5-.5.5.5,0,0,1,.5.5v33.81A.5.5,0,0,1,780.75,359.27Z"/><path class="cls-3" d="M789.46,359.27a.5.5,0,0,1-.5-.5V325a.5.5,0,0,1,.5-.5.5.5,0,0,1,.5.5v33.81A.5.5,0,0,1,789.46,359.27Z"/><path class="cls-3" d="M798.18,359.27a.5.5,0,0,1-.5-.5V325a.5.5,0,1,1,1,0v33.81A.5.5,0,0,1,798.18,359.27Z"/><path class="cls-3" d="M806.9,359.27a.5.5,0,0,1-.5-.5V325a.5.5,0,0,1,.5-.5.5.5,0,0,1,.5.5v33.81A.5.5,0,0,1,806.9,359.27Z"/><path class="cls-3" d="M815.61,359.27a.5.5,0,0,1-.5-.5V325a.5.5,0,0,1,.5-.5.5.5,0,0,1,.5.5v33.81A.5.5,0,0,1,815.61,359.27Z"/><path class="cls-3" d="M824.33,359.27a.5.5,0,0,1-.5-.5V325a.5.5,0,0,1,.5-.5.5.5,0,0,1,.5.5v33.81A.5.5,0,0,1,824.33,359.27Z"/><path class="cls-3" d="M833,359.27a.5.5,0,0,1-.5-.5V325a.5.5,0,0,1,.5-.5.5.5,0,0,1,.5.5v33.81A.5.5,0,0,1,833,359.27Z"/><path class="cls-3" d="M266.7,474a.5.5,0,0,1-.5-.5V440.94a.5.5,0,0,1,.5-.5.5.5,0,0,1,.5.5v32.54A.5.5,0,0,1,266.7,474Z"/><path class="cls-3" d="M275.42,475.57a.5.5,0,0,1-.5-.5V440.94a.5.5,0,0,1,1,0v34.13A.5.5,0,0,1,275.42,475.57Z"/><path class="cls-3" d="M284.14,475.57a.5.5,0,0,1-.5-.5V440.94a.5.5,0,0,1,.5-.5.5.5,0,0,1,.5.5v34.13A.5.5,0,0,1,284.14,475.57Z"/><path class="cls-3" d="M292.85,475.57a.5.5,0,0,1-.5-.5V440.94a.5.5,0,0,1,.5-.5.5.5,0,0,1,.5.5v34.13A.5.5,0,0,1,292.85,475.57Z"/><path class="cls-3" d="M301.57,474a.5.5,0,0,1-.5-.5V440.94a.5.5,0,0,1,.5-.5.5.5,0,0,1,.5.5v32.54A.5.5,0,0,1,301.57,474Z"/><path class="cls-3" d="M310.28,474a.5.5,0,0,1-.5-.5V440.94a.5.5,0,0,1,.5-.5.5.5,0,0,1,.5.5v32.54A.5.5,0,0,1,310.28,474Z"/><path class="cls-3" d="M319,474a.5.5,0,0,1-.5-.5V440.94a.5.5,0,0,1,1,0v32.54A.5.5,0,0,1,319,474Z"/><path class="cls-3" d="M327.72,474a.5.5,0,0,1-.5-.5V440.94a.5.5,0,0,1,.5-.5.5.5,0,0,1,.5.5v32.54A.5.5,0,0,1,327.72,474Z"/><path class="cls-3" d="M336.43,474a.5.5,0,0,1-.5-.5V440.94a.5.5,0,0,1,.5-.5.5.5,0,0,1,.5.5v32.54A.5.5,0,0,1,336.43,474Z"/><path class="cls-3" d="M345.15,474a.5.5,0,0,1-.5-.5V440.94a.5.5,0,0,1,.5-.5.5.5,0,0,1,.5.5v32.54A.5.5,0,0,1,345.15,474Z"/><path class="cls-3" d="M353.86,474a.5.5,0,0,1-.5-.5V440.94a.5.5,0,0,1,.5-.5.5.5,0,0,1,.5.5v32.54A.5.5,0,0,1,353.86,474Z"/><path class="cls-3" d="M362.58,474a.5.5,0,0,1-.5-.5V440.94a.5.5,0,0,1,1,0v32.54A.5.5,0,0,1,362.58,474Z"/><path class="cls-3" d="M371.3,474a.5.5,0,0,1-.5-.5V440.94a.5.5,0,0,1,.5-.5.5.5,0,0,1,.5.5v32.54A.5.5,0,0,1,371.3,474Z"/><path class="cls-3" d="M380,474a.5.5,0,0,1-.5-.5V440.94a.5.5,0,0,1,.5-.5.5.5,0,0,1,.5.5v32.54A.5.5,0,0,1,380,474Z"/><path class="cls-3" d="M388.73,474a.5.5,0,0,1-.5-.5V440.94a.5.5,0,0,1,.5-.5.5.5,0,0,1,.5.5v32.54A.5.5,0,0,1,388.73,474Z"/><path class="cls-3" d="M397.44,474a.5.5,0,0,1-.5-.5V440.94a.5.5,0,0,1,.5-.5.5.5,0,0,1,.5.5v32.54A.5.5,0,0,1,397.44,474Z"/><path class="cls-3" d="M406.16,474a.5.5,0,0,1-.5-.5V440.94a.5.5,0,0,1,1,0v32.54A.5.5,0,0,1,406.16,474Z"/><path class="cls-3" d="M414.88,474a.5.5,0,0,1-.5-.5V440.94a.5.5,0,0,1,.5-.5.5.5,0,0,1,.5.5v32.54A.5.5,0,0,1,414.88,474Z"/><path class="cls-3" d="M423.59,474a.5.5,0,0,1-.5-.5V440.94a.5.5,0,0,1,.5-.5.5.5,0,0,1,.5.5v32.54A.5.5,0,0,1,423.59,474Z"/><path class="cls-3" d="M432.31,474a.5.5,0,0,1-.5-.5V440.94a.5.5,0,0,1,1,0v32.54A.5.5,0,0,1,432.31,474Z"/><path class="cls-3" d="M441,474a.5.5,0,0,1-.5-.5V440.94a.5.5,0,0,1,.5-.5.5.5,0,0,1,.5.5v32.54A.5.5,0,0,1,441,474Z"/><path class="cls-3" d="M449.74,474a.5.5,0,0,1-.5-.5V440.94a.5.5,0,0,1,.5-.5.5.5,0,0,1,.5.5v32.54A.5.5,0,0,1,449.74,474Z"/><path class="cls-3" d="M458.46,474a.5.5,0,0,1-.5-.5V440.94a.5.5,0,0,1,.5-.5.5.5,0,0,1,.5.5v32.54A.5.5,0,0,1,458.46,474Z"/><path class="cls-3" d="M467.17,474a.5.5,0,0,1-.5-.5V440.94a.5.5,0,0,1,.5-.5.5.5,0,0,1,.5.5v32.54A.5.5,0,0,1,467.17,474Z"/><path class="cls-3" d="M475.89,474a.5.5,0,0,1-.5-.5V440.94a.5.5,0,1,1,1,0v32.54A.5.5,0,0,1,475.89,474Z"/><path class="cls-3" d="M484.61,474a.5.5,0,0,1-.5-.5V440.94a.5.5,0,0,1,.5-.5.5.5,0,0,1,.5.5v32.54A.5.5,0,0,1,484.61,474Z"/><path class="cls-3" d="M493.32,474a.5.5,0,0,1-.5-.5V440.94a.5.5,0,0,1,.5-.5.5.5,0,0,1,.5.5v32.54A.5.5,0,0,1,493.32,474Z"/><path class="cls-3" d="M502,474a.5.5,0,0,1-.5-.5V440.94a.5.5,0,0,1,.5-.5.5.5,0,0,1,.5.5v32.54A.5.5,0,0,1,502,474Z"/><path class="cls-3" d="M597.71,475.65a.5.5,0,0,1-.5-.5V441.07a.5.5,0,1,1,1,0v34.08A.5.5,0,0,1,597.71,475.65Z"/><path class="cls-3" d="M606.43,475.65a.5.5,0,0,1-.5-.5V441.07a.5.5,0,0,1,.5-.5.5.5,0,0,1,.5.5v34.08A.5.5,0,0,1,606.43,475.65Z"/><path class="cls-3" d="M615.14,475.65a.5.5,0,0,1-.5-.5V441.07a.5.5,0,0,1,.5-.5.5.5,0,0,1,.5.5v34.08A.5.5,0,0,1,615.14,475.65Z"/><path class="cls-3" d="M623.86,475.65a.5.5,0,0,1-.5-.5V441.07a.5.5,0,0,1,.5-.5.5.5,0,0,1,.5.5v34.08A.5.5,0,0,1,623.86,475.65Z"/><path class="cls-3" d="M632.57,475.65a.5.5,0,0,1-.5-.5V441.07a.5.5,0,0,1,.5-.5.5.5,0,0,1,.5.5v34.08A.5.5,0,0,1,632.57,475.65Z"/><path class="cls-3" d="M641.29,475.65a.5.5,0,0,1-.5-.5V441.07a.5.5,0,1,1,1,0v34.08A.5.5,0,0,1,641.29,475.65Z"/><path class="cls-3" d="M650,475.65a.5.5,0,0,1-.5-.5V441.07a.5.5,0,0,1,.5-.5.5.5,0,0,1,.5.5v34.08A.5.5,0,0,1,650,475.65Z"/><path class="cls-3" d="M658.72,475.65a.5.5,0,0,1-.5-.5V441.07a.5.5,0,0,1,.5-.5.5.5,0,0,1,.5.5v34.08A.5.5,0,0,1,658.72,475.65Z"/><path class="cls-3" d="M667.44,475.65a.5.5,0,0,1-.5-.5V441.07a.5.5,0,0,1,.5-.5.5.5,0,0,1,.5.5v34.08A.5.5,0,0,1,667.44,475.65Z"/><path class="cls-3" d="M676.15,475.65a.5.5,0,0,1-.5-.5V441.07a.5.5,0,0,1,.5-.5.5.5,0,0,1,.5.5v34.08A.5.5,0,0,1,676.15,475.65Z"/><path class="cls-3" d="M684.87,475.65a.5.5,0,0,1-.5-.5V441.07a.5.5,0,0,1,1,0v34.08A.5.5,0,0,1,684.87,475.65Z"/><path class="cls-3" d="M693.59,475.65a.5.5,0,0,1-.5-.5V441.07a.5.5,0,0,1,.5-.5.5.5,0,0,1,.5.5v34.08A.5.5,0,0,1,693.59,475.65Z"/><path class="cls-3" d="M702.3,475.65a.5.5,0,0,1-.5-.5V441.07a.5.5,0,0,1,.5-.5.5.5,0,0,1,.5.5v34.08A.5.5,0,0,1,702.3,475.65Z"/><path class="cls-3" d="M711,475.65a.5.5,0,0,1-.5-.5V441.07a.5.5,0,0,1,.5-.5.5.5,0,0,1,.5.5v34.08A.5.5,0,0,1,711,475.65Z"/><path class="cls-3" d="M719.73,475.65a.5.5,0,0,1-.5-.5V441.07a.5.5,0,0,1,.5-.5.5.5,0,0,1,.5.5v34.08A.5.5,0,0,1,719.73,475.65Z"/><path class="cls-3" d="M728.45,475.65a.5.5,0,0,1-.5-.5V441.07a.5.5,0,1,1,1,0v34.08A.5.5,0,0,1,728.45,475.65Z"/><path class="cls-3" d="M737.17,475.65a.5.5,0,0,1-.5-.5V441.07a.5.5,0,0,1,.5-.5.5.5,0,0,1,.5.5v34.08A.5.5,0,0,1,737.17,475.65Z"/><path class="cls-3" d="M745.88,475.65a.5.5,0,0,1-.5-.5V441.07a.5.5,0,0,1,.5-.5.5.5,0,0,1,.5.5v34.08A.5.5,0,0,1,745.88,475.65Z"/><path class="cls-3" d="M754.6,475.65a.5.5,0,0,1-.5-.5V441.07a.5.5,0,0,1,1,0v34.08A.5.5,0,0,1,754.6,475.65Z"/><path class="cls-3" d="M763.32,475.65a.5.5,0,0,1-.5-.5V441.07a.5.5,0,0,1,.5-.5.5.5,0,0,1,.5.5v34.08A.5.5,0,0,1,763.32,475.65Z"/><path class="cls-3" d="M772,475.65a.5.5,0,0,1-.5-.5V441.07a.5.5,0,0,1,.5-.5.5.5,0,0,1,.5.5v34.08A.5.5,0,0,1,772,475.65Z"/><path class="cls-3" d="M780.75,475.65a.5.5,0,0,1-.5-.5V441.07a.5.5,0,0,1,.5-.5.5.5,0,0,1,.5.5v34.08A.5.5,0,0,1,780.75,475.65Z"/><path class="cls-3" d="M789.46,475.65a.5.5,0,0,1-.5-.5V441.07a.5.5,0,0,1,.5-.5.5.5,0,0,1,.5.5v34.08A.5.5,0,0,1,789.46,475.65Z"/><path class="cls-3" d="M798.18,475.65a.5.5,0,0,1-.5-.5V441.07a.5.5,0,0,1,1,0v34.08A.5.5,0,0,1,798.18,475.65Z"/><path class="cls-3" d="M806.9,475.65a.5.5,0,0,1-.5-.5V441.07a.5.5,0,0,1,.5-.5.5.5,0,0,1,.5.5v34.08A.5.5,0,0,1,806.9,475.65Z"/><path class="cls-3" d="M815.61,475.65a.5.5,0,0,1-.5-.5V441.07a.5.5,0,0,1,.5-.5.5.5,0,0,1,.5.5v34.08A.5.5,0,0,1,815.61,475.65Z"/><path class="cls-3" d="M824.33,475.65a.5.5,0,0,1-.5-.5V441.07a.5.5,0,0,1,.5-.5.5.5,0,0,1,.5.5v34.08A.5.5,0,0,1,824.33,475.65Z"/><path class="cls-3" d="M833,475.65a.5.5,0,0,1-.5-.5V441.07a.5.5,0,0,1,.5-.5.5.5,0,0,1,.5.5v34.08A.5.5,0,0,1,833,475.65Z"/><path class="cls-3" d="M285.06,394.69a.5.5,0,0,1-.5-.5V382.61a.5.5,0,0,1,.5-.5.5.5,0,0,1,.5.5v11.58A.5.5,0,0,1,285.06,394.69Z"/><path class="cls-3" d="M285.06,417.85a.5.5,0,0,1-.5-.5V405.77a.51.51,0,0,1,.5-.5.5.5,0,0,1,.5.5v11.58A.5.5,0,0,1,285.06,417.85Z"/><path class="cls-3" d="M487,394.69a.5.5,0,0,1-.5-.5V382.61a.5.5,0,0,1,.5-.5.5.5,0,0,1,.5.5v11.58A.5.5,0,0,1,487,394.69Z"/><path class="cls-3" d="M487,417.85a.5.5,0,0,1-.5-.5V405.77a.51.51,0,0,1,.5-.5.5.5,0,0,1,.5.5v11.58A.5.5,0,0,1,487,417.85Z"/><path class="cls-3" d="M612.71,393.75a.5.5,0,0,1-.5-.5V382.82a.5.5,0,0,1,.5-.5.5.5,0,0,1,.5.5v10.43A.5.5,0,0,1,612.71,393.75Z"/><path class="cls-3" d="M612.71,417.26a.5.5,0,0,1-.5-.5v-10a.5.5,0,0,1,.5-.5.51.51,0,0,1,.5.5v10A.5.5,0,0,1,612.71,417.26Z"/><path class="cls-3" d="M814.69,393.75a.5.5,0,0,1-.5-.5V382.82a.5.5,0,0,1,.5-.5.5.5,0,0,1,.5.5v10.43A.5.5,0,0,1,814.69,393.75Z"/><path class="cls-3" d="M814.69,417.26a.5.5,0,0,1-.5-.5v-10a.5.5,0,0,1,.5-.5.51.51,0,0,1,.5.5v10A.5.5,0,0,1,814.69,417.26Z"/></g><path class="cls-3" d="M888.73,488.75a212.57,212.57,0,0,1-25.14-1.56C773.4,476.38,668.47,470.9,551.71,470.9h-3.17c-116.76,0-221.69,5.48-311.87,16.29-43.95,5.26-79.42-2.82-102.59-23.38-17.55-15.57-26.83-37.63-26.83-63.79s9.28-48.22,26.83-63.8c23.17-20.55,58.64-28.63,102.59-23.37,90.18,10.81,195.11,16.29,311.87,16.29h3.17c116.76,0,221.69-5.48,311.88-16.29l.35,3-.35-3c43.94-5.26,79.41,2.82,102.58,23.37C983.72,351.8,993,373.86,993,400s-9.28,48.22-26.83,63.79C947.6,480.29,921.13,488.75,888.73,488.75ZM550.12,464.9h1.59c117,0,222.17,5.49,312.59,16.33,42.19,5,76-2.52,97.89-21.9C978.42,444.92,987,424.41,987,400s-8.58-44.9-24.81-59.31c-21.85-19.38-55.7-26.95-97.89-21.9-90.42,10.83-195.59,16.33-312.59,16.33h-3.17c-117,0-222.17-5.5-312.59-16.33-42.19-5.05-76,2.52-97.88,21.9-16.24,14.41-24.82,34.91-24.82,59.31s8.58,44.9,24.82,59.31c21.84,19.38,55.69,26.95,97.88,21.9,90.42-10.84,195.6-16.33,312.59-16.33Z"/></g></svg>