<svg xmlns="http://www.w3.org/2000/svg" xmlns:xlink="http://www.w3.org/1999/xlink" viewBox="0 0 1100 800"><defs><style>.cls-1{fill:none;}.cls-2{clip-path:url(#clip-path);}.cls-3{fill:#4b4a4a;}.cls-4{fill:#f5f5f5;}</style><clipPath id="clip-path"><path class="cls-1" d="M863.69,315.79c-72.45,8.68-174.33,16.31-312.23,16.31h-3.17c-137.9,0-239.78-7.63-312.23-16.31C156.94,306.31,110,341.82,110,400s46.94,93.67,126.06,84.19c72.45-8.68,174.33-16.31,312.23-16.31h3.17c137.9,0,239.78,7.63,312.23,16.31,79.12,9.48,126.06-26,126.06-84.19S942.81,306.31,863.69,315.79Z"/></clipPath></defs><title>transparent-core-fsc-certified-dragonfly-ii-500g-core</title><g id="Art_OUTLINED" data-name="Art OUTLINED"><g class="cls-2"><rect class="cls-3" x="110" y="398.48" width="879.75" height="3"/><path class="cls-3" d="M989.75,394.46H110a.5.5,0,0,1-.5-.5.5.5,0,0,1,.5-.5H989.75a.51.51,0,0,1,.5.5A.5.5,0,0,1,989.75,394.46Z"/><path class="cls-3" d="M989.75,388.45H110a.5.5,0,0,1,0-1H989.75a.5.5,0,0,1,0,1Z"/><path class="cls-3" d="M989.75,382.43H110a.5.5,0,0,1-.5-.5.5.5,0,0,1,.5-.5H989.75a.51.51,0,0,1,.5.5A.5.5,0,0,1,989.75,382.43Z"/><path class="cls-3" d="M989.75,376.42H110a.5.5,0,0,1-.5-.5.5.5,0,0,1,.5-.5H989.75a.5.5,0,0,1,.5.5A.51.51,0,0,1,989.75,376.42Z"/><rect class="cls-3" x="110" y="368.4" width="879.75" height="3"/><path class="cls-3" d="M989.75,364.39H110a.5.5,0,0,1-.5-.5.5.5,0,0,1,.5-.5H989.75a.5.5,0,0,1,.5.5A.51.51,0,0,1,989.75,364.39Z"/><path class="cls-3" d="M989.75,358.37H110a.5.5,0,0,1,0-1H989.75a.5.5,0,0,1,0,1Z"/><path class="cls-3" d="M989.75,352.35H110a.5.5,0,0,1-.5-.5.5.5,0,0,1,.5-.5H989.75a.51.51,0,0,1,.5.5A.5.5,0,0,1,989.75,352.35Z"/><path class="cls-3" d="M989.75,346.34H110a.5.5,0,0,1-.5-.5.5.5,0,0,1,.5-.5H989.75a.5.5,0,0,1,.5.5A.51.51,0,0,1,989.75,346.34Z"/><path class="cls-3" d="M989.75,340.32H110a.5.5,0,0,1-.5-.5.5.5,0,0,1,.5-.5H989.75a.51.51,0,0,1,.5.5A.5.5,0,0,1,989.75,340.32Z"/><path class="cls-3" d="M989.75,334.31H110a.5.5,0,0,1-.5-.5.5.5,0,0,1,.5-.5H989.75a.5.5,0,0,1,.5.5A.51.51,0,0,1,989.75,334.31Z"/><path class="cls-3" d="M989.75,328.29H110a.5.5,0,0,1,0-1H989.75a.5.5,0,0,1,0,1Z"/><path class="cls-3" d="M989.75,322.28H110a.5.5,0,0,1-.5-.5.5.5,0,0,1,.5-.5H989.75a.5.5,0,0,1,.5.5A.51.51,0,0,1,989.75,322.28Z"/><path class="cls-3" d="M989.75,316.26H110a.5.5,0,0,1,0-1H989.75a.5.5,0,0,1,0,1Z"/><path class="cls-3" d="M989.75,484.7H110a.5.5,0,0,1-.5-.5.5.5,0,0,1,.5-.5H989.75a.51.51,0,0,1,.5.5A.5.5,0,0,1,989.75,484.7Z"/><path class="cls-3" d="M989.75,478.69H110a.5.5,0,0,1-.5-.5.5.5,0,0,1,.5-.5H989.75a.5.5,0,0,1,.5.5A.51.51,0,0,1,989.75,478.69Z"/><path class="cls-3" d="M989.75,472.67H110a.5.5,0,0,1,0-1H989.75a.5.5,0,0,1,0,1Z"/><path class="cls-3" d="M989.75,466.65H110a.5.5,0,0,1-.5-.5.5.5,0,0,1,.5-.5H989.75a.51.51,0,0,1,.5.5A.5.5,0,0,1,989.75,466.65Z"/><path class="cls-3" d="M989.75,460.64H110a.5.5,0,0,1-.5-.5.5.5,0,0,1,.5-.5H989.75a.5.5,0,0,1,.5.5A.51.51,0,0,1,989.75,460.64Z"/><path class="cls-3" d="M989.75,454.62H110a.5.5,0,0,1-.5-.5.5.5,0,0,1,.5-.5H989.75a.51.51,0,0,1,.5.5A.5.5,0,0,1,989.75,454.62Z"/><path class="cls-3" d="M989.75,448.61H110a.5.5,0,0,1-.5-.5.5.5,0,0,1,.5-.5H989.75a.5.5,0,0,1,.5.5A.51.51,0,0,1,989.75,448.61Z"/><path class="cls-3" d="M989.75,442.59H110a.5.5,0,0,1-.5-.5.5.5,0,0,1,.5-.5H989.75a.51.51,0,0,1,.5.5A.5.5,0,0,1,989.75,442.59Z"/><path class="cls-3" d="M989.75,436.58H110a.5.5,0,0,1-.5-.5.5.5,0,0,1,.5-.5H989.75a.5.5,0,0,1,.5.5A.51.51,0,0,1,989.75,436.58Z"/><rect class="cls-3" x="110" y="428.56" width="879.75" height="3"/><path class="cls-3" d="M989.75,424.54H110a.5.5,0,0,1-.5-.5.5.5,0,0,1,.5-.5H989.75a.51.51,0,0,1,.5.5A.5.5,0,0,1,989.75,424.54Z"/><path class="cls-3" d="M989.75,418.53H110a.5.5,0,0,1-.5-.5.5.5,0,0,1,.5-.5H989.75a.5.5,0,0,1,.5.5A.51.51,0,0,1,989.75,418.53Z"/><path class="cls-3" d="M989.75,412.51H110a.5.5,0,0,1-.5-.5.5.5,0,0,1,.5-.5H989.75a.51.51,0,0,1,.5.5A.5.5,0,0,1,989.75,412.51Z"/><path class="cls-3" d="M989.75,406.5H110a.5.5,0,0,1-.5-.5.5.5,0,0,1,.5-.5H989.75a.5.5,0,0,1,.5.5A.51.51,0,0,1,989.75,406.5Z"/><rect class="cls-4" x="238.5" y="442.09" width="257.37" height="36.09"/><path class="cls-3" d="M496.37,478.69H238v-37.1H496.37Zm-257.37-1H495.37v-35.1H239Z"/><rect class="cls-4" x="238.5" y="321.78" width="257.37" height="36.09"/><path class="cls-3" d="M496.37,358.37H238V321.28H496.37Zm-257.37-1H495.37V322.28H239Z"/><rect class="cls-4" x="603.88" y="442.09" width="257.37" height="36.09"/><path class="cls-3" d="M861.75,478.69H603.38v-37.1H861.75Zm-257.37-1H860.75v-35.1H604.38Z"/><rect class="cls-4" x="603.88" y="321.78" width="257.37" height="36.09"/><path class="cls-3" d="M861.75,358.37H603.38V321.28H861.75Zm-257.37-1H860.75V322.28H604.38Z"/><path class="cls-3" d="M238.5,358.07a.5.5,0,0,1-.5-.5V323.15a.5.5,0,0,1,.5-.5.5.5,0,0,1,.5.5v34.42A.51.51,0,0,1,238.5,358.07Z"/><path class="cls-3" d="M246.07,358.07a.5.5,0,0,1-.5-.5v-36a.5.5,0,0,1,.5-.5.51.51,0,0,1,.5.5v36A.51.51,0,0,1,246.07,358.07Z"/><path class="cls-3" d="M253.64,358.07a.5.5,0,0,1-.5-.5v-36a.5.5,0,0,1,.5-.5.51.51,0,0,1,.5.5v36A.51.51,0,0,1,253.64,358.07Z"/><path class="cls-3" d="M261.21,358.07a.5.5,0,0,1-.5-.5v-36a.5.5,0,0,1,.5-.5.51.51,0,0,1,.5.5v36A.51.51,0,0,1,261.21,358.07Z"/><path class="cls-3" d="M268.78,358.07a.5.5,0,0,1-.5-.5v-36a.5.5,0,0,1,.5-.5.51.51,0,0,1,.5.5v36A.51.51,0,0,1,268.78,358.07Z"/><path class="cls-3" d="M276.35,358.07a.5.5,0,0,1-.5-.5v-36a.5.5,0,0,1,.5-.5.51.51,0,0,1,.5.5v36A.51.51,0,0,1,276.35,358.07Z"/><path class="cls-3" d="M283.92,358.07a.5.5,0,0,1-.5-.5v-36a.5.5,0,0,1,.5-.5.51.51,0,0,1,.5.5v36A.51.51,0,0,1,283.92,358.07Z"/><path class="cls-3" d="M291.49,358.07a.5.5,0,0,1-.5-.5v-36a.5.5,0,0,1,.5-.5.51.51,0,0,1,.5.5v36A.51.51,0,0,1,291.49,358.07Z"/><path class="cls-3" d="M299.06,358.07a.5.5,0,0,1-.5-.5v-36a.5.5,0,0,1,.5-.5.51.51,0,0,1,.5.5v36A.51.51,0,0,1,299.06,358.07Z"/><path class="cls-3" d="M306.62,358.07a.51.51,0,0,1-.5-.5v-36a.51.51,0,0,1,.5-.5.5.5,0,0,1,.5.5v36A.5.5,0,0,1,306.62,358.07Z"/><path class="cls-3" d="M314.19,358.07a.51.51,0,0,1-.5-.5v-36a.51.51,0,0,1,.5-.5.5.5,0,0,1,.5.5v36A.5.5,0,0,1,314.19,358.07Z"/><path class="cls-3" d="M321.76,358.07a.51.51,0,0,1-.5-.5v-36a.51.51,0,0,1,.5-.5.5.5,0,0,1,.5.5v36A.5.5,0,0,1,321.76,358.07Z"/><path class="cls-3" d="M329.33,358.07a.51.51,0,0,1-.5-.5v-36a.51.51,0,0,1,.5-.5.5.5,0,0,1,.5.5v36A.5.5,0,0,1,329.33,358.07Z"/><path class="cls-3" d="M336.9,358.07a.51.51,0,0,1-.5-.5v-36a.51.51,0,0,1,.5-.5.5.5,0,0,1,.5.5v36A.5.5,0,0,1,336.9,358.07Z"/><path class="cls-3" d="M344.47,358.07a.51.51,0,0,1-.5-.5v-36a.51.51,0,0,1,.5-.5.5.5,0,0,1,.5.5v36A.5.5,0,0,1,344.47,358.07Z"/><path class="cls-3" d="M352,358.07a.51.51,0,0,1-.5-.5v-36a.51.51,0,0,1,.5-.5.5.5,0,0,1,.5.5v36A.5.5,0,0,1,352,358.07Z"/><path class="cls-3" d="M359.61,358.07a.51.51,0,0,1-.5-.5v-36a.51.51,0,0,1,.5-.5.5.5,0,0,1,.5.5v36A.5.5,0,0,1,359.61,358.07Z"/><path class="cls-3" d="M367.18,358.07a.51.51,0,0,1-.5-.5v-36a.51.51,0,0,1,.5-.5.5.5,0,0,1,.5.5v36A.5.5,0,0,1,367.18,358.07Z"/><path class="cls-3" d="M374.75,358.07a.51.51,0,0,1-.5-.5v-36a.51.51,0,0,1,.5-.5.5.5,0,0,1,.5.5v36A.5.5,0,0,1,374.75,358.07Z"/><path class="cls-3" d="M382.32,358.07a.51.51,0,0,1-.5-.5v-36a.51.51,0,0,1,.5-.5.5.5,0,0,1,.5.5v36A.5.5,0,0,1,382.32,358.07Z"/><path class="cls-3" d="M389.89,358.07a.51.51,0,0,1-.5-.5v-36a.51.51,0,0,1,.5-.5.5.5,0,0,1,.5.5v36A.5.5,0,0,1,389.89,358.07Z"/><path class="cls-3" d="M397.46,358.07a.51.51,0,0,1-.5-.5v-36a.51.51,0,0,1,.5-.5.5.5,0,0,1,.5.5v36A.5.5,0,0,1,397.46,358.07Z"/><path class="cls-3" d="M405,358.07a.51.51,0,0,1-.5-.5v-36a.51.51,0,0,1,.5-.5.5.5,0,0,1,.5.5v36A.5.5,0,0,1,405,358.07Z"/><path class="cls-3" d="M412.6,358.07a.51.51,0,0,1-.5-.5v-36a.51.51,0,0,1,.5-.5.5.5,0,0,1,.5.5v36A.5.5,0,0,1,412.6,358.07Z"/><path class="cls-3" d="M420.17,358.07a.51.51,0,0,1-.5-.5v-36a.51.51,0,0,1,.5-.5.5.5,0,0,1,.5.5v36A.5.5,0,0,1,420.17,358.07Z"/><path class="cls-3" d="M427.74,358.07a.51.51,0,0,1-.5-.5v-36a.51.51,0,0,1,.5-.5.5.5,0,0,1,.5.5v36A.5.5,0,0,1,427.74,358.07Z"/><path class="cls-3" d="M435.31,358.07a.51.51,0,0,1-.5-.5v-36a.51.51,0,0,1,.5-.5.5.5,0,0,1,.5.5v36A.5.5,0,0,1,435.31,358.07Z"/><path class="cls-3" d="M442.88,358.07a.51.51,0,0,1-.5-.5v-36a.51.51,0,0,1,.5-.5.5.5,0,0,1,.5.5v36A.5.5,0,0,1,442.88,358.07Z"/><path class="cls-3" d="M450.45,358.07a.51.51,0,0,1-.5-.5v-36a.51.51,0,0,1,.5-.5.5.5,0,0,1,.5.5v36A.5.5,0,0,1,450.45,358.07Z"/><path class="cls-3" d="M458,358.07a.51.51,0,0,1-.5-.5v-36a.51.51,0,0,1,.5-.5.5.5,0,0,1,.5.5v36A.5.5,0,0,1,458,358.07Z"/><path class="cls-3" d="M465.59,358.07a.51.51,0,0,1-.5-.5v-36a.51.51,0,0,1,.5-.5.5.5,0,0,1,.5.5v36A.5.5,0,0,1,465.59,358.07Z"/><path class="cls-3" d="M473.16,358.07a.5.5,0,0,1-.5-.5v-36a.5.5,0,0,1,1,0v36A.5.5,0,0,1,473.16,358.07Z"/><path class="cls-3" d="M480.73,358.07a.5.5,0,0,1-.5-.5v-36a.5.5,0,1,1,1,0v36A.5.5,0,0,1,480.73,358.07Z"/><path class="cls-3" d="M488.3,358.07a.5.5,0,0,1-.5-.5v-36a.5.5,0,0,1,1,0v36A.5.5,0,0,1,488.3,358.07Z"/><path class="cls-3" d="M495.87,358.07a.5.5,0,0,1-.5-.5v-36a.5.5,0,0,1,1,0v36A.5.5,0,0,1,495.87,358.07Z"/><path class="cls-3" d="M603.88,357.87a.5.5,0,0,1-.5-.5V321.56a.5.5,0,0,1,.5-.5.51.51,0,0,1,.5.5v35.81A.5.5,0,0,1,603.88,357.87Z"/><path class="cls-3" d="M611.45,357.87a.5.5,0,0,1-.5-.5V321.56a.5.5,0,0,1,.5-.5.51.51,0,0,1,.5.5v35.81A.5.5,0,0,1,611.45,357.87Z"/><path class="cls-3" d="M619,357.87a.5.5,0,0,1-.5-.5V321.56a.5.5,0,0,1,.5-.5.51.51,0,0,1,.5.5v35.81A.5.5,0,0,1,619,357.87Z"/><path class="cls-3" d="M626.59,357.87a.5.5,0,0,1-.5-.5V321.56a.5.5,0,0,1,.5-.5.51.51,0,0,1,.5.5v35.81A.5.5,0,0,1,626.59,357.87Z"/><path class="cls-3" d="M634.16,357.87a.5.5,0,0,1-.5-.5V321.56a.5.5,0,0,1,.5-.5.51.51,0,0,1,.5.5v35.81A.5.5,0,0,1,634.16,357.87Z"/><path class="cls-3" d="M641.73,357.87a.5.5,0,0,1-.5-.5V321.56a.5.5,0,0,1,.5-.5.51.51,0,0,1,.5.5v35.81A.5.5,0,0,1,641.73,357.87Z"/><path class="cls-3" d="M649.3,357.87a.5.5,0,0,1-.5-.5V321.56a.5.5,0,0,1,.5-.5.51.51,0,0,1,.5.5v35.81A.5.5,0,0,1,649.3,357.87Z"/><path class="cls-3" d="M656.87,357.87a.5.5,0,0,1-.5-.5V321.56a.5.5,0,0,1,.5-.5.51.51,0,0,1,.5.5v35.81A.5.5,0,0,1,656.87,357.87Z"/><path class="cls-3" d="M664.44,357.87a.5.5,0,0,1-.5-.5V321.56a.5.5,0,0,1,.5-.5.51.51,0,0,1,.5.5v35.81A.5.5,0,0,1,664.44,357.87Z"/><path class="cls-3" d="M672,357.87a.5.5,0,0,1-.5-.5V321.56a.5.5,0,0,1,.5-.5.51.51,0,0,1,.5.5v35.81A.5.5,0,0,1,672,357.87Z"/><path class="cls-3" d="M679.57,357.87a.5.5,0,0,1-.5-.5V321.56a.51.51,0,0,1,.5-.5.5.5,0,0,1,.5.5v35.81A.5.5,0,0,1,679.57,357.87Z"/><path class="cls-3" d="M687.14,357.87a.5.5,0,0,1-.5-.5V321.56a.51.51,0,0,1,.5-.5.5.5,0,0,1,.5.5v35.81A.5.5,0,0,1,687.14,357.87Z"/><path class="cls-3" d="M694.71,357.87a.5.5,0,0,1-.5-.5V321.56a.51.51,0,0,1,.5-.5.5.5,0,0,1,.5.5v35.81A.5.5,0,0,1,694.71,357.87Z"/><path class="cls-3" d="M702.28,357.87a.5.5,0,0,1-.5-.5V321.56a.51.51,0,0,1,.5-.5.5.5,0,0,1,.5.5v35.81A.5.5,0,0,1,702.28,357.87Z"/><path class="cls-3" d="M709.85,357.87a.5.5,0,0,1-.5-.5V321.56a.51.51,0,0,1,.5-.5.5.5,0,0,1,.5.5v35.81A.5.5,0,0,1,709.85,357.87Z"/><path class="cls-3" d="M717.42,357.87a.5.5,0,0,1-.5-.5V321.56a.51.51,0,0,1,.5-.5.5.5,0,0,1,.5.5v35.81A.5.5,0,0,1,717.42,357.87Z"/><path class="cls-3" d="M725,357.87a.5.5,0,0,1-.5-.5V321.56a.51.51,0,0,1,.5-.5.5.5,0,0,1,.5.5v35.81A.5.5,0,0,1,725,357.87Z"/><path class="cls-3" d="M732.56,357.87a.5.5,0,0,1-.5-.5V321.56a.51.51,0,0,1,.5-.5.5.5,0,0,1,.5.5v35.81A.5.5,0,0,1,732.56,357.87Z"/><path class="cls-3" d="M740.13,357.87a.5.5,0,0,1-.5-.5V321.56a.51.51,0,0,1,.5-.5.5.5,0,0,1,.5.5v35.81A.5.5,0,0,1,740.13,357.87Z"/><path class="cls-3" d="M747.7,357.87a.5.5,0,0,1-.5-.5V321.56a.51.51,0,0,1,.5-.5.5.5,0,0,1,.5.5v35.81A.5.5,0,0,1,747.7,357.87Z"/><path class="cls-3" d="M755.27,357.87a.5.5,0,0,1-.5-.5V321.56a.51.51,0,0,1,.5-.5.5.5,0,0,1,.5.5v35.81A.5.5,0,0,1,755.27,357.87Z"/><path class="cls-3" d="M762.84,357.87a.5.5,0,0,1-.5-.5V321.56a.51.51,0,0,1,.5-.5.5.5,0,0,1,.5.5v35.81A.5.5,0,0,1,762.84,357.87Z"/><path class="cls-3" d="M770.41,357.87a.5.5,0,0,1-.5-.5V321.56a.51.51,0,0,1,.5-.5.5.5,0,0,1,.5.5v35.81A.5.5,0,0,1,770.41,357.87Z"/><path class="cls-3" d="M778,357.87a.5.5,0,0,1-.5-.5V321.56a.51.51,0,0,1,.5-.5.5.5,0,0,1,.5.5v35.81A.5.5,0,0,1,778,357.87Z"/><path class="cls-3" d="M785.55,357.87a.5.5,0,0,1-.5-.5V321.56a.51.51,0,0,1,.5-.5.5.5,0,0,1,.5.5v35.81A.5.5,0,0,1,785.55,357.87Z"/><path class="cls-3" d="M793.12,357.87a.5.5,0,0,1-.5-.5V321.56a.51.51,0,0,1,.5-.5.5.5,0,0,1,.5.5v35.81A.5.5,0,0,1,793.12,357.87Z"/><path class="cls-3" d="M800.69,357.87a.5.5,0,0,1-.5-.5V321.56a.51.51,0,0,1,.5-.5.5.5,0,0,1,.5.5v35.81A.5.5,0,0,1,800.69,357.87Z"/><path class="cls-3" d="M808.26,357.87a.5.5,0,0,1-.5-.5V321.56a.51.51,0,0,1,.5-.5.5.5,0,0,1,.5.5v35.81A.5.5,0,0,1,808.26,357.87Z"/><path class="cls-3" d="M815.83,357.87a.5.5,0,0,1-.5-.5V321.56a.51.51,0,0,1,.5-.5.5.5,0,0,1,.5.5v35.81A.5.5,0,0,1,815.83,357.87Z"/><path class="cls-3" d="M823.4,357.87a.5.5,0,0,1-.5-.5V321.56a.51.51,0,0,1,.5-.5.5.5,0,0,1,.5.5v35.81A.5.5,0,0,1,823.4,357.87Z"/><path class="cls-3" d="M831,357.87a.5.5,0,0,1-.5-.5V321.56a.51.51,0,0,1,.5-.5.5.5,0,0,1,.5.5v35.81A.5.5,0,0,1,831,357.87Z"/><path class="cls-3" d="M838.54,357.87a.5.5,0,0,1-.5-.5V321.56a.51.51,0,0,1,.5-.5.5.5,0,0,1,.5.5v35.81A.5.5,0,0,1,838.54,357.87Z"/><path class="cls-3" d="M846.11,357.87a.5.5,0,0,1-.5-.5V321.56a.51.51,0,0,1,.5-.5.5.5,0,0,1,.5.5v35.81A.5.5,0,0,1,846.11,357.87Z"/><path class="cls-3" d="M853.68,357.87a.5.5,0,0,1-.5-.5V321.56a.5.5,0,0,1,1,0v35.81A.5.5,0,0,1,853.68,357.87Z"/><path class="cls-3" d="M861.25,357.87a.5.5,0,0,1-.5-.5V322.55a.5.5,0,1,1,1,0v34.82A.5.5,0,0,1,861.25,357.87Z"/><path class="cls-3" d="M238.5,477.31a.5.5,0,0,1-.5-.5V442.32a.5.5,0,0,1,.5-.5.51.51,0,0,1,.5.5v34.49A.5.5,0,0,1,238.5,477.31Z"/><path class="cls-3" d="M246.07,478.9a.5.5,0,0,1-.5-.5V442.32a.5.5,0,0,1,.5-.5.51.51,0,0,1,.5.5V478.4A.5.5,0,0,1,246.07,478.9Z"/><path class="cls-3" d="M253.64,478.9a.5.5,0,0,1-.5-.5V442.32a.5.5,0,0,1,.5-.5.51.51,0,0,1,.5.5V478.4A.5.5,0,0,1,253.64,478.9Z"/><path class="cls-3" d="M261.21,478.9a.5.5,0,0,1-.5-.5V442.32a.5.5,0,0,1,.5-.5.51.51,0,0,1,.5.5V478.4A.5.5,0,0,1,261.21,478.9Z"/><path class="cls-3" d="M268.78,478.9a.5.5,0,0,1-.5-.5V442.32a.5.5,0,0,1,.5-.5.51.51,0,0,1,.5.5V478.4A.5.5,0,0,1,268.78,478.9Z"/><path class="cls-3" d="M276.35,478.9a.5.5,0,0,1-.5-.5V442.32a.5.5,0,0,1,.5-.5.51.51,0,0,1,.5.5V478.4A.5.5,0,0,1,276.35,478.9Z"/><path class="cls-3" d="M283.92,478.9a.5.5,0,0,1-.5-.5V442.32a.5.5,0,0,1,.5-.5.51.51,0,0,1,.5.5V478.4A.5.5,0,0,1,283.92,478.9Z"/><path class="cls-3" d="M291.49,478.9a.5.5,0,0,1-.5-.5V442.32a.5.5,0,0,1,.5-.5.51.51,0,0,1,.5.5V478.4A.5.5,0,0,1,291.49,478.9Z"/><path class="cls-3" d="M299.06,478.9a.5.5,0,0,1-.5-.5V442.32a.5.5,0,0,1,.5-.5.51.51,0,0,1,.5.5V478.4A.5.5,0,0,1,299.06,478.9Z"/><path class="cls-3" d="M306.62,478.9a.5.5,0,0,1-.5-.5V442.32a.51.51,0,0,1,.5-.5.5.5,0,0,1,.5.5V478.4A.5.5,0,0,1,306.62,478.9Z"/><path class="cls-3" d="M314.19,478.9a.5.5,0,0,1-.5-.5V442.32a.51.51,0,0,1,.5-.5.5.5,0,0,1,.5.5V478.4A.5.5,0,0,1,314.19,478.9Z"/><path class="cls-3" d="M321.76,478.9a.5.5,0,0,1-.5-.5V442.32a.51.51,0,0,1,.5-.5.5.5,0,0,1,.5.5V478.4A.5.5,0,0,1,321.76,478.9Z"/><path class="cls-3" d="M329.33,478.9a.5.5,0,0,1-.5-.5V442.32a.51.51,0,0,1,.5-.5.5.5,0,0,1,.5.5V478.4A.5.5,0,0,1,329.33,478.9Z"/><path class="cls-3" d="M336.9,478.9a.5.5,0,0,1-.5-.5V442.32a.51.51,0,0,1,.5-.5.5.5,0,0,1,.5.5V478.4A.5.5,0,0,1,336.9,478.9Z"/><path class="cls-3" d="M344.47,478.9a.5.5,0,0,1-.5-.5V442.32a.51.51,0,0,1,.5-.5.5.5,0,0,1,.5.5V478.4A.5.5,0,0,1,344.47,478.9Z"/><path class="cls-3" d="M352,478.9a.5.5,0,0,1-.5-.5V442.32a.51.51,0,0,1,.5-.5.5.5,0,0,1,.5.5V478.4A.5.5,0,0,1,352,478.9Z"/><path class="cls-3" d="M359.61,478.9a.5.5,0,0,1-.5-.5V442.32a.51.51,0,0,1,.5-.5.5.5,0,0,1,.5.5V478.4A.5.5,0,0,1,359.61,478.9Z"/><path class="cls-3" d="M367.18,478.9a.5.5,0,0,1-.5-.5V442.32a.51.51,0,0,1,.5-.5.5.5,0,0,1,.5.5V478.4A.5.5,0,0,1,367.18,478.9Z"/><path class="cls-3" d="M374.75,478.9a.5.5,0,0,1-.5-.5V442.32a.51.51,0,0,1,.5-.5.5.5,0,0,1,.5.5V478.4A.5.5,0,0,1,374.75,478.9Z"/><path class="cls-3" d="M382.32,478.9a.5.5,0,0,1-.5-.5V442.32a.51.51,0,0,1,.5-.5.5.5,0,0,1,.5.5V478.4A.5.5,0,0,1,382.32,478.9Z"/><path class="cls-3" d="M389.89,478.9a.5.5,0,0,1-.5-.5V442.32a.51.51,0,0,1,.5-.5.5.5,0,0,1,.5.5V478.4A.5.5,0,0,1,389.89,478.9Z"/><path class="cls-3" d="M397.46,478.9a.5.5,0,0,1-.5-.5V442.32a.51.51,0,0,1,.5-.5.5.5,0,0,1,.5.5V478.4A.5.5,0,0,1,397.46,478.9Z"/><path class="cls-3" d="M405,478.9a.5.5,0,0,1-.5-.5V442.32a.51.51,0,0,1,.5-.5.5.5,0,0,1,.5.5V478.4A.5.5,0,0,1,405,478.9Z"/><path class="cls-3" d="M412.6,478.9a.5.5,0,0,1-.5-.5V442.32a.51.51,0,0,1,.5-.5.5.5,0,0,1,.5.5V478.4A.5.5,0,0,1,412.6,478.9Z"/><path class="cls-3" d="M420.17,478.9a.5.5,0,0,1-.5-.5V442.32a.51.51,0,0,1,.5-.5.5.5,0,0,1,.5.5V478.4A.5.5,0,0,1,420.17,478.9Z"/><path class="cls-3" d="M427.74,478.9a.5.5,0,0,1-.5-.5V442.32a.51.51,0,0,1,.5-.5.5.5,0,0,1,.5.5V478.4A.5.5,0,0,1,427.74,478.9Z"/><path class="cls-3" d="M435.31,478.9a.5.5,0,0,1-.5-.5V442.32a.51.51,0,0,1,.5-.5.5.5,0,0,1,.5.5V478.4A.5.5,0,0,1,435.31,478.9Z"/><path class="cls-3" d="M442.88,478.9a.5.5,0,0,1-.5-.5V442.32a.51.51,0,0,1,.5-.5.5.5,0,0,1,.5.5V478.4A.5.5,0,0,1,442.88,478.9Z"/><path class="cls-3" d="M450.45,478.9a.5.5,0,0,1-.5-.5V442.32a.51.51,0,0,1,.5-.5.5.5,0,0,1,.5.5V478.4A.5.5,0,0,1,450.45,478.9Z"/><path class="cls-3" d="M458,478.9a.5.5,0,0,1-.5-.5V442.32a.51.51,0,0,1,.5-.5.5.5,0,0,1,.5.5V478.4A.5.5,0,0,1,458,478.9Z"/><path class="cls-3" d="M465.59,478.9a.5.5,0,0,1-.5-.5V442.32a.51.51,0,0,1,.5-.5.5.5,0,0,1,.5.5V478.4A.5.5,0,0,1,465.59,478.9Z"/><path class="cls-3" d="M473.16,478.9a.5.5,0,0,1-.5-.5V442.32a.5.5,0,0,1,1,0V478.4A.5.5,0,0,1,473.16,478.9Z"/><path class="cls-3" d="M480.73,478.9a.5.5,0,0,1-.5-.5V442.32a.5.5,0,1,1,1,0V478.4A.5.5,0,0,1,480.73,478.9Z"/><path class="cls-3" d="M488.3,478.9a.5.5,0,0,1-.5-.5V442.32a.5.5,0,0,1,1,0V478.4A.5.5,0,0,1,488.3,478.9Z"/><path class="cls-3" d="M495.87,478.9a.5.5,0,0,1-.5-.5V442.32a.5.5,0,0,1,1,0V478.4A.5.5,0,0,1,495.87,478.9Z"/><path class="cls-3" d="M603.88,478.9a.5.5,0,0,1-.5-.5V442.47a.5.5,0,0,1,.5-.5.51.51,0,0,1,.5.5V478.4A.5.5,0,0,1,603.88,478.9Z"/><path class="cls-3" d="M611.45,478.9a.5.5,0,0,1-.5-.5V442.47a.5.5,0,0,1,.5-.5.51.51,0,0,1,.5.5V478.4A.5.5,0,0,1,611.45,478.9Z"/><path class="cls-3" d="M619,478.9a.5.5,0,0,1-.5-.5V442.47a.5.5,0,0,1,.5-.5.51.51,0,0,1,.5.5V478.4A.5.5,0,0,1,619,478.9Z"/><path class="cls-3" d="M626.59,478.9a.5.5,0,0,1-.5-.5V442.47a.5.5,0,0,1,.5-.5.51.51,0,0,1,.5.5V478.4A.5.5,0,0,1,626.59,478.9Z"/><path class="cls-3" d="M634.16,478.9a.5.5,0,0,1-.5-.5V442.47a.5.5,0,0,1,.5-.5.51.51,0,0,1,.5.5V478.4A.5.5,0,0,1,634.16,478.9Z"/><path class="cls-3" d="M641.73,478.9a.5.5,0,0,1-.5-.5V442.47a.5.5,0,0,1,.5-.5.51.51,0,0,1,.5.5V478.4A.5.5,0,0,1,641.73,478.9Z"/><path class="cls-3" d="M649.3,478.9a.5.5,0,0,1-.5-.5V442.47a.5.5,0,0,1,.5-.5.51.51,0,0,1,.5.5V478.4A.5.5,0,0,1,649.3,478.9Z"/><path class="cls-3" d="M656.87,478.9a.5.5,0,0,1-.5-.5V442.47a.5.5,0,0,1,.5-.5.51.51,0,0,1,.5.5V478.4A.5.5,0,0,1,656.87,478.9Z"/><path class="cls-3" d="M664.44,478.9a.5.5,0,0,1-.5-.5V442.47a.5.5,0,0,1,.5-.5.51.51,0,0,1,.5.5V478.4A.5.5,0,0,1,664.44,478.9Z"/><path class="cls-3" d="M672,478.9a.5.5,0,0,1-.5-.5V442.47a.5.5,0,0,1,.5-.5.51.51,0,0,1,.5.5V478.4A.5.5,0,0,1,672,478.9Z"/><path class="cls-3" d="M679.57,478.9a.5.5,0,0,1-.5-.5V442.47a.51.51,0,0,1,.5-.5.5.5,0,0,1,.5.5V478.4A.5.5,0,0,1,679.57,478.9Z"/><path class="cls-3" d="M687.14,478.9a.5.5,0,0,1-.5-.5V442.47a.51.51,0,0,1,.5-.5.5.5,0,0,1,.5.5V478.4A.5.5,0,0,1,687.14,478.9Z"/><path class="cls-3" d="M694.71,478.9a.5.5,0,0,1-.5-.5V442.47a.51.51,0,0,1,.5-.5.5.5,0,0,1,.5.5V478.4A.5.5,0,0,1,694.71,478.9Z"/><path class="cls-3" d="M702.28,478.9a.5.5,0,0,1-.5-.5V442.47a.51.51,0,0,1,.5-.5.5.5,0,0,1,.5.5V478.4A.5.5,0,0,1,702.28,478.9Z"/><path class="cls-3" d="M709.85,478.9a.5.5,0,0,1-.5-.5V442.47a.51.51,0,0,1,.5-.5.5.5,0,0,1,.5.5V478.4A.5.5,0,0,1,709.85,478.9Z"/><path class="cls-3" d="M717.42,478.9a.5.5,0,0,1-.5-.5V442.47a.51.51,0,0,1,.5-.5.5.5,0,0,1,.5.5V478.4A.5.5,0,0,1,717.42,478.9Z"/><path class="cls-3" d="M725,478.9a.5.5,0,0,1-.5-.5V442.47a.51.51,0,0,1,.5-.5.5.5,0,0,1,.5.5V478.4A.5.5,0,0,1,725,478.9Z"/><path class="cls-3" d="M732.56,478.9a.5.5,0,0,1-.5-.5V442.47a.51.51,0,0,1,.5-.5.5.5,0,0,1,.5.5V478.4A.5.5,0,0,1,732.56,478.9Z"/><path class="cls-3" d="M740.13,478.9a.5.5,0,0,1-.5-.5V442.47a.51.51,0,0,1,.5-.5.5.5,0,0,1,.5.5V478.4A.5.5,0,0,1,740.13,478.9Z"/><path class="cls-3" d="M747.7,478.9a.5.5,0,0,1-.5-.5V442.47a.51.51,0,0,1,.5-.5.5.5,0,0,1,.5.5V478.4A.5.5,0,0,1,747.7,478.9Z"/><path class="cls-3" d="M755.27,478.9a.5.5,0,0,1-.5-.5V442.47a.51.51,0,0,1,.5-.5.5.5,0,0,1,.5.5V478.4A.5.5,0,0,1,755.27,478.9Z"/><path class="cls-3" d="M762.84,478.9a.5.5,0,0,1-.5-.5V442.47a.51.51,0,0,1,.5-.5.5.5,0,0,1,.5.5V478.4A.5.5,0,0,1,762.84,478.9Z"/><path class="cls-3" d="M770.41,478.9a.5.5,0,0,1-.5-.5V442.47a.51.51,0,0,1,.5-.5.5.5,0,0,1,.5.5V478.4A.5.5,0,0,1,770.41,478.9Z"/><path class="cls-3" d="M778,478.9a.5.5,0,0,1-.5-.5V442.47a.51.51,0,0,1,.5-.5.5.5,0,0,1,.5.5V478.4A.5.5,0,0,1,778,478.9Z"/><path class="cls-3" d="M785.55,478.9a.5.5,0,0,1-.5-.5v-36a.51.51,0,0,1,.5-.5.5.5,0,0,1,.5.5v36A.5.5,0,0,1,785.55,478.9Z"/><path class="cls-3" d="M793.12,478.9a.5.5,0,0,1-.5-.5v-36a.51.51,0,0,1,.5-.5.5.5,0,0,1,.5.5v36A.5.5,0,0,1,793.12,478.9Z"/><path class="cls-3" d="M800.69,478.9a.5.5,0,0,1-.5-.5v-36a.51.51,0,0,1,.5-.5.5.5,0,0,1,.5.5v36A.5.5,0,0,1,800.69,478.9Z"/><path class="cls-3" d="M808.26,478.9a.5.5,0,0,1-.5-.5v-36a.51.51,0,0,1,.5-.5.5.5,0,0,1,.5.5v36A.5.5,0,0,1,808.26,478.9Z"/><path class="cls-3" d="M815.83,478.9a.5.5,0,0,1-.5-.5v-36a.51.51,0,0,1,.5-.5.5.5,0,0,1,.5.5v36A.5.5,0,0,1,815.83,478.9Z"/><path class="cls-3" d="M823.4,478.9a.5.5,0,0,1-.5-.5v-36a.51.51,0,0,1,.5-.5.5.5,0,0,1,.5.5v36A.5.5,0,0,1,823.4,478.9Z"/><path class="cls-3" d="M831,478.9a.5.5,0,0,1-.5-.5v-36a.51.51,0,0,1,.5-.5.5.5,0,0,1,.5.5v36A.5.5,0,0,1,831,478.9Z"/><path class="cls-3" d="M838.54,478.9a.5.5,0,0,1-.5-.5v-36a.51.51,0,0,1,.5-.5.5.5,0,0,1,.5.5v36A.5.5,0,0,1,838.54,478.9Z"/><path class="cls-3" d="M846.11,478.9a.5.5,0,0,1-.5-.5v-36a.51.51,0,0,1,.5-.5.5.5,0,0,1,.5.5v36A.5.5,0,0,1,846.11,478.9Z"/><path class="cls-3" d="M853.68,478.9a.5.5,0,0,1-.5-.5v-36a.5.5,0,1,1,1,0v36A.5.5,0,0,1,853.68,478.9Z"/><path class="cls-3" d="M861.25,478.9a.5.5,0,0,1-.5-.5v-36a.5.5,0,0,1,1,0v36A.5.5,0,0,1,861.25,478.9Z"/><path class="cls-3" d="M256.31,387.69a.5.5,0,0,1-.5-.5v-4.75a.5.5,0,0,1,.5-.5.5.5,0,0,1,.5.5v4.75A.5.5,0,0,1,256.31,387.69Z"/><path class="cls-3" d="M256.31,417.76a.5.5,0,0,1-.5-.5v-5.05a.5.5,0,0,1,.5-.5.5.5,0,0,1,.5.5v5.05A.51.51,0,0,1,256.31,417.76Z"/><path class="cls-3" d="M481.51,388.09a.5.5,0,0,1-.5-.5v-5.4a.5.5,0,0,1,.5-.5.5.5,0,0,1,.5.5v5.4A.51.51,0,0,1,481.51,388.09Z"/><path class="cls-3" d="M481.51,418a.5.5,0,0,1-.5-.5V412.7a.5.5,0,0,1,.5-.5.51.51,0,0,1,.5.5v4.81A.51.51,0,0,1,481.51,418Z"/><path class="cls-3" d="M618.24,388.45a.5.5,0,0,1-.5-.5v-6a.5.5,0,0,1,.5-.5.51.51,0,0,1,.5.5v6A.5.5,0,0,1,618.24,388.45Z"/><path class="cls-3" d="M618.24,418.25a.5.5,0,0,1-.5-.5v-5.4a.5.5,0,0,1,.5-.5.51.51,0,0,1,.5.5v5.4A.5.5,0,0,1,618.24,418.25Z"/><path class="cls-3" d="M843.44,388a.5.5,0,0,1-.5-.5v-5.35a.5.5,0,1,1,1,0v5.35A.5.5,0,0,1,843.44,388Z"/><path class="cls-3" d="M843.44,417.86a.5.5,0,0,1-.5-.5v-4.91a.5.5,0,0,1,1,0v4.91A.5.5,0,0,1,843.44,417.86Z"/></g><path class="cls-3" d="M888.73,488.75a212.57,212.57,0,0,1-25.14-1.56C773.4,476.38,668.47,470.9,551.71,470.9h-3.17c-116.76,0-221.69,5.48-311.87,16.29-43.95,5.26-79.42-2.82-102.59-23.38-17.55-15.57-26.83-37.63-26.83-63.79s9.28-48.22,26.83-63.8c23.17-20.55,58.64-28.63,102.59-23.37,90.18,10.81,195.11,16.29,311.87,16.29h3.17c116.76,0,221.69-5.48,311.88-16.29l.35,3-.35-3c43.94-5.26,79.41,2.82,102.58,23.37C983.72,351.8,993,373.86,993,400s-9.28,48.22-26.83,63.79C947.6,480.29,921.13,488.75,888.73,488.75ZM211.5,317.29c-30.9,0-56,7.94-73.43,23.42-16.24,14.41-24.82,34.91-24.82,59.31s8.58,44.9,24.82,59.31c21.84,19.38,55.69,26.95,97.88,21.9,90.42-10.84,195.6-16.33,312.59-16.33h3.17c117,0,222.17,5.49,312.59,16.33,42.19,5,76-2.52,97.89-21.9C978.42,444.92,987,424.41,987,400s-8.58-44.9-24.81-59.31c-21.85-19.38-55.7-26.95-97.89-21.9-90.42,10.83-195.59,16.33-312.59,16.33h-3.17c-117,0-222.17-5.5-312.59-16.33A205.45,205.45,0,0,0,211.5,317.29Z"/></g></svg>