<svg xmlns="http://www.w3.org/2000/svg" xmlns:xlink="http://www.w3.org/1999/xlink" viewBox="0 0 1100 800"><defs><style>.cls-1{fill:none;}.cls-2{clip-path:url(#clip-path);}.cls-3{fill:#4b4a4a;}</style><clipPath id="clip-path"><path class="cls-1" d="M863.91,315.79c-72.48,8.68-174.39,16.31-312.33,16.31h-3.16c-137.94,0-239.85-7.63-312.33-16.31C157,306.31,110,341.82,110,400S157,493.69,236.09,484.21c72.48-8.68,174.39-16.31,312.33-16.31h3.16c137.94,0,239.85,7.63,312.33,16.31C943.05,493.69,990,458.18,990,400S943.05,306.31,863.91,315.79Z"/></clipPath></defs><title>transparent-core-fsc-certified-super-fly-800g-core-with-dualzone-egd</title><g id="Art_OUTLINED" data-name="Art OUTLINED"><g class="cls-2"><path class="cls-3" d="M990,371.54H110a.5.5,0,0,1-.5-.5.5.5,0,0,1,.5-.5H990a.5.5,0,0,1,.5.5A.5.5,0,0,1,990,371.54Z"/><path class="cls-3" d="M218,360H110a.51.51,0,0,1-.5-.5.5.5,0,0,1,.5-.5H218a.5.5,0,0,1,.5.5A.5.5,0,0,1,218,360Z"/><path class="cls-3" d="M218,348.37H110a.5.5,0,0,1,0-1H218a.5.5,0,0,1,0,1Z"/><path class="cls-3" d="M218,336.79H110a.51.51,0,0,1-.5-.5.5.5,0,0,1,.5-.5H218a.5.5,0,0,1,.5.5A.5.5,0,0,1,218,336.79Z"/><path class="cls-3" d="M218,325.2H110a.5.5,0,0,1-.5-.5.51.51,0,0,1,.5-.5H218a.5.5,0,0,1,.5.5A.5.5,0,0,1,218,325.2Z"/><path class="cls-3" d="M990,429.46H110a.5.5,0,0,1,0-1H990a.5.5,0,0,1,0,1Z"/><path class="cls-3" d="M990,417.88H110a.5.5,0,0,1-.5-.5.5.5,0,0,1,.5-.5H990a.5.5,0,0,1,.5.5A.5.5,0,0,1,990,417.88Z"/><path class="cls-3" d="M990,406.29H110a.5.5,0,0,1-.5-.5.5.5,0,0,1,.5-.5H990a.5.5,0,0,1,.5.5A.5.5,0,0,1,990,406.29Z"/><path class="cls-3" d="M990,394.71H110a.5.5,0,0,1-.5-.5.5.5,0,0,1,.5-.5H990a.5.5,0,0,1,.5.5A.5.5,0,0,1,990,394.71Z"/><path class="cls-3" d="M990,383.12H110a.5.5,0,0,1-.5-.5.5.5,0,0,1,.5-.5H990a.5.5,0,0,1,.5.5A.5.5,0,0,1,990,383.12Z"/><path class="cls-3" d="M218,475.8H110a.5.5,0,1,1,0-1H218a.5.5,0,0,1,0,1Z"/><path class="cls-3" d="M218,464.22H110a.51.51,0,0,1-.5-.5.5.5,0,0,1,.5-.5H218a.5.5,0,0,1,.5.5A.5.5,0,0,1,218,464.22Z"/><path class="cls-3" d="M218,452.63H110a.5.5,0,0,1,0-1H218a.5.5,0,0,1,0,1Z"/><path class="cls-3" d="M218,441.05H110a.51.51,0,0,1-.5-.5.5.5,0,0,1,.5-.5H218a.5.5,0,0,1,.5.5A.5.5,0,0,1,218,441.05Z"/><path class="cls-3" d="M990,464.22H882a.5.5,0,0,1-.5-.5.5.5,0,0,1,.5-.5H990a.5.5,0,0,1,.5.5A.5.5,0,0,1,990,464.22Z"/><path class="cls-3" d="M990,452.63H882a.5.5,0,0,1,0-1H990a.5.5,0,0,1,0,1Z"/><path class="cls-3" d="M990,441.05H882a.5.5,0,0,1-.5-.5.5.5,0,0,1,.5-.5H990a.5.5,0,0,1,.5.5A.5.5,0,0,1,990,441.05Z"/><path class="cls-3" d="M990,360H882a.5.5,0,0,1-.5-.5.5.5,0,0,1,.5-.5H990a.5.5,0,0,1,.5.5A.5.5,0,0,1,990,360Z"/><path class="cls-3" d="M990,348.37H882a.5.5,0,0,1,0-1H990a.5.5,0,0,1,0,1Z"/><path class="cls-3" d="M990,336.79H882a.5.5,0,0,1-.5-.5.5.5,0,0,1,.5-.5H990a.5.5,0,0,1,.5.5A.5.5,0,0,1,990,336.79Z"/><path class="cls-3" d="M990,475.8H882a.5.5,0,0,1,0-1H990a.5.5,0,0,1,0,1Z"/><path class="cls-3" d="M990,325.2H882a.5.5,0,0,1-.5-.5.5.5,0,0,1,.5-.5H990a.5.5,0,0,1,.5.5A.5.5,0,0,1,990,325.2Z"/><path class="cls-3" d="M882.49,371.54h-665V301.66h665Zm-664-1h663V302.66h-663Z"/><path class="cls-3" d="M882.49,498.34h-665V428.46h665Zm-664-1h663V429.46h-663Z"/><path class="cls-3" d="M218,370.82a.5.5,0,0,1-.5-.5V302.16a.51.51,0,0,1,.5-.5.5.5,0,0,1,.5.5v68.16A.5.5,0,0,1,218,370.82Z"/><path class="cls-3" d="M230.08,370.82a.5.5,0,0,1-.5-.5V302.16a.51.51,0,0,1,.5-.5.5.5,0,0,1,.5.5v68.16A.5.5,0,0,1,230.08,370.82Z"/><path class="cls-3" d="M242.16,370.82a.5.5,0,0,1-.5-.5V302.16a.5.5,0,0,1,.5-.5.51.51,0,0,1,.5.5v68.16A.5.5,0,0,1,242.16,370.82Z"/><path class="cls-3" d="M254.23,370.82a.5.5,0,0,1-.5-.5V302.16a.5.5,0,0,1,1,0v68.16A.5.5,0,0,1,254.23,370.82Z"/><path class="cls-3" d="M266.3,370.82a.5.5,0,0,1-.5-.5V302.16a.5.5,0,0,1,1,0v68.16A.5.5,0,0,1,266.3,370.82Z"/><path class="cls-3" d="M278.37,370.82a.5.5,0,0,1-.5-.5V302.16a.51.51,0,0,1,.5-.5.5.5,0,0,1,.5.5v68.16A.5.5,0,0,1,278.37,370.82Z"/><path class="cls-3" d="M290.45,370.82a.5.5,0,0,1-.5-.5V302.16a.5.5,0,0,1,.5-.5.51.51,0,0,1,.5.5v68.16A.5.5,0,0,1,290.45,370.82Z"/><path class="cls-3" d="M302.52,370.82a.5.5,0,0,1-.5-.5V302.16a.5.5,0,0,1,.5-.5.51.51,0,0,1,.5.5v68.16A.5.5,0,0,1,302.52,370.82Z"/><path class="cls-3" d="M314.59,370.82a.5.5,0,0,1-.5-.5V302.16a.5.5,0,0,1,1,0v68.16A.5.5,0,0,1,314.59,370.82Z"/><path class="cls-3" d="M326.66,370.82a.5.5,0,0,1-.5-.5V302.16a.51.51,0,0,1,.5-.5.5.5,0,0,1,.5.5v68.16A.5.5,0,0,1,326.66,370.82Z"/><path class="cls-3" d="M338.73,370.82a.5.5,0,0,1-.5-.5V302.16a.51.51,0,0,1,.5-.5.5.5,0,0,1,.5.5v68.16A.5.5,0,0,1,338.73,370.82Z"/><path class="cls-3" d="M350.81,370.82a.5.5,0,0,1-.5-.5V302.16a.5.5,0,0,1,.5-.5.51.51,0,0,1,.5.5v68.16A.5.5,0,0,1,350.81,370.82Z"/><path class="cls-3" d="M362.88,370.82a.5.5,0,0,1-.5-.5V302.16a.5.5,0,1,1,1,0v68.16A.5.5,0,0,1,362.88,370.82Z"/><path class="cls-3" d="M375,370.82a.5.5,0,0,1-.5-.5V302.16a.51.51,0,0,1,.5-.5.5.5,0,0,1,.5.5v68.16A.5.5,0,0,1,375,370.82Z"/><path class="cls-3" d="M387,370.82a.5.5,0,0,1-.5-.5V302.16a.51.51,0,0,1,.5-.5.5.5,0,0,1,.5.5v68.16A.5.5,0,0,1,387,370.82Z"/><path class="cls-3" d="M399.1,370.82a.5.5,0,0,1-.5-.5V302.16a.5.5,0,0,1,.5-.5.51.51,0,0,1,.5.5v68.16A.5.5,0,0,1,399.1,370.82Z"/><path class="cls-3" d="M411.17,370.82a.5.5,0,0,1-.5-.5V302.16a.5.5,0,0,1,.5-.5.51.51,0,0,1,.5.5v68.16A.5.5,0,0,1,411.17,370.82Z"/><path class="cls-3" d="M423.24,370.82a.5.5,0,0,1-.5-.5V302.16a.5.5,0,0,1,1,0v68.16A.5.5,0,0,1,423.24,370.82Z"/><path class="cls-3" d="M435.31,370.82a.5.5,0,0,1-.5-.5V302.16a.51.51,0,0,1,.5-.5.5.5,0,0,1,.5.5v68.16A.5.5,0,0,1,435.31,370.82Z"/><path class="cls-3" d="M447.39,370.82a.5.5,0,0,1-.5-.5V302.16a.5.5,0,0,1,.5-.5.51.51,0,0,1,.5.5v68.16A.5.5,0,0,1,447.39,370.82Z"/><path class="cls-3" d="M459.46,370.82a.5.5,0,0,1-.5-.5V302.16a.5.5,0,0,1,.5-.5.51.51,0,0,1,.5.5v68.16A.5.5,0,0,1,459.46,370.82Z"/><path class="cls-3" d="M471.53,370.82a.5.5,0,0,1-.5-.5V302.16a.5.5,0,0,1,1,0v68.16A.5.5,0,0,1,471.53,370.82Z"/><path class="cls-3" d="M483.6,370.82a.5.5,0,0,1-.5-.5V302.16a.51.51,0,0,1,.5-.5.5.5,0,0,1,.5.5v68.16A.5.5,0,0,1,483.6,370.82Z"/><path class="cls-3" d="M495.67,370.82a.5.5,0,0,1-.5-.5V302.16a.51.51,0,0,1,.5-.5.5.5,0,0,1,.5.5v68.16A.5.5,0,0,1,495.67,370.82Z"/><path class="cls-3" d="M507.75,370.82a.5.5,0,0,1-.5-.5V302.16a.5.5,0,0,1,.5-.5.51.51,0,0,1,.5.5v68.16A.5.5,0,0,1,507.75,370.82Z"/><path class="cls-3" d="M519.82,370.82a.5.5,0,0,1-.5-.5V302.16a.5.5,0,1,1,1,0v68.16A.5.5,0,0,1,519.82,370.82Z"/><path class="cls-3" d="M531.89,370.82a.5.5,0,0,1-.5-.5V302.16a.51.51,0,0,1,.5-.5.5.5,0,0,1,.5.5v68.16A.5.5,0,0,1,531.89,370.82Z"/><path class="cls-3" d="M544,370.82a.5.5,0,0,1-.5-.5V302.16a.51.51,0,0,1,.5-.5.5.5,0,0,1,.5.5v68.16A.5.5,0,0,1,544,370.82Z"/><path class="cls-3" d="M556,370.82a.5.5,0,0,1-.5-.5V302.16a.5.5,0,0,1,.5-.5.51.51,0,0,1,.5.5v68.16A.5.5,0,0,1,556,370.82Z"/><path class="cls-3" d="M568.11,370.82a.5.5,0,0,1-.5-.5V302.16a.5.5,0,0,1,.5-.5.51.51,0,0,1,.5.5v68.16A.5.5,0,0,1,568.11,370.82Z"/><path class="cls-3" d="M580.18,370.82a.5.5,0,0,1-.5-.5V302.16a.5.5,0,1,1,1,0v68.16A.5.5,0,0,1,580.18,370.82Z"/><path class="cls-3" d="M592.25,370.82a.5.5,0,0,1-.5-.5V302.16a.51.51,0,0,1,.5-.5.5.5,0,0,1,.5.5v68.16A.5.5,0,0,1,592.25,370.82Z"/><path class="cls-3" d="M604.33,370.82a.5.5,0,0,1-.5-.5V302.16a.5.5,0,0,1,.5-.5.51.51,0,0,1,.5.5v68.16A.5.5,0,0,1,604.33,370.82Z"/><path class="cls-3" d="M616.4,370.82a.5.5,0,0,1-.5-.5V302.16a.5.5,0,0,1,.5-.5.51.51,0,0,1,.5.5v68.16A.5.5,0,0,1,616.4,370.82Z"/><path class="cls-3" d="M628.47,370.82a.5.5,0,0,1-.5-.5V302.16a.5.5,0,0,1,1,0v68.16A.5.5,0,0,1,628.47,370.82Z"/><path class="cls-3" d="M640.54,370.82a.5.5,0,0,1-.5-.5V302.16a.51.51,0,0,1,.5-.5.5.5,0,0,1,.5.5v68.16A.5.5,0,0,1,640.54,370.82Z"/><path class="cls-3" d="M652.61,370.82a.5.5,0,0,1-.5-.5V302.16a.51.51,0,0,1,.5-.5.5.5,0,0,1,.5.5v68.16A.5.5,0,0,1,652.61,370.82Z"/><path class="cls-3" d="M664.69,370.82a.5.5,0,0,1-.5-.5V302.16a.5.5,0,0,1,.5-.5.51.51,0,0,1,.5.5v68.16A.5.5,0,0,1,664.69,370.82Z"/><path class="cls-3" d="M676.76,370.82a.5.5,0,0,1-.5-.5V302.16a.5.5,0,0,1,1,0v68.16A.5.5,0,0,1,676.76,370.82Z"/><path class="cls-3" d="M688.83,370.82a.5.5,0,0,1-.5-.5V302.16a.5.5,0,1,1,1,0v68.16A.5.5,0,0,1,688.83,370.82Z"/><path class="cls-3" d="M700.9,370.82a.5.5,0,0,1-.5-.5V302.16a.51.51,0,0,1,.5-.5.5.5,0,0,1,.5.5v68.16A.5.5,0,0,1,700.9,370.82Z"/><path class="cls-3" d="M713,370.82a.5.5,0,0,1-.5-.5V302.16a.5.5,0,0,1,.5-.5.51.51,0,0,1,.5.5v68.16A.5.5,0,0,1,713,370.82Z"/><path class="cls-3" d="M725.05,370.82a.5.5,0,0,1-.5-.5V302.16a.5.5,0,0,1,.5-.5.51.51,0,0,1,.5.5v68.16A.5.5,0,0,1,725.05,370.82Z"/><path class="cls-3" d="M737.12,370.82a.5.5,0,0,1-.5-.5V302.16a.5.5,0,1,1,1,0v68.16A.5.5,0,0,1,737.12,370.82Z"/><path class="cls-3" d="M749.19,370.82a.5.5,0,0,1-.5-.5V302.16a.51.51,0,0,1,.5-.5.5.5,0,0,1,.5.5v68.16A.5.5,0,0,1,749.19,370.82Z"/><path class="cls-3" d="M761.27,370.82a.5.5,0,0,1-.5-.5V302.16a.5.5,0,0,1,.5-.5.51.51,0,0,1,.5.5v68.16A.5.5,0,0,1,761.27,370.82Z"/><path class="cls-3" d="M773.34,370.82a.5.5,0,0,1-.5-.5V302.16a.5.5,0,0,1,.5-.5.51.51,0,0,1,.5.5v68.16A.5.5,0,0,1,773.34,370.82Z"/><path class="cls-3" d="M785.41,370.82a.5.5,0,0,1-.5-.5V302.16a.5.5,0,1,1,1,0v68.16A.5.5,0,0,1,785.41,370.82Z"/><path class="cls-3" d="M797.48,370.82a.5.5,0,0,1-.5-.5V302.16a.51.51,0,0,1,.5-.5.5.5,0,0,1,.5.5v68.16A.5.5,0,0,1,797.48,370.82Z"/><path class="cls-3" d="M809.55,370.82a.5.5,0,0,1-.5-.5V302.16a.51.51,0,0,1,.5-.5.5.5,0,0,1,.5.5v68.16A.5.5,0,0,1,809.55,370.82Z"/><path class="cls-3" d="M821.63,370.82a.5.5,0,0,1-.5-.5V302.16a.5.5,0,0,1,.5-.5.51.51,0,0,1,.5.5v68.16A.5.5,0,0,1,821.63,370.82Z"/><path class="cls-3" d="M833.7,370.82a.5.5,0,0,1-.5-.5V302.16a.5.5,0,0,1,1,0v68.16A.5.5,0,0,1,833.7,370.82Z"/><path class="cls-3" d="M845.77,370.82a.5.5,0,0,1-.5-.5V302.16a.5.5,0,0,1,1,0v68.16A.5.5,0,0,1,845.77,370.82Z"/><path class="cls-3" d="M857.84,370.82a.5.5,0,0,1-.5-.5V302.16a.51.51,0,0,1,.5-.5.5.5,0,0,1,.5.5v68.16A.5.5,0,0,1,857.84,370.82Z"/><path class="cls-3" d="M869.92,370.82a.5.5,0,0,1-.5-.5V302.16a.5.5,0,0,1,.5-.5.51.51,0,0,1,.5.5v68.16A.5.5,0,0,1,869.92,370.82Z"/><path class="cls-3" d="M882,370.82a.5.5,0,0,1-.5-.5V302.16a.5.5,0,0,1,.5-.5.51.51,0,0,1,.5.5v68.16A.5.5,0,0,1,882,370.82Z"/><path class="cls-3" d="M218,498.34a.51.51,0,0,1-.5-.5V429.68a.5.5,0,0,1,.5-.5.5.5,0,0,1,.5.5v68.16A.5.5,0,0,1,218,498.34Z"/><path class="cls-3" d="M230.08,498.34a.51.51,0,0,1-.5-.5V429.68a.5.5,0,0,1,.5-.5.5.5,0,0,1,.5.5v68.16A.5.5,0,0,1,230.08,498.34Z"/><path class="cls-3" d="M242.16,498.34a.5.5,0,0,1-.5-.5V429.68a.5.5,0,0,1,.5-.5.5.5,0,0,1,.5.5v68.16A.51.51,0,0,1,242.16,498.34Z"/><path class="cls-3" d="M254.23,498.34a.5.5,0,0,1-.5-.5V429.68a.5.5,0,0,1,1,0v68.16A.5.5,0,0,1,254.23,498.34Z"/><path class="cls-3" d="M266.3,498.34a.5.5,0,0,1-.5-.5V429.68a.5.5,0,0,1,1,0v68.16A.5.5,0,0,1,266.3,498.34Z"/><path class="cls-3" d="M278.37,498.34a.51.51,0,0,1-.5-.5V429.68a.5.5,0,0,1,.5-.5.5.5,0,0,1,.5.5v68.16A.5.5,0,0,1,278.37,498.34Z"/><path class="cls-3" d="M290.45,498.34a.5.5,0,0,1-.5-.5V429.68a.5.5,0,0,1,.5-.5.5.5,0,0,1,.5.5v68.16A.51.51,0,0,1,290.45,498.34Z"/><path class="cls-3" d="M302.52,498.34a.5.5,0,0,1-.5-.5V429.68a.5.5,0,0,1,.5-.5.5.5,0,0,1,.5.5v68.16A.51.51,0,0,1,302.52,498.34Z"/><path class="cls-3" d="M314.59,498.34a.5.5,0,0,1-.5-.5V429.68a.5.5,0,0,1,1,0v68.16A.5.5,0,0,1,314.59,498.34Z"/><path class="cls-3" d="M326.66,498.34a.51.51,0,0,1-.5-.5V429.68a.5.5,0,0,1,.5-.5.5.5,0,0,1,.5.5v68.16A.5.5,0,0,1,326.66,498.34Z"/><path class="cls-3" d="M338.73,498.34a.51.51,0,0,1-.5-.5V429.68a.5.5,0,0,1,.5-.5.5.5,0,0,1,.5.5v68.16A.5.5,0,0,1,338.73,498.34Z"/><path class="cls-3" d="M350.81,498.34a.5.5,0,0,1-.5-.5V429.68a.5.5,0,0,1,.5-.5.5.5,0,0,1,.5.5v68.16A.51.51,0,0,1,350.81,498.34Z"/><path class="cls-3" d="M362.88,498.34a.5.5,0,0,1-.5-.5V429.68a.5.5,0,1,1,1,0v68.16A.5.5,0,0,1,362.88,498.34Z"/><path class="cls-3" d="M375,498.34a.51.51,0,0,1-.5-.5V429.68a.5.5,0,0,1,.5-.5.5.5,0,0,1,.5.5v68.16A.5.5,0,0,1,375,498.34Z"/><path class="cls-3" d="M387,498.34a.51.51,0,0,1-.5-.5V429.68a.5.5,0,0,1,.5-.5.5.5,0,0,1,.5.5v68.16A.5.5,0,0,1,387,498.34Z"/><path class="cls-3" d="M399.1,498.34a.5.5,0,0,1-.5-.5V429.68a.5.5,0,0,1,.5-.5.5.5,0,0,1,.5.5v68.16A.51.51,0,0,1,399.1,498.34Z"/><path class="cls-3" d="M411.17,498.34a.5.5,0,0,1-.5-.5V429.68a.5.5,0,0,1,.5-.5.5.5,0,0,1,.5.5v68.16A.51.51,0,0,1,411.17,498.34Z"/><path class="cls-3" d="M423.24,498.34a.5.5,0,0,1-.5-.5V429.68a.5.5,0,0,1,1,0v68.16A.5.5,0,0,1,423.24,498.34Z"/><path class="cls-3" d="M435.31,498.34a.51.51,0,0,1-.5-.5V429.68a.5.5,0,0,1,.5-.5.5.5,0,0,1,.5.5v68.16A.5.5,0,0,1,435.31,498.34Z"/><path class="cls-3" d="M447.39,498.34a.5.5,0,0,1-.5-.5V429.68a.5.5,0,0,1,.5-.5.5.5,0,0,1,.5.5v68.16A.51.51,0,0,1,447.39,498.34Z"/><path class="cls-3" d="M459.46,498.34a.5.5,0,0,1-.5-.5V429.68a.5.5,0,0,1,.5-.5.5.5,0,0,1,.5.5v68.16A.51.51,0,0,1,459.46,498.34Z"/><path class="cls-3" d="M471.53,498.34a.5.5,0,0,1-.5-.5V429.68a.5.5,0,0,1,1,0v68.16A.5.5,0,0,1,471.53,498.34Z"/><path class="cls-3" d="M483.6,498.34a.51.51,0,0,1-.5-.5V429.68a.5.5,0,0,1,.5-.5.5.5,0,0,1,.5.5v68.16A.5.5,0,0,1,483.6,498.34Z"/><path class="cls-3" d="M495.67,498.34a.51.51,0,0,1-.5-.5V429.68a.5.5,0,0,1,.5-.5.5.5,0,0,1,.5.5v68.16A.5.5,0,0,1,495.67,498.34Z"/><path class="cls-3" d="M507.75,498.34a.5.5,0,0,1-.5-.5V429.68a.5.5,0,0,1,.5-.5.5.5,0,0,1,.5.5v68.16A.51.51,0,0,1,507.75,498.34Z"/><path class="cls-3" d="M519.82,498.34a.5.5,0,0,1-.5-.5V429.68a.5.5,0,1,1,1,0v68.16A.5.5,0,0,1,519.82,498.34Z"/><path class="cls-3" d="M531.89,498.34a.51.51,0,0,1-.5-.5V429.68a.5.5,0,0,1,.5-.5.5.5,0,0,1,.5.5v68.16A.5.5,0,0,1,531.89,498.34Z"/><path class="cls-3" d="M544,498.34a.51.51,0,0,1-.5-.5V429.68a.5.5,0,0,1,.5-.5.5.5,0,0,1,.5.5v68.16A.5.5,0,0,1,544,498.34Z"/><path class="cls-3" d="M556,498.34a.5.5,0,0,1-.5-.5V429.68a.5.5,0,0,1,.5-.5.5.5,0,0,1,.5.5v68.16A.51.51,0,0,1,556,498.34Z"/><path class="cls-3" d="M568.11,498.34a.5.5,0,0,1-.5-.5V429.68a.5.5,0,0,1,.5-.5.5.5,0,0,1,.5.5v68.16A.51.51,0,0,1,568.11,498.34Z"/><path class="cls-3" d="M580.18,498.34a.5.5,0,0,1-.5-.5V429.68a.5.5,0,1,1,1,0v68.16A.5.5,0,0,1,580.18,498.34Z"/><path class="cls-3" d="M592.25,498.34a.51.51,0,0,1-.5-.5V429.68a.5.5,0,0,1,.5-.5.5.5,0,0,1,.5.5v68.16A.5.5,0,0,1,592.25,498.34Z"/><path class="cls-3" d="M604.33,498.34a.5.5,0,0,1-.5-.5V429.68a.5.5,0,0,1,.5-.5.5.5,0,0,1,.5.5v68.16A.51.51,0,0,1,604.33,498.34Z"/><path class="cls-3" d="M616.4,498.34a.5.5,0,0,1-.5-.5V429.68a.5.5,0,0,1,.5-.5.5.5,0,0,1,.5.5v68.16A.51.51,0,0,1,616.4,498.34Z"/><path class="cls-3" d="M628.47,498.34a.5.5,0,0,1-.5-.5V429.68a.5.5,0,0,1,1,0v68.16A.5.5,0,0,1,628.47,498.34Z"/><path class="cls-3" d="M640.54,498.34a.51.51,0,0,1-.5-.5V429.68a.5.5,0,0,1,.5-.5.5.5,0,0,1,.5.5v68.16A.5.5,0,0,1,640.54,498.34Z"/><path class="cls-3" d="M652.61,498.34a.51.51,0,0,1-.5-.5V429.68a.5.5,0,0,1,.5-.5.5.5,0,0,1,.5.5v68.16A.5.5,0,0,1,652.61,498.34Z"/><path class="cls-3" d="M664.69,498.34a.5.5,0,0,1-.5-.5V429.68a.5.5,0,0,1,.5-.5.5.5,0,0,1,.5.5v68.16A.51.51,0,0,1,664.69,498.34Z"/><path class="cls-3" d="M676.76,498.34a.5.5,0,0,1-.5-.5V429.68a.5.5,0,0,1,1,0v68.16A.5.5,0,0,1,676.76,498.34Z"/><path class="cls-3" d="M688.83,498.34a.5.5,0,0,1-.5-.5V429.68a.5.5,0,1,1,1,0v68.16A.5.5,0,0,1,688.83,498.34Z"/><path class="cls-3" d="M700.9,498.34a.51.51,0,0,1-.5-.5V429.68a.5.5,0,0,1,.5-.5.5.5,0,0,1,.5.5v68.16A.5.5,0,0,1,700.9,498.34Z"/><path class="cls-3" d="M713,498.34a.5.5,0,0,1-.5-.5V429.68a.5.5,0,0,1,.5-.5.5.5,0,0,1,.5.5v68.16A.51.51,0,0,1,713,498.34Z"/><path class="cls-3" d="M725.05,498.34a.5.5,0,0,1-.5-.5V429.68a.5.5,0,0,1,.5-.5.5.5,0,0,1,.5.5v68.16A.51.51,0,0,1,725.05,498.34Z"/><path class="cls-3" d="M737.12,498.34a.5.5,0,0,1-.5-.5V429.68a.5.5,0,1,1,1,0v68.16A.5.5,0,0,1,737.12,498.34Z"/><path class="cls-3" d="M749.19,498.34a.51.51,0,0,1-.5-.5V429.68a.5.5,0,0,1,.5-.5.5.5,0,0,1,.5.5v68.16A.5.5,0,0,1,749.19,498.34Z"/><path class="cls-3" d="M761.27,498.34a.5.5,0,0,1-.5-.5V429.68a.5.5,0,0,1,.5-.5.5.5,0,0,1,.5.5v68.16A.51.51,0,0,1,761.27,498.34Z"/><path class="cls-3" d="M773.34,498.34a.5.5,0,0,1-.5-.5V429.68a.5.5,0,0,1,.5-.5.5.5,0,0,1,.5.5v68.16A.51.51,0,0,1,773.34,498.34Z"/><path class="cls-3" d="M785.41,498.34a.5.5,0,0,1-.5-.5V429.68a.5.5,0,1,1,1,0v68.16A.5.5,0,0,1,785.41,498.34Z"/><path class="cls-3" d="M797.48,498.34a.51.51,0,0,1-.5-.5V429.68a.5.5,0,0,1,.5-.5.5.5,0,0,1,.5.5v68.16A.5.5,0,0,1,797.48,498.34Z"/><path class="cls-3" d="M809.55,498.34a.51.51,0,0,1-.5-.5V429.68a.5.5,0,0,1,.5-.5.5.5,0,0,1,.5.5v68.16A.5.5,0,0,1,809.55,498.34Z"/><path class="cls-3" d="M821.63,498.34a.5.5,0,0,1-.5-.5V429.68a.5.5,0,0,1,.5-.5.5.5,0,0,1,.5.5v68.16A.51.51,0,0,1,821.63,498.34Z"/><path class="cls-3" d="M833.7,498.34a.5.5,0,0,1-.5-.5V429.68a.5.5,0,0,1,1,0v68.16A.5.5,0,0,1,833.7,498.34Z"/><path class="cls-3" d="M845.77,498.34a.5.5,0,0,1-.5-.5V429.68a.5.5,0,0,1,1,0v68.16A.5.5,0,0,1,845.77,498.34Z"/><path class="cls-3" d="M857.84,498.34a.51.51,0,0,1-.5-.5V429.68a.5.5,0,0,1,.5-.5.5.5,0,0,1,.5.5v68.16A.5.5,0,0,1,857.84,498.34Z"/><path class="cls-3" d="M869.92,498.34a.5.5,0,0,1-.5-.5V429.68a.5.5,0,0,1,.5-.5.5.5,0,0,1,.5.5v68.16A.51.51,0,0,1,869.92,498.34Z"/><path class="cls-3" d="M882,498.34a.5.5,0,0,1-.5-.5V429.68a.5.5,0,0,1,.5-.5.5.5,0,0,1,.5.5v68.16A.51.51,0,0,1,882,498.34Z"/></g><path class="cls-3" d="M211.3,488.76c-32.42,0-58.89-8.47-77.46-24.95C116.28,448.23,107,426.17,107,400s9.28-48.23,26.84-63.81c23.17-20.56,58.65-28.65,102.61-23.38,90.21,10.81,195.17,16.29,312,16.29h3.16c116.8,0,221.76-5.48,312-16.29,44-5.27,79.44,2.82,102.61,23.38C983.72,351.77,993,373.83,993,400s-9.28,48.23-26.84,63.81c-23.17,20.56-58.65,28.65-102.61,23.38-90.21-10.81-195.17-16.29-312-16.29h-3.16c-116.8,0-221.76,5.48-312,16.29A212.94,212.94,0,0,1,211.3,488.76Zm0-171.52c-30.9,0-56,7.95-73.45,23.43C121.58,355.08,113,375.6,113,400s8.58,44.92,24.82,59.33c21.85,19.38,55.71,27,97.91,21.9,90.45-10.83,195.66-16.33,312.69-16.33h3.16c117,0,222.24,5.5,312.69,16.33,42.2,5.06,76.06-2.52,97.91-21.91C978.42,444.92,987,424.4,987,400s-8.58-44.92-24.82-59.33c-21.85-19.38-55.71-27-97.91-21.9l-.36-3,.36,3C773.82,329.6,668.62,335.1,551.58,335.1h-3.16c-117,0-222.24-5.5-312.69-16.33A205.56,205.56,0,0,0,211.27,317.24Z"/></g></svg>