<svg id="art" xmlns="http://www.w3.org/2000/svg" xmlns:xlink="http://www.w3.org/1999/xlink" viewBox="0 0 1100 800"><defs><style>.cls-1,.cls-2,.cls-4{fill:none;stroke:#4b4a4a;}.cls-1,.cls-4{stroke-linecap:round;}.cls-1{stroke-linejoin:round;stroke-width:6px;}.cls-2,.cls-4{stroke-miterlimit:10;}.cls-2{stroke-width:5px;}.cls-3{clip-path:url(#clip-path);}</style><clipPath id="clip-path"><path class="cls-1" d="M863.91,315.79c-72.48,8.68-174.39,16.31-312.33,16.31h-3.16c-137.94,0-239.85-7.63-312.33-16.31C157,306.31,110,341.82,110,400S157,493.69,236.09,484.21c72.48-8.68,174.39-16.31,312.33-16.31h3.16c137.94,0,239.85,7.63,312.33,16.31C943.05,493.69,990,458.18,990,400S943.05,306.31,863.91,315.79Z"/></clipPath></defs><title>transparent-core-FSC™-Certified-Fly®-900G-Core</title><path class="cls-2" d="M863.91,315.79c-72.48,8.68-174.39,16.31-312.33,16.31h-3.16c-137.94,0-239.85-7.63-312.33-16.31C157,306.31,110,341.82,110,400S157,493.69,236.09,484.21c72.48-8.68,174.39-16.31,312.33-16.31h3.16c137.94,0,239.85,7.63,312.33,16.31C943.05,493.69,990,458.18,990,400S943.05,306.31,863.91,315.79Z"/><g class="cls-3"><line class="cls-4" x1="990" y1="371.04" x2="110" y2="371.04"/><line class="cls-4" x1="990" y1="359.45" x2="110" y2="359.45"/><line class="cls-4" x1="990" y1="347.87" x2="110" y2="347.87"/><line class="cls-4" x1="990" y1="336.29" x2="110" y2="336.29"/><line class="cls-4" x1="990" y1="324.7" x2="110" y2="324.7"/><line class="cls-4" x1="990" y1="428.96" x2="110" y2="428.96"/><line class="cls-4" x1="990" y1="417.38" x2="110" y2="417.38"/><line class="cls-4" x1="990" y1="405.79" x2="110" y2="405.79"/><line class="cls-4" x1="990" y1="394.21" x2="110" y2="394.21"/><line class="cls-4" x1="990" y1="382.62" x2="110" y2="382.62"/><line class="cls-4" x1="990" y1="475.3" x2="110" y2="475.3"/><line class="cls-4" x1="990" y1="463.71" x2="110" y2="463.71"/><line class="cls-4" x1="990" y1="452.13" x2="110" y2="452.13"/><line class="cls-4" x1="990" y1="440.55" x2="110" y2="440.55"/></g><path class="cls-1" d="M863.91,315.79c-72.48,8.68-174.39,16.31-312.33,16.31h-3.16c-137.94,0-239.85-7.63-312.33-16.31C157,306.31,110,341.82,110,400S157,493.69,236.09,484.21c72.48-8.68,174.39-16.31,312.33-16.31h3.16c137.94,0,239.85,7.63,312.33,16.31C943.05,493.69,990,458.18,990,400S943.05,306.31,863.91,315.79Z"/></svg>