<svg xmlns="http://www.w3.org/2000/svg" viewBox="0 0 1100 800"><defs><style>.cls-1{fill:#4b4a4a;}</style></defs><title>transparent-flex-twin</title><g id="Art_OUTLINED" data-name="Art OUTLINED"><path class="cls-1" d="M549.65,469.56c-73.9,0-141.86-8.33-202-24.77-48.17-13.16-91.46-31.54-128.67-54.6-63.55-39.39-87-78.3-87.95-79.94a3,3,0,1,1,5.16-3.05h0c8,13.51,36.36,47.23,86.35,78.14,36.71,22.69,79.45,40.78,127,53.76,59.52,16.23,126.83,24.46,200.06,24.46s140.54-8.23,200.07-24.46c47.58-13,90.32-31.07,127-53.76,50-30.91,78.33-64.63,86.34-78.14a3,3,0,0,1,5.17,3.05c-1,1.64-24.41,40.55-88,79.94-37.2,23.06-80.49,41.44-128.66,54.6C691.51,461.23,623.55,469.56,549.65,469.56Z"/><path class="cls-1" d="M550.8,469.44c-184.92,0-410.43-3.85-434.68-22.15a.5.5,0,0,1,.61-.8c24,18.14,249.31,21.95,434.07,21.95,369.74,0,425.3-16.56,433.53-21.63a.49.49,0,0,1,.68.17.48.48,0,0,1-.16.68C976.57,452.77,920.8,469.44,550.8,469.44Z"/><path class="cls-1" d="M114,433.64a.5.5,0,0,1-.49-.43c-.19-1.25-.37-2.57-.55-4a.5.5,0,0,1,.43-.56.51.51,0,0,1,.56.43c.18,1.39.36,2.71.55,4a.51.51,0,0,1-.43.57Zm-1-7.93a.51.51,0,0,1-.5-.44c-.15-1.29-.3-2.62-.44-4a.5.5,0,0,1,.45-.55.52.52,0,0,1,.55.45c.14,1.37.28,2.69.43,4a.5.5,0,0,1-.43.56Zm-.83-8a.5.5,0,0,1-.5-.45c-.12-1.31-.23-2.64-.33-4a.49.49,0,0,1,.46-.53.49.49,0,0,1,.53.46c.11,1.35.22,2.68.34,4a.51.51,0,0,1-.45.54Zm-.62-8a.5.5,0,0,1-.5-.47c-.08-1.31-.16-2.64-.22-4a.49.49,0,0,1,.47-.52.51.51,0,0,1,.53.47c.06,1.35.14,2.68.22,4a.49.49,0,0,1-.46.53Zm-.4-8a.5.5,0,0,1-.5-.48c0-1.32-.08-2.66-.11-4a.5.5,0,0,1,1,0c0,1.35.07,2.68.11,4a.5.5,0,0,1-.48.52Zm-.17-8a.5.5,0,0,1-.5-.49v-1.71c0-.76,0-1.53,0-2.3a.49.49,0,0,1,.5-.5.51.51,0,0,1,.5.51c0,.76,0,1.53,0,2.29v1.7a.5.5,0,0,1-.5.5Zm.08-8h0a.49.49,0,0,1-.48-.51c0-1.33.07-2.67.13-4a.5.5,0,1,1,1,.05c-.06,1.33-.1,2.66-.14,4A.48.48,0,0,1,111,385.78Zm.34-8h0a.49.49,0,0,1-.47-.52c.08-1.34.17-2.67.28-4a.5.5,0,0,1,.53-.46.51.51,0,0,1,.46.54c-.1,1.33-.2,2.66-.28,4A.49.49,0,0,1,111.38,377.79Zm.63-8H112a.49.49,0,0,1-.45-.54c.13-1.33.28-2.66.44-4a.5.5,0,0,1,.56-.44.49.49,0,0,1,.43.56c-.16,1.32-.3,2.64-.43,4A.52.52,0,0,1,112,369.81Zm1-7.95h-.07a.51.51,0,0,1-.42-.57c.19-1.32.39-2.65.62-4a.48.48,0,0,1,.57-.41.49.49,0,0,1,.41.57c-.22,1.31-.42,2.63-.61,3.94A.51.51,0,0,1,113,361.86ZM114.3,354h-.09a.5.5,0,0,1-.4-.58c.26-1.32.53-2.63.82-3.93a.5.5,0,1,1,1,.22c-.29,1.29-.56,2.59-.82,3.9A.49.49,0,0,1,114.3,354Zm1.75-7.8-.13,0a.5.5,0,0,1-.36-.6c.33-1.3.68-2.6,1-3.88a.51.51,0,0,1,.62-.34.49.49,0,0,1,.34.62c-.36,1.27-.71,2.55-1,3.84A.49.49,0,0,1,116.05,346.17Zm2.22-7.68a.41.41,0,0,1-.16,0,.5.5,0,0,1-.32-.63c.42-1.28.86-2.56,1.31-3.79a.5.5,0,0,1,.94.34c-.45,1.23-.89,2.49-1.3,3.76A.5.5,0,0,1,118.27,338.49ZM121,331a.63.63,0,0,1-.19,0,.5.5,0,0,1-.27-.66c.51-1.25,1.06-2.49,1.61-3.68a.49.49,0,0,1,.66-.24.5.5,0,0,1,.25.66c-.55,1.18-1.09,2.41-1.6,3.64A.48.48,0,0,1,121,331Zm3.36-7.25a.68.68,0,0,1-.23-.05.51.51,0,0,1-.21-.68c.62-1.2,1.28-2.38,1.94-3.52a.5.5,0,0,1,.87.51c-.66,1.12-1.31,2.29-1.92,3.47A.51.51,0,0,1,124.38,323.73Z"/><rect class="cls-1" x="535.73" y="521" width="30.13" height="1"/><polygon class="cls-1" points="536.9 525.49 529.99 521.5 536.9 517.51 536.9 525.49"/><polygon class="cls-1" points="564.69 525.49 571.6 521.5 564.69 517.51 564.69 525.49"/><path class="cls-1" d="M583.64,544.2H518a22.7,22.7,0,0,1,0-45.4h65.69a22.7,22.7,0,1,1,0,45.4ZM518,499.8a21.7,21.7,0,0,0,0,43.4h65.69a21.7,21.7,0,1,0,0-43.4Z"/><path class="cls-1" d="M987,433.64h-.07a.51.51,0,0,1-.42-.57c.18-1.25.36-2.57.55-4a.5.5,0,0,1,.56-.43.51.51,0,0,1,.43.56c-.18,1.4-.37,2.72-.55,4A.51.51,0,0,1,987,433.64Zm1-7.93H988a.51.51,0,0,1-.44-.56c.15-1.28.3-2.6.44-4a.51.51,0,0,1,.55-.45.5.5,0,0,1,.44.55c-.14,1.37-.29,2.7-.44,4A.5.5,0,0,1,988,425.71Zm.83-8h0a.5.5,0,0,1-.45-.55c.11-1.29.23-2.62.33-4a.5.5,0,0,1,.54-.46.52.52,0,0,1,.46.54c-.11,1.36-.22,2.69-.34,4A.5.5,0,0,1,988.87,417.75Zm.61-8h0a.5.5,0,0,1-.47-.53c.09-1.31.16-2.64.23-4a.5.5,0,0,1,1,.05c-.07,1.36-.15,2.69-.23,4A.5.5,0,0,1,989.48,409.77Zm.4-8h0a.5.5,0,0,1-.48-.52q.07-2,.12-4a.49.49,0,0,1,.51-.49.52.52,0,0,1,.49.51c0,1.35-.07,2.69-.12,4A.5.5,0,0,1,989.88,401.78Zm.17-8h0a.5.5,0,0,1-.5-.5c0-.57,0-1.13,0-1.7,0-.76,0-1.53,0-2.29a.51.51,0,0,1,.49-.51.52.52,0,0,1,.51.5c0,.77,0,1.53,0,2.3,0,.57,0,1.14,0,1.71A.49.49,0,0,1,990.05,393.78Zm-.07-8a.5.5,0,0,1-.5-.48c0-1.33-.08-2.66-.13-4a.5.5,0,0,1,.47-.53.5.5,0,0,1,.52.48c.06,1.34.11,2.68.14,4a.49.49,0,0,1-.49.51Zm-.34-8a.51.51,0,0,1-.5-.47c-.08-1.33-.17-2.66-.28-4a.52.52,0,0,1,.46-.54.5.5,0,0,1,.54.46c.11,1.34.2,2.67.28,4a.49.49,0,0,1-.47.52Zm-.64-8a.5.5,0,0,1-.49-.45c-.13-1.33-.28-2.65-.44-4a.5.5,0,1,1,1-.12c.16,1.33.31,2.66.44,4a.49.49,0,0,1-.45.54Zm-1-7.95a.5.5,0,0,1-.49-.43c-.19-1.31-.4-2.63-.62-3.94a.5.5,0,0,1,1-.16c.22,1.31.43,2.64.62,4a.51.51,0,0,1-.43.57ZM986.71,354a.5.5,0,0,1-.49-.4q-.37-2-.81-3.9a.5.5,0,0,1,.38-.6.5.5,0,0,1,.59.38c.29,1.3.57,2.61.82,3.93a.48.48,0,0,1-.39.58Zm-1.74-7.8a.5.5,0,0,1-.49-.38c-.33-1.29-.67-2.57-1-3.84a.5.5,0,0,1,1-.28c.37,1.28.72,2.58,1.05,3.88a.49.49,0,0,1-.36.6Zm-2.22-7.68a.51.51,0,0,1-.48-.35c-.41-1.27-.85-2.53-1.3-3.76a.5.5,0,0,1,.3-.64.49.49,0,0,1,.64.3c.46,1.23.9,2.51,1.31,3.79a.49.49,0,0,1-.32.63A.4.4,0,0,1,982.75,338.49ZM980,331a.49.49,0,0,1-.46-.31c-.51-1.23-1-2.46-1.59-3.64a.49.49,0,0,1,.24-.66.5.5,0,0,1,.67.24c.55,1.19,1.09,2.43,1.61,3.68a.51.51,0,0,1-.28.66A.58.58,0,0,1,980,331Zm-3.36-7.25a.5.5,0,0,1-.44-.27c-.62-1.18-1.26-2.35-1.92-3.47a.51.51,0,0,1,.18-.69.49.49,0,0,1,.68.18c.67,1.14,1.32,2.32,1.94,3.52a.5.5,0,0,1-.21.68A.59.59,0,0,1,976.63,323.73Z"/></g></svg>