<svg xmlns="http://www.w3.org/2000/svg" viewBox="0 0 1100 800"><defs><style>.cls-1{fill:#4b4a4a;}</style></defs><title>transparent-flex-directional</title><g id="Art_OUTLINED" data-name="Art OUTLINED"><path class="cls-1" d="M550.8,469.94c-51.23,0-85.07,0-136.56-.89-62.18-1.06-152.24-8.86-228.1-40-45.66-18.73-64.32-36.85-65.09-37.61a3,3,0,0,1,4.21-4.27c.32.31,19,18.3,63.63,36.52,74.92,30.61,164,38.28,225.45,39.34,51.44.88,85.26.88,136.46.88,72.36,0,139-8.31,198.14-24.69,47.26-13.09,89.82-31.35,126.5-54.25,50-31.19,78.59-65.22,86.75-78.86a3,3,0,0,1,5.15,3.07c-1,1.65-24.83,40.9-88.33,80.64-37.18,23.27-80.29,41.8-128.14,55.09C691.15,461.53,623.84,469.94,550.8,469.94Z"/><path class="cls-1" d="M113.7,435.52a.5.5,0,0,1-.49-.46c-.08-.76-.15-1.54-.21-2.36a.5.5,0,0,1,1-.07c.06.8.13,1.58.2,2.34a.49.49,0,0,1-.45.54Zm-.41-6.35a.5.5,0,0,1-.5-.48q-.06-1.54-.06-3.18v-.84a.5.5,0,0,1,.5-.5.51.51,0,0,1,.5.51v.83q0,1.61.06,3.15a.5.5,0,0,1-.49.51Zm.07-8h0a.5.5,0,0,1-.48-.52c.08-1.35.18-2.7.32-4a.5.5,0,0,1,.55-.45.51.51,0,0,1,.45.55c-.14,1.29-.24,2.63-.32,4A.49.49,0,0,1,113.36,421.17Zm.84-7.95h-.08a.49.49,0,0,1-.42-.57c.21-1.34.46-2.67.74-4a.5.5,0,0,1,.6-.38.49.49,0,0,1,.38.59c-.28,1.27-.52,2.59-.73,3.91A.49.49,0,0,1,114.2,413.22Zm1.7-7.81-.14,0a.51.51,0,0,1-.34-.62c.37-1.31.79-2.6,1.23-3.84a.5.5,0,0,1,.64-.3.51.51,0,0,1,.31.64c-.44,1.22-.85,2.49-1.22,3.77A.5.5,0,0,1,115.9,405.41Z"/><rect class="cls-1" x="529.99" y="521" width="35.87" height="1"/><polygon class="cls-1" points="564.69 525.49 571.6 521.5 564.69 517.51 564.69 525.49"/><path class="cls-1" d="M583.64,544.2H518a22.7,22.7,0,0,1,0-45.4h65.69a22.7,22.7,0,1,1,0,45.4ZM518,499.8a21.7,21.7,0,0,0,0,43.4h65.69a21.7,21.7,0,1,0,0-43.4Z"/><path class="cls-1" d="M550.8,470.44c-184.92,0-410.43-3.85-434.68-22.15a.5.5,0,0,1,.61-.8c24,18.14,249.31,21.95,434.07,21.95,369.74,0,425.3-16.56,433.53-21.63a.49.49,0,0,1,.68.17.48.48,0,0,1-.16.68C976.57,453.77,920.8,470.44,550.8,470.44Z"/><path class="cls-1" d="M987.13,433.67h-.07a.51.51,0,0,1-.42-.57c.18-1.25.35-2.57.53-4a.5.5,0,0,1,.56-.43.49.49,0,0,1,.43.56c-.17,1.39-.35,2.72-.53,4A.51.51,0,0,1,987.13,433.67Zm1-7.94h-.06a.5.5,0,0,1-.44-.55c.14-1.28.29-2.61.42-4a.5.5,0,0,1,.55-.45.49.49,0,0,1,.45.54c-.14,1.37-.28,2.7-.43,4A.5.5,0,0,1,988.15,425.73Zm.79-8h0a.5.5,0,0,1-.46-.54c.12-1.3.22-2.63.32-4a.5.5,0,0,1,1,.07c-.1,1.36-.21,2.69-.32,4A.49.49,0,0,1,988.94,417.77Zm.59-8h0a.51.51,0,0,1-.47-.53c.08-1.31.15-2.64.22-4a.5.5,0,0,1,1,.05c-.07,1.35-.14,2.69-.22,4A.5.5,0,0,1,989.53,409.79Zm.38-8h0a.5.5,0,0,1-.48-.52c0-1.31.08-2.64.1-4a.49.49,0,0,1,.51-.49.5.5,0,0,1,.49.51c0,1.35-.06,2.69-.1,4A.5.5,0,0,1,989.91,401.8Zm.15-8h0a.49.49,0,0,1-.49-.5v-1.09c0-1,0-1.93,0-2.9a.5.5,0,1,1,1,0c0,1,0,1.94,0,2.91v1.09A.5.5,0,0,1,990.06,393.8Zm-.09-8a.49.49,0,0,1-.5-.49q-.06-2-.15-4a.51.51,0,0,1,.48-.52.5.5,0,0,1,.52.48c.06,1.34.11,2.68.15,4a.51.51,0,0,1-.49.51Zm-.36-8a.5.5,0,0,1-.5-.47c-.08-1.32-.17-2.65-.28-4a.5.5,0,0,1,.46-.54.51.51,0,0,1,.54.46c.11,1.34.2,2.67.28,4a.49.49,0,0,1-.47.53Zm-.64-8a.51.51,0,0,1-.5-.45c-.13-1.32-.28-2.64-.44-4a.5.5,0,1,1,1-.12c.16,1.33.3,2.66.44,4a.5.5,0,0,1-.45.55Zm-1-7.94a.5.5,0,0,1-.49-.43c-.19-1.31-.39-2.63-.61-3.94a.5.5,0,1,1,1-.16c.22,1.31.43,2.63.62,4a.51.51,0,0,1-.42.57ZM986.68,354a.49.49,0,0,1-.49-.4c-.26-1.31-.53-2.61-.82-3.9a.5.5,0,0,1,1-.22c.29,1.3.56,2.61.82,3.93a.5.5,0,0,1-.4.58Zm-1.74-7.8a.5.5,0,0,1-.49-.38c-.32-1.29-.67-2.57-1-3.85a.48.48,0,0,1,.34-.61.49.49,0,0,1,.62.34c.37,1.28.71,2.57,1,3.87a.5.5,0,0,1-.36.61Zm-2.21-7.69a.48.48,0,0,1-.47-.34c-.42-1.28-.85-2.54-1.3-3.77a.51.51,0,0,1,.3-.64.5.5,0,0,1,.64.3c.45,1.24.89,2.52,1.31,3.8a.51.51,0,0,1-.32.63A.47.47,0,0,1,982.73,338.5ZM980,331a.5.5,0,0,1-.47-.31c-.5-1.24-1-2.46-1.58-3.64a.5.5,0,1,1,.9-.42c.55,1.19,1.1,2.43,1.61,3.68a.52.52,0,0,1-.27.66Zm-3.36-7.26a.49.49,0,0,1-.44-.26c-.62-1.19-1.27-2.36-1.92-3.48a.51.51,0,0,1,.18-.69.5.5,0,0,1,.68.18c.67,1.14,1.32,2.32,1.94,3.52a.5.5,0,0,1-.21.68A.46.46,0,0,1,976.63,323.73Z"/></g></svg>