<svg xmlns="http://www.w3.org/2000/svg" xmlns:xlink="http://www.w3.org/1999/xlink" viewBox="0 0 1100 800"><defs><style>.cls-1{fill:none;}.cls-2{fill:#4b4a4a;}.cls-3{clip-path:url(#clip-path);}.cls-4{clip-path:url(#clip-path-2);}</style><clipPath id="clip-path"><path class="cls-1" d="M775.66,623.67c-63.29,18.39-113-20-173.68.8L588.06,427.79,688.9,391.31l102.69,36.48Z"/></clipPath><clipPath id="clip-path-2"><path class="cls-1" d="M493.64,623.74c-62.49,18.15-111.6-19.73-171.48.79L308.41,373.46l99.57-36,101.38,36Z"/></clipPath></defs><title>transparent-findyourshape-bfg-mobile</title><g id="Text_OUTLINED" data-name="Text OUTLINED"><path class="cls-2" d="M336.26,118.49h15.91v3.57H340v7.35h10.36v3.35H340v10.65h-3.77Z"/><path class="cls-2" d="M358.56,118.49h9.72a7.69,7.69,0,0,1,5.08,1.64,6.6,6.6,0,0,1,2.47,5.31,6.93,6.93,0,0,1-4.81,6.91l5.77,11.06H372.3l-5.15-10.65h-4.82v10.65h-3.77Zm3.77,10.92H368a4.11,4.11,0,0,0,3.18-1.23,3.82,3.82,0,0,0,1-2.74,3.35,3.35,0,0,0-1.24-2.82,4.37,4.37,0,0,0-2.77-.77h-5.92Z"/><path class="cls-2" d="M383.4,118.49h15.91v3.57H387.18v7.11h10.36v3.35H387.18v7.31h12.13v3.58H383.4Z"/><path class="cls-2" d="M406.37,118.49h15.91v3.57H410.14v7.11H420.5v3.35H410.14v7.31h12.14v3.58H406.37Z"/><path class="cls-2" d="M429.33,118.49h9.73a7.66,7.66,0,0,1,5.07,1.64,6.6,6.6,0,0,1,2.48,5.31,6.93,6.93,0,0,1-4.82,6.91l5.78,11.06h-4.5l-5.14-10.65h-4.82v10.65h-3.78Zm3.78,10.92h5.71a4.11,4.11,0,0,0,3.18-1.23,3.86,3.86,0,0,0,1-2.74,3.32,3.32,0,0,0-1.25-2.82,4.35,4.35,0,0,0-2.77-.77h-5.91Z"/><path class="cls-2" d="M454.18,118.49H458v24.92h-3.77Z"/><path class="cls-2" d="M466.7,118.49h8.72a8.35,8.35,0,0,1,7.58,4.2,7.49,7.49,0,0,1,1.15,2.94,52.22,52.22,0,0,1,.19,5.32,36.69,36.69,0,0,1-.29,5.6,6.27,6.27,0,0,1-.41,1.44c-.2.41-.43.84-.7,1.28a8.68,8.68,0,0,1-3.05,2.9,8.52,8.52,0,0,1-4.73,1.24H466.7Zm3.78,21.34H475a5.1,5.1,0,0,0,4.61-2.17,4.09,4.09,0,0,0,.81-2,44.55,44.55,0,0,0,.15-4.55q0-3.24-.15-4.65a4.26,4.26,0,0,0-1-2.27,5,5,0,0,0-4.44-2.1h-4.51Z"/><path class="cls-2" d="M492.25,118.49h15.91v3.57H496v7.11h10.36v3.35H496v7.31h12.14v3.58H492.25Z"/><path class="cls-2" d="M527.1,118.49h8.72a8.37,8.37,0,0,1,7.59,4.2,7.63,7.63,0,0,1,1.14,2.94,49.37,49.37,0,0,1,.19,5.32,36.69,36.69,0,0,1-.29,5.6A6.27,6.27,0,0,1,544,138a12.71,12.71,0,0,1-.7,1.28,9.09,9.09,0,0,1-7.78,4.14H527.1Zm3.78,21.34h4.51a5.13,5.13,0,0,0,4.62-2.17,4.08,4.08,0,0,0,.8-2,44.55,44.55,0,0,0,.15-4.55q0-3.24-.15-4.65a4.33,4.33,0,0,0-1-2.27,5,5,0,0,0-4.45-2.1h-4.51Z"/><path class="cls-2" d="M552.65,118.49h3.78v24.92h-3.78Z"/><path class="cls-2" d="M565.17,118.49h9.73a7.66,7.66,0,0,1,5.07,1.64,6.6,6.6,0,0,1,2.48,5.31,6.94,6.94,0,0,1-4.82,6.91l5.78,11.06h-4.5l-5.14-10.65H569v10.65h-3.78ZM569,129.41h5.71a4.11,4.11,0,0,0,3.18-1.23,3.86,3.86,0,0,0,1-2.74,3.32,3.32,0,0,0-1.25-2.82,4.35,4.35,0,0,0-2.77-.77H569Z"/><path class="cls-2" d="M590,118.49h15.91v3.57H593.8v7.11h10.35v3.35H593.8v7.31h12.13v3.58H590Z"/><path class="cls-2" d="M629.78,136.43a9.32,9.32,0,0,1-3.12,5.33,8.86,8.86,0,0,1-5.63,1.85,8.71,8.71,0,0,1-4.9-1.44,8.38,8.38,0,0,1-2.91-3c-.18-.37-.34-.73-.49-1.07a6.83,6.83,0,0,1-.34-1.34,40,40,0,0,1-.26-5.77,39.92,39.92,0,0,1,.26-5.81,7,7,0,0,1,.83-2.38,8.72,8.72,0,0,1,2.91-3.08,8.61,8.61,0,0,1,4.9-1.4,8.47,8.47,0,0,1,5.88,2.14,9.36,9.36,0,0,1,2.87,5.25h-4a5.41,5.41,0,0,0-1.67-2.57,4.93,4.93,0,0,0-3.08-1,5.19,5.19,0,0,0-2.29.53,4.77,4.77,0,0,0-1.57,1.28,4.16,4.16,0,0,0-1,2.07,28.76,28.76,0,0,0-.28,5,28.06,28.06,0,0,0,.28,5,4.11,4.11,0,0,0,1,2.1,4.46,4.46,0,0,0,1.57,1.25,4.39,4.39,0,0,0,2.29.56c2.12,0,3.71-1.13,4.75-3.4Z"/><path class="cls-2" d="M640.17,121.85h-6.82v-3.36h17.43v3.36H644v21.56h-3.79Z"/><path class="cls-2" d="M657,118.49h3.78v24.92H657Z"/><path class="cls-2" d="M668.62,131a42,42,0,0,1,.25-5.81,7.25,7.25,0,0,1,.84-2.38,8.82,8.82,0,0,1,7.81-4.48,8.79,8.79,0,0,1,5,1.4,8.36,8.36,0,0,1,2.83,3.08,5.67,5.67,0,0,1,.88,2.38,49.83,49.83,0,0,1,.22,5.81,50,50,0,0,1-.22,5.77,5.6,5.6,0,0,1-.88,2.41,8,8,0,0,1-2.83,3,8.89,8.89,0,0,1-5,1.44,8.71,8.71,0,0,1-4.9-1.44,8.3,8.3,0,0,1-2.91-3c-.18-.37-.35-.73-.49-1.07a7.55,7.55,0,0,1-.35-1.34A42.1,42.1,0,0,1,668.62,131Zm3.79,0a28.06,28.06,0,0,0,.28,5,4,4,0,0,0,1,2.1,4.46,4.46,0,0,0,1.57,1.25,4.39,4.39,0,0,0,2.29.56,4.61,4.61,0,0,0,2.34-.56,4.24,4.24,0,0,0,1.51-1.25,4.4,4.4,0,0,0,1-2.1,31.33,31.33,0,0,0,.25-5,32.12,32.12,0,0,0-.25-5,4.47,4.47,0,0,0-1-2.07,4.53,4.53,0,0,0-1.51-1.28,5.45,5.45,0,0,0-2.34-.53,5.19,5.19,0,0,0-2.29.53,4.77,4.77,0,0,0-1.57,1.28,4.08,4.08,0,0,0-1,2.07A28.76,28.76,0,0,0,672.41,131Z"/><path class="cls-2" d="M694.32,118.49h3.55l11.28,17.7h.07v-17.7H713v24.92h-3.58L698.16,125.7h-.07v17.71h-3.77Z"/><path class="cls-2" d="M734.53,137.83h-9.45l-1.92,5.58h-4l9.06-24.92h3.16l9.06,24.92h-4Zm-1.08-3.35-3.61-10.88h-.06l-3.61,10.88Z"/><path class="cls-2" d="M746.61,118.49h3.77v21.34h12.14v3.58H746.61Z"/><path class="cls-2" d="M278.81,666.12h3.77v21.35h12.14V691H278.81Z"/><path class="cls-2" d="M300.92,678.58a42.11,42.11,0,0,1,.25-5.81,7.25,7.25,0,0,1,.84-2.38,8.84,8.84,0,0,1,7.81-4.47,8.72,8.72,0,0,1,5,1.4,8.46,8.46,0,0,1,2.84,3.07,5.8,5.8,0,0,1,.87,2.38,76.43,76.43,0,0,1,0,11.59,5.84,5.84,0,0,1-.87,2.41,8.23,8.23,0,0,1-2.84,3,8.88,8.88,0,0,1-5,1.43,8.7,8.7,0,0,1-4.9-1.43,8.38,8.38,0,0,1-2.91-3c-.18-.38-.35-.74-.49-1.08a7.42,7.42,0,0,1-.35-1.33A42.28,42.28,0,0,1,300.92,678.58Zm3.79,0a28,28,0,0,0,.28,5,4.18,4.18,0,0,0,1,2.11,4.44,4.44,0,0,0,1.57,1.24,4.4,4.4,0,0,0,2.29.57,4.61,4.61,0,0,0,2.34-.57,4.22,4.22,0,0,0,1.51-1.24,4.48,4.48,0,0,0,1-2.11,31.24,31.24,0,0,0,.25-5,32.12,32.12,0,0,0-.25-5,4.39,4.39,0,0,0-1-2.06,4.56,4.56,0,0,0-1.51-1.29,5.6,5.6,0,0,0-2.34-.53,5.33,5.33,0,0,0-2.29.53,4.79,4.79,0,0,0-1.57,1.29,4.09,4.09,0,0,0-1,2.06A28.76,28.76,0,0,0,304.71,678.58Z"/><path class="cls-2" d="M326.62,666.12h3.55l11.28,17.71h.07V666.12h3.78V691h-3.57l-11.27-17.71h-.06V691h-3.78Z"/><path class="cls-2" d="M362.14,677.32H371v5.07a8.79,8.79,0,0,1-8.89,8.85,8.7,8.7,0,0,1-4.9-1.43,8.29,8.29,0,0,1-2.91-3c-.18-.38-.35-.74-.5-1.08a7.49,7.49,0,0,1-.34-1.33,67.29,67.29,0,0,1,0-11.59,7,7,0,0,1,.84-2.38A9.11,9.11,0,0,1,368,668.05a9.45,9.45,0,0,1,2.87,5.25h-4a5.45,5.45,0,0,0-1.67-2.56,5,5,0,0,0-3.08-1,5.33,5.33,0,0,0-2.29.53,4.79,4.79,0,0,0-1.57,1.29,4.1,4.1,0,0,0-1,2.06,30.17,30.17,0,0,0-.27,5,29.35,29.35,0,0,0,.27,5,4.19,4.19,0,0,0,1,2.11,4.44,4.44,0,0,0,1.57,1.24,4.4,4.4,0,0,0,2.29.57,4.8,4.8,0,0,0,3.64-1.51,5.17,5.17,0,0,0,1.47-3.77v-1.3h-5.08Z"/><path class="cls-2" d="M378.91,666.12h15.91v3.57H382.68v7.11H393v3.35H382.68v7.32h12.14V691H378.91Z"/><path class="cls-2" d="M401.87,666.12h9.73a7.66,7.66,0,0,1,5.07,1.64,6.65,6.65,0,0,1,2.48,5.32,6.93,6.93,0,0,1-4.82,6.9L420.11,691h-4.5l-5.14-10.65h-4.82V691h-3.78ZM405.65,677h5.71a4.11,4.11,0,0,0,3.18-1.23,3.86,3.86,0,0,0,1-2.73,3.33,3.33,0,0,0-1.25-2.82,4.35,4.35,0,0,0-2.77-.77h-5.91Z"/><path class="cls-2" d="M438.61,666.12h3.55l11.28,17.71h.07V666.12h3.78V691h-3.57l-11.27-17.71h-.07V691h-3.77Z"/><path class="cls-2" d="M465.2,678.58a42.11,42.11,0,0,1,.25-5.81,6.82,6.82,0,0,1,.84-2.38,8.84,8.84,0,0,1,7.81-4.47,8.74,8.74,0,0,1,5,1.4,8.34,8.34,0,0,1,2.83,3.07,5.66,5.66,0,0,1,.87,2.38,73.12,73.12,0,0,1,0,11.59,5.7,5.7,0,0,1-.87,2.41,8.12,8.12,0,0,1-2.83,3,8.91,8.91,0,0,1-5,1.43,8.7,8.7,0,0,1-4.9-1.43,8.29,8.29,0,0,1-2.91-3c-.18-.38-.35-.74-.5-1.08a7.49,7.49,0,0,1-.34-1.33A42.28,42.28,0,0,1,465.2,678.58Zm3.79,0a29.35,29.35,0,0,0,.27,5,4.19,4.19,0,0,0,1,2.11,4.44,4.44,0,0,0,1.57,1.24,4.4,4.4,0,0,0,2.29.57,4.61,4.61,0,0,0,2.34-.57,4.22,4.22,0,0,0,1.51-1.24,4.38,4.38,0,0,0,1-2.11,30.86,30.86,0,0,0,.26-5,31.73,31.73,0,0,0-.26-5,4.29,4.29,0,0,0-1-2.06,4.56,4.56,0,0,0-1.51-1.29,5.6,5.6,0,0,0-2.34-.53,5.33,5.33,0,0,0-2.29.53,4.79,4.79,0,0,0-1.57,1.29,4.1,4.1,0,0,0-1,2.06A30.17,30.17,0,0,0,469,678.58Z"/><path class="cls-2" d="M498.28,687.47c3.23-.05,4.87-1.2,4.92-3.47q0-2.79-3.25-3.35l-3.29-.46a8.16,8.16,0,0,1-4.89-2.38A6.6,6.6,0,0,1,490,673.2a6.83,6.83,0,0,1,2.17-5.27,8.47,8.47,0,0,1,6-2,14,14,0,0,1,8.08,2.58l-2.1,3.11a11.49,11.49,0,0,0-6.17-1.92,4.68,4.68,0,0,0-2.91.88,3.21,3.21,0,0,0-1.24,2.7,2.73,2.73,0,0,0,.83,1.94,4.73,4.73,0,0,0,2.69,1.23c.68.12,1.61.25,2.8.4a7.77,7.77,0,0,1,5.18,2.51A7.08,7.08,0,0,1,507,684q-.18,7.14-8.75,7.24a14.09,14.09,0,0,1-9.51-3.41L491.2,685A11,11,0,0,0,498.28,687.47Z"/><path class="cls-2" d="M514.48,666.12h15.91v3.57H518.25v7.11h10.36v3.35H518.25v7.32h12.14V691H514.48Z"/><path class="cls-2" d="M345,730.53a16.3,16.3,0,0,1-3.25,1.91,9.42,9.42,0,0,1-3.71.8,7.6,7.6,0,0,1-5.67-2.3,7.5,7.5,0,0,1-2.21-5.35q0-4.67,4.75-7.28a9.29,9.29,0,0,1-1.43-2.27,5.35,5.35,0,0,1-.62-2.47,5.64,5.64,0,0,1,1.54-4,5.77,5.77,0,0,1,8.12,0,5.87,5.87,0,0,1,1.54,4c0,2.32-1.35,4.17-4.17,5.57l5.31,6.41a13.19,13.19,0,0,0,2.17-4.17l3.2,1.27a18.06,18.06,0,0,1-1.37,2.8,14.34,14.34,0,0,1-1.9,2.58l4.21,5h-4.21Zm-8.09-9.85c-2.42,1.43-3.63,3.05-3.6,4.87a4.31,4.31,0,0,0,1.4,3.22,4.37,4.37,0,0,0,3.21,1.33,7.59,7.59,0,0,0,5-2.21Zm-.9-7.24a2.79,2.79,0,0,0,.56,1.57,7.07,7.07,0,0,0,1.28,1.62,6.6,6.6,0,0,0,2.43-1.47,2.69,2.69,0,0,0,.63-1.72,2.39,2.39,0,0,0-.66-1.71,2.49,2.49,0,0,0-1.8-.67,2.31,2.31,0,0,0-1.71.67A2.26,2.26,0,0,0,336,713.44Z"/><path class="cls-2" d="M373.73,711.49h-6.82v-3.37h17.43v3.37h-6.82V733h-3.79Z"/><path class="cls-2" d="M400.68,727.47h-9.46L389.31,733h-4l9.06-24.92h3.16L406.59,733h-4Zm-1.08-3.35L396,713.23h-.07l-3.6,10.89Z"/><path class="cls-2" d="M412.75,708.12h9a13.79,13.79,0,0,1,2.83.28,7.27,7.27,0,0,1,2.77,1.47,5.88,5.88,0,0,1,1.92,2.39,7.74,7.74,0,0,1,.77,3.55,7.54,7.54,0,0,1-1.95,5,7.33,7.33,0,0,1-5.85,2.46h-5.74V733h-3.78Zm3.78,11.62h5.59a4,4,0,0,0,3.16-1.3,4.22,4.22,0,0,0,1-2.73,4.88,4.88,0,0,0-.41-2.1,3.19,3.19,0,0,0-1.2-1.22,4.82,4.82,0,0,0-2.7-.7h-5.45Z"/><path class="cls-2" d="M437,708.12h15.91v3.57H440.78v7.11h10.35v3.35H440.78v7.32h12.13V733H437Z"/><path class="cls-2" d="M460,708.12h9.72a7.69,7.69,0,0,1,5.08,1.64,6.62,6.62,0,0,1,2.47,5.32,6.93,6.93,0,0,1-4.81,6.9L478.2,733h-4.49l-5.15-10.65h-4.82V733H460ZM463.74,719h5.71a4.11,4.11,0,0,0,3.18-1.23,3.81,3.81,0,0,0,1-2.73,3.32,3.32,0,0,0-1.24-2.82,4.37,4.37,0,0,0-2.77-.77h-5.92Z"/><path class="cls-2" d="M613,687.47c3.23-.05,4.87-1.2,4.92-3.47q0-2.79-3.25-3.35l-3.3-.46a8.16,8.16,0,0,1-4.88-2.38,6.56,6.56,0,0,1-1.73-4.61,6.83,6.83,0,0,1,2.17-5.27,8.46,8.46,0,0,1,6-2A14,14,0,0,1,621,668.5l-2.1,3.11a11.49,11.49,0,0,0-6.17-1.92,4.66,4.66,0,0,0-2.91.88,3.25,3.25,0,0,0-1.25,2.7,2.74,2.74,0,0,0,.84,1.94,4.7,4.7,0,0,0,2.68,1.23c.69.12,1.62.25,2.81.4a7.72,7.72,0,0,1,5.17,2.51,7,7,0,0,1,1.66,4.65q-.18,7.14-8.75,7.24a14.13,14.13,0,0,1-9.52-3.41l2.48-2.84A11,11,0,0,0,613,687.47Z"/><path class="cls-2" d="M642.84,680.15H633V691H629.2V666.12H633V676.8h9.86V666.12h3.78V691h-3.78Z"/><path class="cls-2" d="M654.53,678.58a42.11,42.11,0,0,1,.25-5.81,7.25,7.25,0,0,1,.84-2.38,8.84,8.84,0,0,1,7.81-4.47,8.72,8.72,0,0,1,5,1.4,8.34,8.34,0,0,1,2.83,3.07,5.67,5.67,0,0,1,.88,2.38,76.43,76.43,0,0,1,0,11.59,5.7,5.7,0,0,1-.88,2.41,8.12,8.12,0,0,1-2.83,3,8.88,8.88,0,0,1-5,1.43,8.7,8.7,0,0,1-4.9-1.43,8.38,8.38,0,0,1-2.91-3c-.18-.38-.35-.74-.49-1.08a7.42,7.42,0,0,1-.35-1.33A42.28,42.28,0,0,1,654.53,678.58Zm3.79,0a28,28,0,0,0,.28,5,4.1,4.1,0,0,0,1,2.11,4.44,4.44,0,0,0,1.57,1.24,4.4,4.4,0,0,0,2.29.57,4.61,4.61,0,0,0,2.34-.57,4.22,4.22,0,0,0,1.51-1.24,4.48,4.48,0,0,0,1-2.11,31.24,31.24,0,0,0,.25-5,32.12,32.12,0,0,0-.25-5,4.39,4.39,0,0,0-1-2.06,4.56,4.56,0,0,0-1.51-1.29,5.6,5.6,0,0,0-2.34-.53,5.33,5.33,0,0,0-2.29.53,4.79,4.79,0,0,0-1.57,1.29,4,4,0,0,0-1,2.06A28.76,28.76,0,0,0,658.32,678.58Z"/><path class="cls-2" d="M680.23,666.12H690a7.67,7.67,0,0,1,5.08,1.64,6.65,6.65,0,0,1,2.48,5.32,7,7,0,0,1-4.82,6.9L698.46,691H694l-5.15-10.65H684V691h-3.77ZM684,677h5.71a4.1,4.1,0,0,0,3.18-1.23,3.81,3.81,0,0,0,1-2.73,3.29,3.29,0,0,0-1.24-2.82,4.35,4.35,0,0,0-2.77-.77H684Z"/><path class="cls-2" d="M708.66,669.49h-6.82v-3.37h17.43v3.37h-6.81V691h-3.8Z"/><path class="cls-2" d="M725.44,666.12h15.91v3.57H729.22v7.11h10.35v3.35H729.22v7.32h12.13V691H725.44Z"/><path class="cls-2" d="M748.41,666.12h9.72a7.69,7.69,0,0,1,5.08,1.64,6.62,6.62,0,0,1,2.47,5.32,6.92,6.92,0,0,1-4.82,6.9L766.64,691h-4.49L757,680.39h-4.82V691h-3.77ZM752.18,677h5.71a4.11,4.11,0,0,0,3.18-1.23,3.86,3.86,0,0,0,1-2.73,3.3,3.3,0,0,0-1.25-2.82,4.32,4.32,0,0,0-2.76-.77h-5.92Z"/><path class="cls-2" d="M654.29,711.49h-6.82v-3.37H664.9v3.37h-6.82V733h-3.79Z"/><path class="cls-2" d="M681.24,727.47h-9.45L669.87,733h-4l9.06-24.92h3.16L687.15,733h-4Zm-1.08-3.35-3.6-10.89h-.07l-3.61,10.89Z"/><path class="cls-2" d="M693.32,708.12h3.77V733h-3.77Z"/><path class="cls-2" d="M705.84,708.12h3.78v21.35h12.13V733H705.84Z"/></g><g id="Art_OUTLINED" data-name="Art OUTLINED"><g class="cls-3"><path class="cls-2" d="M777.38,524.07h-4a.51.51,0,0,1-.5-.5.5.5,0,0,1,.5-.5h4a.5.5,0,0,1,.5.5A.5.5,0,0,1,777.38,524.07Zm-8,0h-4a.51.51,0,0,1-.5-.5.5.5,0,0,1,.5-.5h4a.5.5,0,0,1,.5.5A.5.5,0,0,1,769.38,524.07Zm-8,0h-4a.51.51,0,0,1-.5-.5.5.5,0,0,1,.5-.5h4a.5.5,0,0,1,.5.5A.5.5,0,0,1,761.38,524.07Zm-8,0h-4a.51.51,0,0,1-.5-.5.5.5,0,0,1,.5-.5h4a.5.5,0,0,1,.5.5A.5.5,0,0,1,753.38,524.07Zm-8,0h-4a.51.51,0,0,1-.5-.5.5.5,0,0,1,.5-.5h4a.5.5,0,0,1,.5.5A.5.5,0,0,1,745.38,524.07Zm-8,0h-4a.51.51,0,0,1-.5-.5.5.5,0,0,1,.5-.5h4a.5.5,0,0,1,.5.5A.5.5,0,0,1,737.38,524.07Zm-8,0h-4a.51.51,0,0,1-.5-.5.5.5,0,0,1,.5-.5h4a.5.5,0,0,1,.5.5A.5.5,0,0,1,729.38,524.07Zm-8,0h-4a.51.51,0,0,1-.5-.5.5.5,0,0,1,.5-.5h4a.5.5,0,0,1,.5.5A.5.5,0,0,1,721.38,524.07Zm-8,0h-4a.51.51,0,0,1-.5-.5.5.5,0,0,1,.5-.5h4a.5.5,0,0,1,.5.5A.5.5,0,0,1,713.38,524.07Zm-8,0h-4a.51.51,0,0,1-.5-.5.5.5,0,0,1,.5-.5h4a.5.5,0,0,1,.5.5A.5.5,0,0,1,705.38,524.07Zm-8,0h-4a.51.51,0,0,1-.5-.5.5.5,0,0,1,.5-.5h4a.5.5,0,0,1,.5.5A.5.5,0,0,1,697.38,524.07Zm-8,0h-4a.51.51,0,0,1-.5-.5.5.5,0,0,1,.5-.5h4a.5.5,0,0,1,.5.5A.5.5,0,0,1,689.38,524.07Zm-8,0h-4a.51.51,0,0,1-.5-.5.5.5,0,0,1,.5-.5h4a.5.5,0,0,1,.5.5A.5.5,0,0,1,681.38,524.07Zm-8,0h-4a.51.51,0,0,1-.5-.5.5.5,0,0,1,.5-.5h4a.5.5,0,0,1,.5.5A.5.5,0,0,1,673.38,524.07Zm-8,0h-4a.51.51,0,0,1-.5-.5.5.5,0,0,1,.5-.5h4a.5.5,0,0,1,.5.5A.5.5,0,0,1,665.38,524.07Zm-8,0h-4a.51.51,0,0,1-.5-.5.5.5,0,0,1,.5-.5h4a.5.5,0,0,1,.5.5A.5.5,0,0,1,657.38,524.07Zm-8,0h-4a.51.51,0,0,1-.5-.5.5.5,0,0,1,.5-.5h4a.5.5,0,0,1,.5.5A.5.5,0,0,1,649.38,524.07Zm-8,0h-4a.51.51,0,0,1-.5-.5.5.5,0,0,1,.5-.5h4a.5.5,0,0,1,.5.5A.5.5,0,0,1,641.38,524.07Zm-8,0h-4a.51.51,0,0,1-.5-.5.5.5,0,0,1,.5-.5h4a.5.5,0,0,1,.5.5A.5.5,0,0,1,633.38,524.07Zm-8,0h-4a.51.51,0,0,1-.5-.5.5.5,0,0,1,.5-.5h4a.5.5,0,0,1,.5.5A.5.5,0,0,1,625.38,524.07Zm-8,0h-4a.51.51,0,0,1-.5-.5.5.5,0,0,1,.5-.5h4a.5.5,0,0,1,.5.5A.5.5,0,0,1,617.38,524.07Zm-8,0h-4a.51.51,0,0,1-.5-.5.5.5,0,0,1,.5-.5h4a.5.5,0,0,1,.5.5A.5.5,0,0,1,609.38,524.07Zm-8,0h-4a.51.51,0,0,1-.5-.5.5.5,0,0,1,.5-.5h4a.5.5,0,0,1,.5.5A.5.5,0,0,1,601.38,524.07Z"/><path class="cls-2" d="M777.38,775.67h-4a.5.5,0,0,1-.5-.5.51.51,0,0,1,.5-.5h4a.5.5,0,0,1,.5.5A.5.5,0,0,1,777.38,775.67Zm-8,0h-4a.5.5,0,0,1-.5-.5.51.51,0,0,1,.5-.5h4a.5.5,0,0,1,.5.5A.5.5,0,0,1,769.38,775.67Zm-8,0h-4a.5.5,0,0,1-.5-.5.51.51,0,0,1,.5-.5h4a.5.5,0,0,1,.5.5A.5.5,0,0,1,761.38,775.67Zm-8,0h-4a.5.5,0,0,1-.5-.5.51.51,0,0,1,.5-.5h4a.5.5,0,0,1,.5.5A.5.5,0,0,1,753.38,775.67Zm-8,0h-4a.5.5,0,0,1-.5-.5.51.51,0,0,1,.5-.5h4a.5.5,0,0,1,.5.5A.5.5,0,0,1,745.38,775.67Zm-8,0h-4a.5.5,0,0,1-.5-.5.51.51,0,0,1,.5-.5h4a.5.5,0,0,1,.5.5A.5.5,0,0,1,737.38,775.67Zm-8,0h-4a.5.5,0,0,1-.5-.5.51.51,0,0,1,.5-.5h4a.5.5,0,0,1,.5.5A.5.5,0,0,1,729.38,775.67Zm-8,0h-4a.5.5,0,0,1-.5-.5.51.51,0,0,1,.5-.5h4a.5.5,0,0,1,.5.5A.5.5,0,0,1,721.38,775.67Zm-8,0h-4a.5.5,0,0,1-.5-.5.51.51,0,0,1,.5-.5h4a.5.5,0,0,1,.5.5A.5.5,0,0,1,713.38,775.67Zm-8,0h-4a.5.5,0,0,1-.5-.5.51.51,0,0,1,.5-.5h4a.5.5,0,0,1,.5.5A.5.5,0,0,1,705.38,775.67Zm-8,0h-4a.5.5,0,0,1-.5-.5.51.51,0,0,1,.5-.5h4a.5.5,0,0,1,.5.5A.5.5,0,0,1,697.38,775.67Zm-8,0h-4a.5.5,0,0,1-.5-.5.51.51,0,0,1,.5-.5h4a.5.5,0,0,1,.5.5A.5.5,0,0,1,689.38,775.67Zm-8,0h-4a.5.5,0,0,1-.5-.5.51.51,0,0,1,.5-.5h4a.5.5,0,0,1,.5.5A.5.5,0,0,1,681.38,775.67Zm-8,0h-4a.5.5,0,0,1-.5-.5.51.51,0,0,1,.5-.5h4a.5.5,0,0,1,.5.5A.5.5,0,0,1,673.38,775.67Zm-8,0h-4a.5.5,0,0,1-.5-.5.51.51,0,0,1,.5-.5h4a.5.5,0,0,1,.5.5A.5.5,0,0,1,665.38,775.67Zm-8,0h-4a.5.5,0,0,1-.5-.5.51.51,0,0,1,.5-.5h4a.5.5,0,0,1,.5.5A.5.5,0,0,1,657.38,775.67Zm-8,0h-4a.5.5,0,0,1-.5-.5.51.51,0,0,1,.5-.5h4a.5.5,0,0,1,.5.5A.5.5,0,0,1,649.38,775.67Zm-8,0h-4a.5.5,0,0,1-.5-.5.51.51,0,0,1,.5-.5h4a.5.5,0,0,1,.5.5A.5.5,0,0,1,641.38,775.67Zm-8,0h-4a.5.5,0,0,1-.5-.5.51.51,0,0,1,.5-.5h4a.5.5,0,0,1,.5.5A.5.5,0,0,1,633.38,775.67Zm-8,0h-4a.5.5,0,0,1-.5-.5.51.51,0,0,1,.5-.5h4a.5.5,0,0,1,.5.5A.5.5,0,0,1,625.38,775.67Zm-8,0h-4a.5.5,0,0,1-.5-.5.51.51,0,0,1,.5-.5h4a.5.5,0,0,1,.5.5A.5.5,0,0,1,617.38,775.67Zm-8,0h-4a.5.5,0,0,1-.5-.5.51.51,0,0,1,.5-.5h4a.5.5,0,0,1,.5.5A.5.5,0,0,1,609.38,775.67Zm-8,0h-4a.5.5,0,0,1-.5-.5.51.51,0,0,1,.5-.5h4a.5.5,0,0,1,.5.5A.5.5,0,0,1,601.38,775.67Z"/><path class="cls-2" d="M688.94,1206.22c-19.86,0-36.39-7.29-49.15-21.67-14.38-16.19-23.77-41-27.93-73.79-3.24-25.48-3.09-55.61.41-84.84.91-7.56,1.8-14.68,2.67-21.62,6.47-51.65,11.58-92.44,11.58-226.36v-2.77c0-103.92-6.45-166.25-14.25-231.33-4.62-38.58,2.48-69.73,20.55-90.08,13.71-15.45,33.11-23.62,56.12-23.62s42.42,8.17,56.13,23.62c18.06,20.35,25.17,51.5,20.54,90.08-7.79,65.08-14.25,127.41-14.25,231.33v2.77c0,133.92,5.11,174.71,11.59,226.36.87,6.94,1.76,14.06,2.66,21.62,3.51,29.23,3.65,59.36.42,84.84-4.16,32.77-13.56,57.6-27.93,73.79C725.34,1198.93,708.8,1206.22,688.94,1206.22Zm0-770.08c-21.24,0-39.1,7.47-51.63,21.6-16.9,19-23.49,48.56-19.08,85.39,7.82,65.27,14.29,127.79,14.29,232v2.77c0,134.29-5.13,175.25-11.63,227.11-.87,6.93-1.76,14-2.66,21.59-9.7,80.92,7.1,132.58,26,153.93,11.57,13,26.6,19.65,44.67,19.65s33.1-6.61,44.67-19.65c18.95-21.35,35.74-73,26-153.93-.91-7.55-1.8-14.66-2.67-21.59-6.5-51.86-11.63-92.82-11.63-227.11v-2.77c0-104.25,6.48-166.77,14.3-232,4.41-36.83-2.19-66.35-19.08-85.39C728,443.61,710.19,436.14,688.94,436.14Z"/><path class="cls-2" d="M688.94,714.87a.5.5,0,0,1-.5-.5V577.57a.5.5,0,0,1,.5-.5.5.5,0,0,1,.5.5v136.8A.5.5,0,0,1,688.94,714.87Z"/><path class="cls-2" d="M691.45,722.81h-5v-8.94h5Zm-4-1h3v-6.94h-3Z"/><path class="cls-2" d="M693,609.5h-8.06a.5.5,0,0,1-.5-.5.5.5,0,0,1,.5-.5H693a.5.5,0,0,1,.5.5A.5.5,0,0,1,693,609.5Z"/><path class="cls-2" d="M693,618.71h-8.06a.5.5,0,1,1,0-1H693a.5.5,0,0,1,0,1Z"/><path class="cls-2" d="M693,627.92h-8.06a.5.5,0,0,1-.5-.5.5.5,0,0,1,.5-.5H693a.5.5,0,0,1,.5.5A.5.5,0,0,1,693,627.92Z"/><path class="cls-2" d="M693,637.13h-8.06a.5.5,0,0,1-.5-.5.5.5,0,0,1,.5-.5H693a.5.5,0,0,1,.5.5A.5.5,0,0,1,693,637.13Z"/><path class="cls-2" d="M693,646.35h-8.06a.5.5,0,0,1-.5-.5.5.5,0,0,1,.5-.5H693a.5.5,0,0,1,.5.5A.5.5,0,0,1,693,646.35Z"/><path class="cls-2" d="M693,655.56h-8.06a.5.5,0,1,1,0-1H693a.5.5,0,0,1,0,1Z"/></g><path class="cls-2" d="M738.27,629.31c-17,0-33.23-2.73-49.16-5.41-28.94-4.87-56.27-9.47-87,1.05a.5.5,0,0,1-.63-.31.5.5,0,0,1,.31-.64c30.93-10.6,59.67-5.77,87.46-1.09,27.15,4.57,55.22,9.29,86.24.28a.5.5,0,0,1,.28,1A133,133,0,0,1,738.27,629.31Z"/><g class="cls-4"><path class="cls-2" d="M466.79,780.1a.5.5,0,0,1-.5-.5v-2a.5.5,0,0,1,.5-.5h0a.5.5,0,0,1,.5.5v2A.5.5,0,0,1,466.79,780.1Z"/><path class="cls-2" d="M466.79,774.12h0a.5.5,0,0,1-.5-.5v-4a.51.51,0,0,1,.5-.49h0a.49.49,0,0,1,.49.5v4A.51.51,0,0,1,466.79,774.12Zm-117.62-.27a.5.5,0,0,1-.5-.5v-4a.5.5,0,0,1,.5-.5h0a.49.49,0,0,1,.5.49v4a.5.5,0,0,1-.5.5Zm117.63-7.7h0a.5.5,0,0,1-.5-.5l0-4a.5.5,0,0,1,.5-.5h0a.51.51,0,0,1,.5.5l0,4A.49.49,0,0,1,466.8,766.15Zm-117.65-.27a.5.5,0,0,1-.5-.5v-4a.5.5,0,0,1,.5-.5h0a.5.5,0,0,1,.5.5v4a.49.49,0,0,1-.49.5Zm117.68-7.69h0a.5.5,0,0,1-.5-.5l0-4a.5.5,0,0,1,.5-.5h0a.5.5,0,0,1,.5.5l0,4A.5.5,0,0,1,466.83,758.19Zm-117.7-.27a.5.5,0,0,1-.5-.5l0-4a.49.49,0,0,1,.49-.5h0a.51.51,0,0,1,.5.5l0,4a.5.5,0,0,1-.5.5Zm117.74-7.69h0a.5.5,0,0,1-.5-.5l0-4a.5.5,0,0,1,.5-.49h0a.5.5,0,0,1,.5.5l0,4A.5.5,0,0,1,466.87,750.23ZM349.08,750a.51.51,0,0,1-.5-.5l0-4a.49.49,0,0,1,.49-.5h0a.51.51,0,0,1,.5.49l0,4a.49.49,0,0,1-.49.5Zm117.85-7.69h0a.5.5,0,0,1-.5-.51l0-4a.52.52,0,0,1,.51-.49.49.49,0,0,1,.49.5l0,4A.5.5,0,0,1,466.93,742.27ZM349,742a.5.5,0,0,1-.5-.5l0-4a.5.5,0,0,1,.5-.5.49.49,0,0,1,.5.49l0,4a.51.51,0,0,1-.5.51Zm118-7.7h0a.5.5,0,0,1-.5-.5l0-4a.51.51,0,0,1,.5-.5h0a.5.5,0,0,1,.49.51l0,4A.5.5,0,0,1,467,734.3ZM349,734a.5.5,0,0,1-.5-.5l0-4a.51.51,0,0,1,.5-.51.5.5,0,0,1,.5.5l0,4a.51.51,0,0,1-.5.51Zm118.13-7.7h0a.5.5,0,0,1-.49-.5l.05-4a.5.5,0,0,1,.5-.5h0a.51.51,0,0,1,.5.51l-.05,4A.5.5,0,0,1,467.09,726.34Zm-118.22-.27a.49.49,0,0,1-.5-.49l-.05-4a.49.49,0,0,1,.49-.51h0a.51.51,0,0,1,.5.49l.05,4a.5.5,0,0,1-.5.5Zm118.32-7.69h0a.5.5,0,0,1-.49-.51l.06-4a.5.5,0,1,1,1,0l-.06,4A.5.5,0,0,1,467.19,718.38Zm-118.43-.27a.51.51,0,0,1-.5-.49l-.06-4a.5.5,0,0,1,.5-.51h0a.49.49,0,0,1,.5.49l.06,4a.49.49,0,0,1-.49.51Zm118.55-7.69h0a.51.51,0,0,1-.49-.51l.07-4a.5.5,0,0,1,.51-.49.5.5,0,0,1,.49.51l-.07,4A.49.49,0,0,1,467.31,710.42Zm-118.67-.27a.51.51,0,0,1-.5-.49l-.07-4a.5.5,0,0,1,.5-.51.49.49,0,0,1,.5.49l.07,4a.5.5,0,0,1-.49.51Zm118.81-7.69h0A.51.51,0,0,1,467,702l.08-4a.5.5,0,0,1,.5-.49h0a.5.5,0,0,1,.49.51l-.08,4A.5.5,0,0,1,467.45,702.46Zm-118.95-.27a.51.51,0,0,1-.5-.49l-.08-4a.5.5,0,1,1,1,0l.08,4a.5.5,0,0,1-.49.51Zm119.11-7.69h0a.51.51,0,0,1-.49-.51l.09-4a.49.49,0,0,1,.51-.48.5.5,0,0,1,.49.51l-.09,4A.5.5,0,0,1,467.61,694.5Zm-119.27-.27a.51.51,0,0,1-.5-.49l-.09-4a.5.5,0,0,1,.49-.51.46.46,0,0,1,.51.49l.09,4a.5.5,0,0,1-.49.51Zm119.45-7.69h0a.5.5,0,0,1-.49-.51l.1-4a.5.5,0,0,1,1,0l-.1,4A.51.51,0,0,1,467.79,686.54Zm-119.63-.27a.51.51,0,0,1-.5-.49l-.1-4a.5.5,0,0,1,.49-.51.51.51,0,0,1,.51.48l.1,4a.5.5,0,0,1-.49.52ZM468,678.58h0a.5.5,0,0,1-.49-.52l.11-4a.46.46,0,0,1,.52-.48.5.5,0,0,1,.48.51l-.11,4A.51.51,0,0,1,468,678.58Zm-120-.27a.51.51,0,0,1-.5-.49l-.11-4a.5.5,0,0,1,.49-.51.52.52,0,0,1,.51.48l.11,4a.5.5,0,0,1-.49.52Zm120.26-7.69h0a.5.5,0,0,1-.48-.52l.12-4a.49.49,0,0,1,.51-.48.5.5,0,0,1,.49.51l-.12,4A.51.51,0,0,1,468.22,670.62Zm-120.49-.27a.51.51,0,0,1-.5-.49l-.12-4a.5.5,0,0,1,1,0l.12,4a.5.5,0,0,1-.48.52Zm120.73-7.69h0a.51.51,0,0,1-.49-.52l.14-4a.52.52,0,0,1,.51-.48.5.5,0,0,1,.49.52l-.14,4A.5.5,0,0,1,468.46,662.66Zm-121-.27a.5.5,0,0,1-.5-.48l-.14-4a.5.5,0,0,1,.48-.52.52.52,0,0,1,.52.48l.14,4a.51.51,0,0,1-.49.52Zm121.25-7.69h0a.5.5,0,0,1-.48-.52l.15-4a.49.49,0,0,1,.51-.49.5.5,0,0,1,.48.52l-.14,4A.5.5,0,0,1,468.74,654.7Zm-121.53-.27a.5.5,0,0,1-.5-.48l-.15-4a.51.51,0,0,1,.48-.52.52.52,0,0,1,.52.49l.15,4a.5.5,0,0,1-.48.52ZM469,646.75h0a.51.51,0,0,1-.48-.52l.16-4a.54.54,0,0,1,.52-.48.5.5,0,0,1,.48.52l-.16,4A.5.5,0,0,1,469,646.75Zm-122.13-.28a.5.5,0,0,1-.5-.48l-.16-4a.5.5,0,0,1,.48-.52.53.53,0,0,1,.52.48l.16,4a.5.5,0,0,1-.48.51Zm122.46-7.68h0a.5.5,0,0,1-.48-.52l.18-4a.5.5,0,0,1,.52-.48.5.5,0,0,1,.47.53l-.17,4A.5.5,0,0,1,469.37,638.79Zm-122.79-.27a.5.5,0,0,1-.5-.48l-.18-4a.51.51,0,0,1,.48-.53.5.5,0,0,1,.52.48l.18,4a.5.5,0,0,1-.48.52Zm123.15-7.68h0a.5.5,0,0,1-.48-.52l.19-4a.48.48,0,0,1,.53-.48.5.5,0,0,1,.47.52l-.19,4A.5.5,0,0,1,469.73,630.84Zm-123.51-.27a.5.5,0,0,1-.5-.48l-.19-4a.49.49,0,0,1,.47-.52.48.48,0,0,1,.52.48l.2,4a.5.5,0,0,1-.48.52Zm123.9-7.69h0a.5.5,0,0,1-.48-.52l.21-4a.49.49,0,0,1,.53-.47.5.5,0,0,1,.47.52l-.21,4A.49.49,0,0,1,470.12,622.88Zm-124.3-.27a.5.5,0,0,1-.5-.47l-.2-4a.5.5,0,0,1,.47-.53.49.49,0,0,1,.52.47l.21,4a.49.49,0,0,1-.47.52Zm124.73-7.68h0a.49.49,0,0,1-.47-.52l.22-4a.5.5,0,0,1,.53-.47.5.5,0,0,1,.47.53l-.22,4A.5.5,0,0,1,470.55,614.93Zm-125.15-.27a.49.49,0,0,1-.5-.47l-.23-4a.51.51,0,0,1,.47-.53.5.5,0,0,1,.53.47l.23,4a.5.5,0,0,1-.47.53ZM471,607h0a.49.49,0,0,1-.47-.52l.24-4a.51.51,0,0,1,.53-.47.5.5,0,0,1,.47.53l-.24,4A.51.51,0,0,1,471,607Zm-126.08-.27a.49.49,0,0,1-.49-.47c-.08-1.34-.17-2.66-.25-4a.5.5,0,1,1,1-.06c.08,1.32.16,2.64.24,4a.49.49,0,0,1-.46.52ZM471.51,599h0a.5.5,0,0,1-.46-.53l.26-4a.5.5,0,0,1,1,.07l-.27,4A.49.49,0,0,1,471.51,599Zm-127.08-.27a.49.49,0,0,1-.49-.47l-.27-4a.5.5,0,0,1,.47-.53.49.49,0,0,1,.53.46c.09,1.32.18,2.65.26,4a.5.5,0,0,1-.46.53Zm127.62-7.68h0a.49.49,0,0,1-.46-.53c.09-1.33.18-2.66.28-4a.5.5,0,1,1,1,.07c-.1,1.32-.19,2.64-.29,4A.49.49,0,0,1,472.05,591.09Zm-128.15-.26a.5.5,0,0,1-.5-.47c-.1-1.33-.19-2.65-.29-4a.5.5,0,0,1,.46-.53.49.49,0,0,1,.54.46c.1,1.32.19,2.64.28,4a.49.49,0,0,1-.46.53Zm128.72-7.67h0a.49.49,0,0,1-.46-.53c.1-1.33.2-2.66.3-4a.5.5,0,0,1,1,.08c-.1,1.31-.21,2.63-.31,4A.5.5,0,0,1,472.62,583.16Zm-129.31-.27a.49.49,0,0,1-.49-.47c-.11-1.33-.21-2.65-.31-4a.5.5,0,1,1,1-.08c.1,1.31.2,2.64.3,4a.49.49,0,0,1-.46.53Zm129.94-7.67h0a.51.51,0,0,1-.46-.54c.11-1.33.22-2.66.33-4a.52.52,0,0,1,.54-.46.5.5,0,0,1,.45.54c-.11,1.32-.21,2.64-.32,4A.5.5,0,0,1,473.25,575.22ZM342.69,575a.5.5,0,0,1-.5-.46l-.33-4a.51.51,0,0,1,.46-.54.52.52,0,0,1,.54.46c.11,1.31.22,2.64.33,4a.52.52,0,0,1-.46.54Zm131.23-7.67h-.05a.5.5,0,0,1-.45-.54c.12-1.33.23-2.65.35-4a.52.52,0,0,1,.54-.45.51.51,0,0,1,.46.54c-.12,1.32-.24,2.64-.35,4A.51.51,0,0,1,473.92,567.28ZM342,567a.5.5,0,0,1-.5-.46c-.12-1.33-.23-2.65-.35-4a.5.5,0,0,1,.45-.55.52.52,0,0,1,.54.46l.36,4a.5.5,0,0,1-.46.54Zm132.61-7.66h0a.49.49,0,0,1-.45-.54c.12-1.33.25-2.65.37-4a.5.5,0,0,1,1,.1c-.13,1.31-.25,2.63-.38,4A.5.5,0,0,1,474.63,559.36Zm-133.33-.27a.51.51,0,0,1-.5-.46c-.12-1.32-.25-2.64-.38-4a.5.5,0,1,1,1-.09c.13,1.31.25,2.63.38,4a.5.5,0,0,1-.45.54Zm134.1-7.66h0a.51.51,0,0,1-.45-.55c.14-1.33.27-2.65.41-4a.5.5,0,1,1,1,.1c-.13,1.31-.27,2.63-.4,4A.5.5,0,0,1,475.4,551.43Zm-134.87-.27a.51.51,0,0,1-.5-.45c-.13-1.32-.26-2.64-.4-4a.5.5,0,0,1,.45-.55.49.49,0,0,1,.54.45c.14,1.31.28,2.63.41,4a.5.5,0,0,1-.45.55Zm135.69-7.65h-.05a.5.5,0,0,1-.45-.55c.14-1.33.29-2.65.43-4a.5.5,0,0,1,.55-.44.5.5,0,0,1,.45.55c-.15,1.31-.29,2.63-.43,3.95A.51.51,0,0,1,476.22,543.51Zm-136.51-.27a.51.51,0,0,1-.5-.44c-.14-1.33-.28-2.65-.43-4a.5.5,0,0,1,1-.11c.14,1.31.29,2.63.43,4a.5.5,0,0,1-.45.55Zm137.38-7.64h0a.48.48,0,0,1-.44-.55l.45-4a.5.5,0,0,1,.56-.43.5.5,0,0,1,.44.55c-.16,1.31-.31,2.63-.46,3.95A.51.51,0,0,1,477.09,535.6Zm-138.25-.27a.5.5,0,0,1-.5-.44c-.15-1.33-.3-2.65-.46-4a.5.5,0,0,1,1-.11l.45,3.95a.5.5,0,0,1-.44.56ZM478,527.69H478a.52.52,0,0,1-.44-.56l.15-1.19c.11-.93.22-1.85.32-2.76a.49.49,0,0,1,.55-.44.5.5,0,0,1,.44.55c-.1.92-.21,1.84-.32,2.77l-.14,1.19A.51.51,0,0,1,478,527.69Zm-140.11-.27a.5.5,0,0,1-.5-.44l-.11-.92c-.13-1-.24-2-.35-3a.5.5,0,1,1,1-.11c.11,1,.23,2,.35,3l.11.92a.49.49,0,0,1-.43.56Zm141-7.65h0a.49.49,0,0,1-.45-.54c.11-1.33.22-2.65.3-4a.5.5,0,1,1,1,.06c-.09,1.32-.19,2.65-.31,4A.5.5,0,0,1,478.87,519.77Zm-141.81-.26a.52.52,0,0,1-.5-.46c-.11-1.34-.21-2.67-.3-4a.5.5,0,0,1,.47-.53.51.51,0,0,1,.53.46q.12,2,.3,4a.5.5,0,0,1-.45.54Zm142.35-7.68h0a.49.49,0,0,1-.47-.52c.06-1.33.1-2.65.13-4a.5.5,0,0,1,.5-.48h0a.49.49,0,0,1,.49.51c0,1.31-.07,2.64-.13,4A.51.51,0,0,1,479.41,511.83Zm-142.87-.27a.5.5,0,0,1-.5-.48c-.06-1.34-.1-2.67-.13-4a.5.5,0,1,1,1,0c0,1.31.07,2.63.13,4a.5.5,0,0,1-.48.52Zm143-7.7a.5.5,0,0,1-.5-.49c0-1.34,0-2.66-.06-4a.5.5,0,0,1,.49-.52.47.47,0,0,1,.51.49q.06,2,.06,4a.5.5,0,0,1-.5.5Zm-143.2-.26h0a.5.5,0,0,1-.5-.5c0-1.35,0-2.68.06-4a.5.5,0,0,1,.52-.49.5.5,0,0,1,.48.52c0,1.3-.06,2.63-.06,4A.5.5,0,0,1,336.38,503.6Zm143-7.69a.5.5,0,0,1-.5-.48c-.07-1.33-.17-2.65-.27-3.95a.5.5,0,1,1,1-.09c.11,1.32.2,2.65.28,4a.51.51,0,0,1-.47.53Zm-142.74-.27h0a.49.49,0,0,1-.47-.52c.07-1.35.17-2.68.28-4a.5.5,0,0,1,1,.09c-.12,1.3-.21,2.62-.29,3.95A.49.49,0,0,1,336.62,495.64ZM478.69,488a.5.5,0,0,1-.5-.44q-.22-2-.51-3.93a.5.5,0,1,1,1-.14c.19,1.3.36,2.62.52,4a.5.5,0,0,1-.44.55Zm-141.39-.26h-.06a.5.5,0,0,1-.44-.55c.16-1.34.33-2.66.53-4a.5.5,0,0,1,.57-.42.51.51,0,0,1,.42.57c-.2,1.29-.37,2.6-.53,3.93A.49.49,0,0,1,337.3,487.71Zm140.23-7.61a.49.49,0,0,1-.49-.41c-.24-1.32-.51-2.62-.78-3.88a.5.5,0,0,1,.38-.6.49.49,0,0,1,.59.38c.28,1.27.55,2.59.79,3.92a.5.5,0,0,1-.4.58Zm-139-.26h-.09a.49.49,0,0,1-.4-.58c.24-1.32.51-2.64.79-3.92a.51.51,0,0,1,.6-.38.5.5,0,0,1,.38.6c-.28,1.27-.55,2.58-.79,3.88A.51.51,0,0,1,338.48,479.84Zm137.34-7.51a.5.5,0,0,1-.49-.37c-.33-1.29-.7-2.58-1.08-3.81a.5.5,0,0,1,1-.3c.38,1.26.75,2.55,1.09,3.85a.5.5,0,0,1-.36.61Zm-135.61-.25-.13,0a.5.5,0,0,1-.35-.61c.34-1.29.71-2.59,1.1-3.85a.5.5,0,0,1,.62-.33.51.51,0,0,1,.33.63c-.38,1.25-.75,2.53-1.09,3.8A.5.5,0,0,1,340.21,472.08Zm133.28-7.36a.5.5,0,0,1-.47-.33c-.44-1.25-.92-2.49-1.41-3.7a.5.5,0,0,1,.93-.38c.5,1.22,1,2.48,1.42,3.74a.5.5,0,0,1-.3.64Zm-130.93-.25a.51.51,0,0,1-.17,0,.49.49,0,0,1-.3-.64c.45-1.26.93-2.52,1.43-3.73a.5.5,0,1,1,.92.38c-.49,1.2-1,2.44-1.41,3.69A.51.51,0,0,1,342.56,464.47Zm127.93-7.12a.5.5,0,0,1-.46-.29c-.55-1.19-1.14-2.38-1.75-3.54a.49.49,0,0,1,.2-.67.5.5,0,0,1,.68.2c.62,1.17,1.22,2.38,1.78,3.59a.5.5,0,0,1-.24.67A.52.52,0,0,1,470.49,457.35Zm-124.91-.24a.52.52,0,0,1-.21,0,.5.5,0,0,1-.24-.67c.57-1.21,1.17-2.42,1.79-3.58a.51.51,0,0,1,.68-.2.49.49,0,0,1,.21.67c-.62,1.15-1.21,2.34-1.77,3.54A.51.51,0,0,1,345.58,457.11Zm121.18-6.78a.5.5,0,0,1-.43-.25c-.68-1.13-1.4-2.24-2.13-3.32a.5.5,0,0,1,.82-.56c.75,1.09,1.48,2.22,2.17,3.37a.51.51,0,0,1-.17.69A.59.59,0,0,1,466.76,450.33Zm-117.42-.23a.48.48,0,0,1-.26-.07.5.5,0,0,1-.17-.69c.7-1.15,1.43-2.28,2.18-3.36a.5.5,0,0,1,.82.56c-.74,1.07-1.46,2.19-2.15,3.32A.49.49,0,0,1,349.34,450.1Zm112.93-6.34a.5.5,0,0,1-.4-.19c-.8-1-1.65-2.06-2.51-3a.51.51,0,0,1,0-.71.51.51,0,0,1,.71.05c.88,1,1.74,2,2.55,3.09a.5.5,0,0,1-.09.7A.47.47,0,0,1,462.27,443.76Zm-108.42-.2a.5.5,0,0,1-.3-.11.5.5,0,0,1-.09-.7c.82-1.06,1.69-2.09,2.57-3.08a.5.5,0,1,1,.74.66c-.86,1-1.71,2-2.52,3A.53.53,0,0,1,353.85,443.56ZM457,437.8a.47.47,0,0,1-.35-.15c-.94-.93-1.91-1.83-2.89-2.69a.5.5,0,0,1,.66-.76c1,.88,2,1.8,2.93,2.75a.48.48,0,0,1,0,.7A.47.47,0,0,1,457,437.8Zm-97.87-.19a.54.54,0,0,1-.36-.14.5.5,0,0,1,0-.71c.94-.94,1.93-1.85,2.94-2.73a.49.49,0,0,1,.7.05.51.51,0,0,1-.05.71c-1,.86-2,1.76-2.89,2.68A.49.49,0,0,1,359.14,437.61ZM451,432.56a.47.47,0,0,1-.3-.1c-1-.79-2.11-1.56-3.21-2.29a.5.5,0,0,1-.14-.69.49.49,0,0,1,.69-.14c1.12.74,2.21,1.52,3.26,2.32a.51.51,0,0,1,.1.71A.53.53,0,0,1,451,432.56Zm-85.88-.15a.51.51,0,0,1-.4-.2.5.5,0,0,1,.1-.7c1.06-.8,2.16-1.58,3.27-2.31a.5.5,0,1,1,.55.83c-1.09.72-2.17,1.49-3.22,2.28A.47.47,0,0,1,365.14,432.41Zm79.26-4.24a.59.59,0,0,1-.25-.07c-1.12-.64-2.29-1.27-3.48-1.85a.5.5,0,1,1,.44-.9c1.2.59,2.4,1.23,3.54,1.88a.51.51,0,0,1,.19.68A.51.51,0,0,1,444.4,428.17ZM371.79,428a.51.51,0,0,1-.44-.26.5.5,0,0,1,.19-.68c1.15-.65,2.34-1.28,3.55-1.86a.5.5,0,0,1,.67.23.51.51,0,0,1-.23.67c-1.19.57-2.37,1.19-3.5,1.83A.51.51,0,0,1,371.79,428Zm65.47-3.38a.63.63,0,0,1-.19,0c-1.2-.5-2.44-1-3.69-1.4a.5.5,0,1,1,.33-1c1.26.44,2.53.92,3.74,1.42a.5.5,0,0,1,.27.66A.48.48,0,0,1,437.26,424.66Zm-58.32-.09a.51.51,0,0,1-.19-1c1.22-.5,2.49-1,3.75-1.4a.5.5,0,1,1,.33.95c-1.25.42-2.5.88-3.7,1.38A.65.65,0,0,1,378.94,424.57Zm50.81-2.5a.34.34,0,0,1-.14,0c-1.26-.35-2.55-.67-3.83-.95a.5.5,0,0,1-.38-.6.5.5,0,0,1,.59-.38c1.3.29,2.61.61,3.89,1a.51.51,0,0,1,.35.62A.5.5,0,0,1,429.75,422.07ZM386.47,422a.5.5,0,0,1-.14-1c1.28-.35,2.59-.67,3.89-1a.51.51,0,0,1,.6.39.49.49,0,0,1-.38.59c-1.29.28-2.58.6-3.84.95ZM422,420.35h-.08c-1.28-.21-2.59-.4-3.92-.55a.5.5,0,0,1-.44-.55.51.51,0,0,1,.56-.44c1.34.15,2.67.34,4,.55a.5.5,0,0,1,.41.58A.49.49,0,0,1,422,420.35Zm-27.74,0a.5.5,0,0,1-.08-1c1.3-.21,2.63-.4,4-.54a.5.5,0,0,1,.11,1c-1.32.15-2.64.33-3.92.53Zm19.84-.87h0c-1.3-.09-2.63-.15-4-.18a.5.5,0,0,1-.49-.51.51.51,0,0,1,.5-.49h0c1.34,0,2.68.1,4,.18a.51.51,0,0,1,.47.54A.5.5,0,0,1,414.08,419.44Zm-11.94,0a.5.5,0,0,1,0-1c1.31-.09,2.66-.14,4-.17a.48.48,0,0,1,.51.49.5.5,0,0,1-.49.51c-1.33,0-2.66.08-3.95.17Z"/><path class="cls-2" d="M349.17,780.1a.5.5,0,0,1-.5-.5v-2a.5.5,0,0,1,.5-.5h0a.5.5,0,0,1,.5.5v2A.5.5,0,0,1,349.17,780.1Z"/><path class="cls-2" d="M498,525.86h-4a.5.5,0,0,1-.5-.5.51.51,0,0,1,.5-.5h4a.5.5,0,0,1,.5.5A.5.5,0,0,1,498,525.86Zm-8,0h-4a.5.5,0,0,1-.5-.5.51.51,0,0,1,.5-.5h4a.5.5,0,0,1,.5.5A.5.5,0,0,1,490,525.86Zm-8,0h-4a.5.5,0,0,1-.5-.5.51.51,0,0,1,.5-.5h4a.5.5,0,0,1,.5.5A.5.5,0,0,1,482,525.86Zm-8,0h-4a.5.5,0,0,1-.5-.5.51.51,0,0,1,.5-.5h4a.5.5,0,0,1,.5.5A.5.5,0,0,1,474,525.86Zm-8,0h-4a.5.5,0,0,1-.5-.5.51.51,0,0,1,.5-.5h4a.5.5,0,0,1,.5.5A.5.5,0,0,1,466,525.86Zm-8,0h-4a.5.5,0,0,1-.5-.5.51.51,0,0,1,.5-.5h4a.5.5,0,0,1,.5.5A.5.5,0,0,1,458,525.86Zm-8,0h-4a.5.5,0,0,1-.5-.5.51.51,0,0,1,.5-.5h4a.5.5,0,0,1,.5.5A.5.5,0,0,1,450,525.86Zm-8,0h-4a.5.5,0,0,1-.5-.5.51.51,0,0,1,.5-.5h4a.5.5,0,0,1,.5.5A.5.5,0,0,1,442,525.86Zm-8,0h-4a.5.5,0,0,1-.5-.5.51.51,0,0,1,.5-.5h4a.5.5,0,0,1,.5.5A.5.5,0,0,1,434,525.86Zm-8,0h-4a.5.5,0,0,1-.5-.5.51.51,0,0,1,.5-.5h4a.5.5,0,0,1,.5.5A.5.5,0,0,1,426,525.86Zm-8,0h-4a.5.5,0,0,1-.5-.5.51.51,0,0,1,.5-.5h4a.5.5,0,0,1,.5.5A.5.5,0,0,1,418,525.86Zm-8,0h-4a.5.5,0,0,1-.5-.5.51.51,0,0,1,.5-.5h4a.5.5,0,0,1,.5.5A.5.5,0,0,1,410,525.86Zm-8,0h-4a.5.5,0,0,1-.5-.5.51.51,0,0,1,.5-.5h4a.5.5,0,0,1,.5.5A.5.5,0,0,1,402,525.86Zm-8,0h-4a.5.5,0,0,1-.5-.5.51.51,0,0,1,.5-.5h4a.5.5,0,0,1,.5.5A.5.5,0,0,1,394,525.86Zm-8,0h-4a.5.5,0,0,1-.5-.5.51.51,0,0,1,.5-.5h4a.5.5,0,0,1,.5.5A.5.5,0,0,1,386,525.86Zm-8,0h-4a.5.5,0,0,1-.5-.5.51.51,0,0,1,.5-.5h4a.5.5,0,0,1,.5.5A.5.5,0,0,1,378,525.86Zm-8,0h-4a.5.5,0,0,1-.5-.5.51.51,0,0,1,.5-.5h4a.5.5,0,0,1,.5.5A.5.5,0,0,1,370,525.86Zm-8,0h-4a.5.5,0,0,1-.5-.5.51.51,0,0,1,.5-.5h4a.5.5,0,0,1,.5.5A.5.5,0,0,1,362,525.86Zm-8,0h-4a.5.5,0,0,1-.5-.5.51.51,0,0,1,.5-.5h4a.5.5,0,0,1,.5.5A.5.5,0,0,1,354,525.86Zm-8,0h-4a.5.5,0,0,1-.5-.5.51.51,0,0,1,.5-.5h4a.5.5,0,0,1,.5.5A.5.5,0,0,1,346,525.86Zm-8,0h-4a.5.5,0,0,1-.5-.5.51.51,0,0,1,.5-.5h4a.5.5,0,0,1,.5.5A.5.5,0,0,1,338,525.86Zm-8,0h-4a.5.5,0,0,1-.5-.5.51.51,0,0,1,.5-.5h4a.5.5,0,0,1,.5.5A.5.5,0,0,1,330,525.86Zm-8,0h-4a.5.5,0,0,1-.5-.5.51.51,0,0,1,.5-.5h4a.5.5,0,0,1,.5.5A.5.5,0,0,1,322,525.86Z"/><path class="cls-2" d="M498,774.28h-4a.5.5,0,0,1,0-1h4a.5.5,0,0,1,0,1Zm-8,0h-4a.5.5,0,0,1,0-1h4a.5.5,0,0,1,0,1Zm-8,0h-4a.5.5,0,0,1,0-1h4a.5.5,0,0,1,0,1Zm-8,0h-4a.5.5,0,0,1,0-1h4a.5.5,0,0,1,0,1Zm-8,0h-4a.5.5,0,0,1,0-1h4a.5.5,0,0,1,0,1Zm-8,0h-4a.5.5,0,0,1,0-1h4a.5.5,0,0,1,0,1Zm-8,0h-4a.5.5,0,0,1,0-1h4a.5.5,0,0,1,0,1Zm-8,0h-4a.5.5,0,0,1,0-1h4a.5.5,0,0,1,0,1Zm-8,0h-4a.5.5,0,0,1,0-1h4a.5.5,0,0,1,0,1Zm-8,0h-4a.5.5,0,0,1,0-1h4a.5.5,0,0,1,0,1Zm-8,0h-4a.5.5,0,0,1,0-1h4a.5.5,0,0,1,0,1Zm-8,0h-4a.5.5,0,0,1,0-1h4a.5.5,0,0,1,0,1Zm-8,0h-4a.5.5,0,0,1,0-1h4a.5.5,0,0,1,0,1Zm-8,0h-4a.5.5,0,0,1,0-1h4a.5.5,0,0,1,0,1Zm-8,0h-4a.5.5,0,0,1,0-1h4a.5.5,0,0,1,0,1Zm-8,0h-4a.5.5,0,0,1,0-1h4a.5.5,0,0,1,0,1Zm-8,0h-4a.5.5,0,0,1,0-1h4a.5.5,0,0,1,0,1Zm-8,0h-4a.5.5,0,0,1,0-1h4a.5.5,0,0,1,0,1Zm-8,0h-4a.5.5,0,0,1,0-1h4a.5.5,0,0,1,0,1Zm-8,0h-4a.5.5,0,0,1,0-1h4a.5.5,0,0,1,0,1Zm-8,0h-4a.5.5,0,0,1,0-1h4a.5.5,0,0,1,0,1Zm-8,0h-4a.5.5,0,0,1,0-1h4a.5.5,0,0,1,0,1Zm-8,0h-4a.5.5,0,0,1,0-1h4a.5.5,0,0,1,0,1Z"/><path class="cls-2" d="M407.58,1114.48c-22.73,0-41.9-8.07-55.44-23.33-17.84-20.11-24.86-50.87-20.3-89,7.7-64.25,14.08-125.79,14.08-228.4v-2.73c0-132.22-5.05-172.5-11.44-223.5-.86-6.85-1.74-13.88-2.64-21.34-3.45-28.86-3.6-58.61-.4-83.77,4.1-32.36,13.38-56.88,27.58-72.88,12.61-14.21,28.94-21.41,48.56-21.41s36,7.2,48.56,21.41c14.2,16,23.48,40.52,27.59,72.88,3.19,25.16,3,54.91-.41,83.77-.89,7.46-1.77,14.5-2.63,21.35-6.39,51-11.44,91.27-11.44,223.49v2.73c0,102.6,6.37,164.14,14.07,228.4,4.57,38.1-2.45,68.86-20.3,89C449.48,1106.41,430.31,1114.48,407.58,1114.48Zm0-760.33c-17.83,0-32.65,6.52-44.07,19.39-28.53,32.15-32,99.58-25.71,152,.89,7.45,1.77,14.47,2.63,21.31,6.42,51.2,11.49,91.64,11.49,224.24v2.73c0,102.94-6.4,164.67-14.12,229.11-4.35,36.35,2.16,65.49,18.83,84.28,12.37,13.94,30,21.31,50.95,21.31s38.59-7.37,50.95-21.31c16.68-18.79,23.19-47.93,18.83-84.28-7.72-64.45-14.11-126.17-14.11-229.11v-2.73c0-132.59,5.07-173,11.48-224.24.86-6.84,1.74-13.86,2.63-21.31,6.28-52.38,2.82-119.81-25.7-152C440.24,360.67,425.41,354.15,407.58,354.15Z"/><path class="cls-2" d="M407.58,711.52a.51.51,0,0,1-.5-.5V576a.5.5,0,0,1,.5-.5.5.5,0,0,1,.5.5V711A.5.5,0,0,1,407.58,711.52Z"/><path class="cls-2" d="M410.07,719.36h-5v-8.84h5Zm-4-1h3v-6.84h-3Z"/><path class="cls-2" d="M411.56,654.87h-8a.5.5,0,0,1-.5-.5.51.51,0,0,1,.5-.5h8a.5.5,0,0,1,.5.5A.5.5,0,0,1,411.56,654.87Z"/><path class="cls-2" d="M411.56,645.78h-8a.5.5,0,0,1,0-1h8a.5.5,0,0,1,0,1Z"/><path class="cls-2" d="M411.56,636.68h-8a.5.5,0,0,1-.5-.5.51.51,0,0,1,.5-.5h8a.5.5,0,0,1,.5.5A.5.5,0,0,1,411.56,636.68Z"/><path class="cls-2" d="M411.56,627.59h-8a.51.51,0,0,1-.5-.5.5.5,0,0,1,.5-.5h8a.5.5,0,0,1,.5.5A.5.5,0,0,1,411.56,627.59Z"/><path class="cls-2" d="M411.56,618.49h-8a.5.5,0,0,1,0-1h8a.5.5,0,0,1,0,1Z"/><path class="cls-2" d="M411.56,609.39h-8a.5.5,0,0,1-.5-.5.51.51,0,0,1,.5-.5h8a.5.5,0,0,1,.5.5A.5.5,0,0,1,411.56,609.39Z"/></g><path class="cls-2" d="M456.72,629.31c-16.77,0-32.81-2.7-48.53-5.34-28.57-4.81-55.56-9.35-85.87,1a.5.5,0,1,1-.32-.94c30.54-10.47,58.91-5.7,86.35-1.08,26.81,4.51,54.52,9.18,85.15.28a.49.49,0,0,1,.62.34.5.5,0,0,1-.34.62A131.44,131.44,0,0,1,456.72,629.31Z"/><path class="cls-2" d="M711.17,325.32a.5.5,0,0,1-.5-.5v-4a.5.5,0,0,1,.5-.5.5.5,0,0,1,.5.5v4A.51.51,0,0,1,711.17,325.32Zm0-8a.5.5,0,0,1-.5-.5v-4a.5.5,0,0,1,.5-.5.5.5,0,0,1,.5.5v4A.51.51,0,0,1,711.17,317.32Zm0-8a.5.5,0,0,1-.5-.5v-4a.5.5,0,0,1,.5-.5.5.5,0,0,1,.5.5v4A.51.51,0,0,1,711.17,309.32Zm0-8a.5.5,0,0,1-.5-.5v-4a.5.5,0,0,1,.5-.5.5.5,0,0,1,.5.5v4A.51.51,0,0,1,711.17,301.32Zm0-8a.5.5,0,0,1-.5-.5v-4a.5.5,0,0,1,.5-.5.5.5,0,0,1,.5.5v4A.51.51,0,0,1,711.17,293.32Zm0-8a.5.5,0,0,1-.5-.5v-4a.5.5,0,0,1,.5-.5.5.5,0,0,1,.5.5v4A.51.51,0,0,1,711.17,285.32Zm0-8a.5.5,0,0,1-.5-.5v-4a.5.5,0,0,1,.5-.5.5.5,0,0,1,.5.5v4A.51.51,0,0,1,711.17,277.32Zm0-8a.5.5,0,0,1-.5-.5v-4a.5.5,0,0,1,.5-.5.5.5,0,0,1,.5.5v4A.51.51,0,0,1,711.17,269.32Zm0-8a.5.5,0,0,1-.5-.5v-4a.5.5,0,0,1,.5-.5.5.5,0,0,1,.5.5v4A.51.51,0,0,1,711.17,261.32Zm0-8a.5.5,0,0,1-.5-.5v-4a.5.5,0,0,1,.5-.5.5.5,0,0,1,.5.5v4A.51.51,0,0,1,711.17,253.32Zm0-8a.5.5,0,0,1-.5-.5v-4a.5.5,0,0,1,.5-.5.5.5,0,0,1,.5.5v4A.51.51,0,0,1,711.17,245.32Zm0-8a.5.5,0,0,1-.5-.5v-4a.5.5,0,0,1,.5-.5.5.5,0,0,1,.5.5v4A.51.51,0,0,1,711.17,237.32Zm0-8a.5.5,0,0,1-.5-.5v-4a.5.5,0,0,1,.5-.5.5.5,0,0,1,.5.5v4A.51.51,0,0,1,711.17,229.32Zm0-8a.5.5,0,0,1-.5-.5v-4a.5.5,0,0,1,.5-.5.5.5,0,0,1,.5.5v4A.51.51,0,0,1,711.17,221.32Zm0-8a.5.5,0,0,1-.5-.5v-4a.5.5,0,0,1,.5-.5.5.5,0,0,1,.5.5v4A.51.51,0,0,1,711.17,213.32Zm0-8a.5.5,0,0,1-.5-.5v-4a.5.5,0,0,1,.5-.5.5.5,0,0,1,.5.5v4A.51.51,0,0,1,711.17,205.32Zm0-8a.5.5,0,0,1-.5-.5v-4a.5.5,0,0,1,.5-.5.5.5,0,0,1,.5.5v4A.51.51,0,0,1,711.17,197.32Zm0-8a.5.5,0,0,1-.5-.5v-4a.5.5,0,0,1,.5-.5.5.5,0,0,1,.5.5v4A.51.51,0,0,1,711.17,189.32Z"/><path class="cls-2" d="M322.37,325.32a.5.5,0,0,1-.5-.5v-4a.5.5,0,0,1,1,0v4A.5.5,0,0,1,322.37,325.32Zm0-8a.5.5,0,0,1-.5-.5v-4a.5.5,0,0,1,1,0v4A.5.5,0,0,1,322.37,317.32Zm0-8a.5.5,0,0,1-.5-.5v-4a.5.5,0,0,1,1,0v4A.5.5,0,0,1,322.37,309.32Zm0-8a.5.5,0,0,1-.5-.5v-4a.5.5,0,0,1,1,0v4A.5.5,0,0,1,322.37,301.32Zm0-8a.5.5,0,0,1-.5-.5v-4a.5.5,0,0,1,1,0v4A.5.5,0,0,1,322.37,293.32Zm0-8a.5.5,0,0,1-.5-.5v-4a.5.5,0,0,1,1,0v4A.5.5,0,0,1,322.37,285.32Zm0-8a.5.5,0,0,1-.5-.5v-4a.5.5,0,0,1,1,0v4A.5.5,0,0,1,322.37,277.32Zm0-8a.5.5,0,0,1-.5-.5v-4a.5.5,0,0,1,1,0v4A.5.5,0,0,1,322.37,269.32Zm0-8a.5.5,0,0,1-.5-.5v-4a.5.5,0,0,1,1,0v4A.5.5,0,0,1,322.37,261.32Zm0-8a.5.5,0,0,1-.5-.5v-4a.5.5,0,0,1,1,0v4A.5.5,0,0,1,322.37,253.32Zm0-8a.5.5,0,0,1-.5-.5v-4a.5.5,0,0,1,1,0v4A.5.5,0,0,1,322.37,245.32Zm0-8a.5.5,0,0,1-.5-.5v-4a.5.5,0,0,1,1,0v4A.5.5,0,0,1,322.37,237.32Zm0-8a.5.5,0,0,1-.5-.5v-4a.5.5,0,0,1,1,0v4A.5.5,0,0,1,322.37,229.32Zm0-8a.5.5,0,0,1-.5-.5v-4a.5.5,0,0,1,1,0v4A.5.5,0,0,1,322.37,221.32Zm0-8a.5.5,0,0,1-.5-.5v-4a.5.5,0,0,1,1,0v4A.5.5,0,0,1,322.37,213.32Zm0-8a.5.5,0,0,1-.5-.5v-4a.5.5,0,0,1,1,0v4A.5.5,0,0,1,322.37,205.32Zm0-8a.5.5,0,0,1-.5-.5v-4a.5.5,0,0,1,1,0v4A.5.5,0,0,1,322.37,197.32Zm0-8a.5.5,0,0,1-.5-.5v-4a.5.5,0,0,1,1,0v4A.5.5,0,0,1,322.37,189.32Z"/><path class="cls-2" d="M516.77,325.32a.5.5,0,0,1-.5-.5v-4a.5.5,0,0,1,.5-.5.5.5,0,0,1,.5.5v4A.51.51,0,0,1,516.77,325.32Zm0-8a.5.5,0,0,1-.5-.5v-4a.5.5,0,0,1,.5-.5.5.5,0,0,1,.5.5v4A.51.51,0,0,1,516.77,317.32Zm0-8a.5.5,0,0,1-.5-.5v-4a.5.5,0,0,1,.5-.5.5.5,0,0,1,.5.5v4A.51.51,0,0,1,516.77,309.32Zm0-8a.5.5,0,0,1-.5-.5v-4a.5.5,0,0,1,.5-.5.5.5,0,0,1,.5.5v4A.51.51,0,0,1,516.77,301.32Zm0-8a.5.5,0,0,1-.5-.5v-4a.5.5,0,0,1,.5-.5.5.5,0,0,1,.5.5v4A.51.51,0,0,1,516.77,293.32Zm0-8a.5.5,0,0,1-.5-.5v-4a.5.5,0,0,1,.5-.5.5.5,0,0,1,.5.5v4A.51.51,0,0,1,516.77,285.32Zm0-8a.5.5,0,0,1-.5-.5v-4a.5.5,0,0,1,.5-.5.5.5,0,0,1,.5.5v4A.51.51,0,0,1,516.77,277.32Zm0-8a.5.5,0,0,1-.5-.5v-4a.5.5,0,0,1,.5-.5.5.5,0,0,1,.5.5v4A.51.51,0,0,1,516.77,269.32Zm0-8a.5.5,0,0,1-.5-.5v-4a.5.5,0,0,1,.5-.5.5.5,0,0,1,.5.5v4A.51.51,0,0,1,516.77,261.32Zm0-8a.5.5,0,0,1-.5-.5v-4a.5.5,0,0,1,.5-.5.5.5,0,0,1,.5.5v4A.51.51,0,0,1,516.77,253.32Zm0-8a.5.5,0,0,1-.5-.5v-4a.5.5,0,0,1,.5-.5.5.5,0,0,1,.5.5v4A.51.51,0,0,1,516.77,245.32Zm0-8a.5.5,0,0,1-.5-.5v-4a.5.5,0,0,1,.5-.5.5.5,0,0,1,.5.5v4A.51.51,0,0,1,516.77,237.32Zm0-8a.5.5,0,0,1-.5-.5v-4a.5.5,0,0,1,.5-.5.5.5,0,0,1,.5.5v4A.51.51,0,0,1,516.77,229.32Zm0-8a.5.5,0,0,1-.5-.5v-4a.5.5,0,0,1,.5-.5.5.5,0,0,1,.5.5v4A.51.51,0,0,1,516.77,221.32Zm0-8a.5.5,0,0,1-.5-.5v-4a.5.5,0,0,1,.5-.5.5.5,0,0,1,.5.5v4A.51.51,0,0,1,516.77,213.32Zm0-8a.5.5,0,0,1-.5-.5v-4a.5.5,0,0,1,.5-.5.5.5,0,0,1,.5.5v4A.51.51,0,0,1,516.77,205.32Zm0-8a.5.5,0,0,1-.5-.5v-4a.5.5,0,0,1,.5-.5.5.5,0,0,1,.5.5v4A.51.51,0,0,1,516.77,197.32Zm0-8a.5.5,0,0,1-.5-.5v-4a.5.5,0,0,1,.5-.5.5.5,0,0,1,.5.5v4A.51.51,0,0,1,516.77,189.32Z"/><path class="cls-2" d="M745.75,316.11A299.57,299.57,0,0,1,710.43,314c-5.85-.7-11.35-1.39-16.72-2.06-39.88-5-71.38-8.95-174.8-8.95h-2.14c-80.25,0-128.39,5-178.65,11-30,3.59-54.26-1.95-70.14-16-12.09-10.73-18.47-25.9-18.47-43.88s6.38-33.15,18.47-43.87c15.88-14.09,40.13-19.64,70.14-16,50.26,6,98.4,11,178.65,11h2.14c103.42,0,134.92-3.94,174.8-8.94,5.37-.67,10.87-1.36,16.72-2.06,22.63-2.71,46-2.83,65.71-.32,25.46,3.23,44.76,10.55,57.38,21.74,11.26,10,17,22.95,17,38.49s-5.71,28.5-17,38.49c-12.62,11.2-31.92,18.52-57.38,21.75A243.76,243.76,0,0,1,745.75,316.11ZM517.84,297h1.07c103.8,0,135.46,4,175.55,9,5.35.67,10.85,1.36,16.68,2.06,62.3,7.47,102-5.41,118.4-20,9.92-8.8,15-20.24,15-34s-5-25.19-15-34c-16.39-14.54-56.1-27.42-118.4-20l-.36-3,.36,3c-5.83.7-11.33,1.39-16.68,2.06-40.09,5-71.75,9-175.55,9h-2.14c-80.59,0-128.91-5-179.37-11-28.25-3.38-50.88,1.66-65.44,14.58-10.76,9.55-16.45,23.17-16.45,39.38s5.69,29.84,16.45,39.39c14.56,12.92,37.19,18,65.44,14.57,50.46-6,98.78-11,179.37-11Z"/><path class="cls-2" d="M469.79,254.57H364.1a.5.5,0,0,1-.5-.5.5.5,0,0,1,.5-.5H469.79a.5.5,0,0,1,.5.5A.5.5,0,0,1,469.79,254.57Z"/><path class="cls-2" d="M671.58,254.57H565.88a.5.5,0,0,1-.5-.5.51.51,0,0,1,.5-.5h105.7a.5.5,0,0,1,.5.5A.5.5,0,0,1,671.58,254.57Z"/><path class="cls-2" d="M476.43,256.13h-7.14V252h7.14Zm-6.14-1h5.14V253h-5.14Z"/><path class="cls-2" d="M566.38,256.13h-7.13V252h7.13Zm-6.13-1h5.13V253h-5.13Z"/><path class="cls-2" d="M399.5,257.69a.51.51,0,0,1-.5-.5V251a.5.5,0,0,1,.5-.5.5.5,0,0,1,.5.5v6.23A.5.5,0,0,1,399.5,257.69Z"/><path class="cls-2" d="M406.62,257.69a.5.5,0,0,1-.5-.5V251a.5.5,0,0,1,1,0v6.23A.5.5,0,0,1,406.62,257.69Z"/><path class="cls-2" d="M413.74,257.69a.5.5,0,0,1-.5-.5V251a.5.5,0,0,1,1,0v6.23A.5.5,0,0,1,413.74,257.69Z"/><path class="cls-2" d="M420.86,257.69a.5.5,0,0,1-.5-.5V251a.5.5,0,0,1,.5-.5.5.5,0,0,1,.5.5v6.23A.51.51,0,0,1,420.86,257.69Z"/><path class="cls-2" d="M428,257.69a.5.5,0,0,1-.5-.5V251a.5.5,0,0,1,.5-.5.5.5,0,0,1,.5.5v6.23A.51.51,0,0,1,428,257.69Z"/><path class="cls-2" d="M435.09,257.69a.51.51,0,0,1-.5-.5V251a.5.5,0,0,1,.5-.5.5.5,0,0,1,.5.5v6.23A.5.5,0,0,1,435.09,257.69Z"/><path class="cls-2" d="M600.94,257.69a.5.5,0,0,1-.5-.5V251a.5.5,0,0,1,.5-.5.5.5,0,0,1,.5.5v6.23A.51.51,0,0,1,600.94,257.69Z"/><path class="cls-2" d="M608.06,257.69a.5.5,0,0,1-.5-.5V251a.5.5,0,0,1,.5-.5.5.5,0,0,1,.5.5v6.23A.51.51,0,0,1,608.06,257.69Z"/><path class="cls-2" d="M615.17,257.69a.51.51,0,0,1-.5-.5V251a.5.5,0,0,1,.5-.5.5.5,0,0,1,.5.5v6.23A.5.5,0,0,1,615.17,257.69Z"/><path class="cls-2" d="M622.29,257.69a.5.5,0,0,1-.5-.5V251a.5.5,0,0,1,1,0v6.23A.5.5,0,0,1,622.29,257.69Z"/><path class="cls-2" d="M629.41,257.69a.5.5,0,0,1-.5-.5V251a.5.5,0,0,1,1,0v6.23A.5.5,0,0,1,629.41,257.69Z"/><path class="cls-2" d="M636.53,257.69a.5.5,0,0,1-.5-.5V251a.5.5,0,0,1,.5-.5.5.5,0,0,1,.5.5v6.23A.51.51,0,0,1,636.53,257.69Z"/><path class="cls-2" d="M518.39,300.59h-2a.5.5,0,0,1,0-1h2a.5.5,0,0,1,.5.5A.5.5,0,0,1,518.39,300.59Z"/><path class="cls-2" d="M732.28,310.6c-1,0-2.11,0-3.18,0a.49.49,0,0,1-.48-.51.55.55,0,0,1,.51-.49c1.06,0,2.11,0,3.15,0h.82a.5.5,0,0,1,0,1Zm4.8-.09a.5.5,0,0,1,0-1c1.34-.05,2.67-.13,4-.23a.49.49,0,0,1,.53.46.5.5,0,0,1-.46.54c-1.29.1-2.64.18-4,.23Zm-11.94-.1h0q-2-.11-4-.27a.5.5,0,1,1,.08-1q2,.17,4,.27a.5.5,0,0,1,0,1ZM745,309.9a.5.5,0,0,1-.06-1c1.33-.15,2.65-.33,3.93-.54a.51.51,0,0,1,.57.42.5.5,0,0,1-.42.57c-1.29.21-2.62.39-4,.54Zm-27.83-.14h-.05l-2.36-.27-1.6-.19a.5.5,0,1,1,.12-1l1.6.2,2.35.27a.5.5,0,0,1-.06,1Zm-7.91-.92h-.06l-4-.45a.49.49,0,0,1-.44-.55.51.51,0,0,1,.55-.44l4,.45a.5.5,0,0,1-.06,1Zm43.6-.18a.5.5,0,0,1-.49-.4.51.51,0,0,1,.39-.59c1.31-.26,2.61-.56,3.86-.88a.51.51,0,0,1,.61.36.5.5,0,0,1-.36.61c-1.27.32-2.58.62-3.91.89Zm-51.51-.7h-.06l-4-.41a.5.5,0,0,1,.11-1l4,.41a.5.5,0,0,1,.44.55A.49.49,0,0,1,701.37,308Zm-7.93-.81h-.05l-4-.38a.49.49,0,0,1-.45-.54.5.5,0,0,1,.54-.45l4,.38a.5.5,0,0,1,.45.55A.51.51,0,0,1,693.44,307.15Zm67.16-.45a.5.5,0,0,1-.48-.36.49.49,0,0,1,.33-.62c1.26-.39,2.52-.82,3.74-1.28a.49.49,0,0,1,.64.29.5.5,0,0,1-.29.65c-1.24.46-2.51.9-3.8,1.29A.32.32,0,0,1,760.6,306.7Zm-75.09-.3h0l-4-.35a.49.49,0,0,1-.45-.54.5.5,0,0,1,.54-.46l4,.35a.5.5,0,0,1,.45.55A.49.49,0,0,1,685.51,306.4Zm-7.93-.68h0l-4-.32a.5.5,0,0,1-.46-.54.52.52,0,0,1,.54-.46l4,.32a.5.5,0,0,1,0,1Zm-7.94-.62h0l-4-.29a.49.49,0,0,1-.46-.53.49.49,0,0,1,.53-.46l4,.29a.5.5,0,0,1,0,1Zm-7.95-.57h0l-4-.27a.5.5,0,0,1,.07-1l4,.27a.5.5,0,0,1,0,1Zm-8-.52h0l-4-.24a.5.5,0,0,1-.47-.53.48.48,0,0,1,.53-.47l4,.24a.5.5,0,0,1,.47.53A.49.49,0,0,1,653.74,304Zm114.31-.11a.5.5,0,0,1-.46-.3.51.51,0,0,1,.25-.66c1.22-.54,2.41-1.12,3.55-1.72a.5.5,0,1,1,.47.88c-1.16.62-2.37,1.21-3.61,1.76A.51.51,0,0,1,768.05,303.9Zm-122.26-.36h0l-4-.21a.5.5,0,0,1-.47-.53.47.47,0,0,1,.52-.47l4,.21a.5.5,0,0,1,.47.53A.5.5,0,0,1,645.79,303.54Zm-7.95-.42h0l-4-.19a.51.51,0,0,1-.48-.53.49.49,0,0,1,.52-.47l4,.19a.5.5,0,0,1,0,1Zm-8-.38h0l-4-.17a.51.51,0,0,1-.48-.52.53.53,0,0,1,.52-.48l4,.17a.5.5,0,0,1,0,1Zm-8-.34h0l-4-.15a.51.51,0,0,1-.48-.52.5.5,0,0,1,.52-.48l4,.15a.5.5,0,0,1,0,1Zm-8-.3h0l-4-.14a.5.5,0,0,1-.49-.52A.53.53,0,0,1,610,301l4,.14a.5.5,0,0,1,0,1Zm-8-.27h0l-4-.12a.5.5,0,0,1-.49-.51.52.52,0,0,1,.52-.49l4,.12a.5.5,0,0,1,0,1Zm-8-.23h0l-4-.11a.5.5,0,0,1-.49-.51.49.49,0,0,1,.51-.49l4,.11a.49.49,0,0,1,.49.51A.51.51,0,0,1,598,301.6Zm-8-.21h0l-4-.09a.52.52,0,0,1-.49-.51.5.5,0,0,1,.5-.49h0l4,.09a.5.5,0,0,1,0,1Zm-8-.18h0l-4-.08a.5.5,0,0,1-.49-.51.5.5,0,0,1,.51-.49l4,.08a.5.5,0,0,1,0,1Zm-8-.15h0l-4-.07a.5.5,0,0,1,0-1l4,.07a.5.5,0,0,1,0,1Zm-8-.13h0l-4-.06a.5.5,0,0,1,0-1l4,.06a.5.5,0,0,1,0,1Zm-8-.1h0l-4-.05a.49.49,0,0,1-.49-.5.5.5,0,0,1,.5-.5h0l4,.05a.5.5,0,0,1,.5.5A.51.51,0,0,1,558.22,300.83Zm-8-.09h0l-4,0a.5.5,0,1,1,0-1h0l4,0a.5.5,0,0,1,0,1Zm-8-.06h0l-4,0a.5.5,0,0,1-.5-.5.51.51,0,0,1,.5-.5h0l4,0a.5.5,0,0,1,.5.5A.5.5,0,0,1,542.29,300.68Zm-8-.05h-4a.51.51,0,0,1-.5-.51.49.49,0,0,1,.5-.49h4a.5.5,0,0,1,.5.5A.5.5,0,0,1,534.32,300.63Zm-8,0h-4a.51.51,0,0,1-.5-.51.5.5,0,0,1,.5-.49h4a.51.51,0,0,1,.5.5A.5.5,0,0,1,526.36,300.6Zm248.72-.42a.51.51,0,0,1-.43-.23.5.5,0,0,1,.17-.69c1.11-.69,2.21-1.43,3.27-2.2a.5.5,0,0,1,.58.81c-1.07.78-2.19,1.53-3.33,2.24A.48.48,0,0,1,775.08,300.18Zm6.42-4.69a.52.52,0,0,1-.38-.17.51.51,0,0,1,0-.71c1-.85,2-1.75,2.89-2.68a.48.48,0,0,1,.7,0,.49.49,0,0,1,0,.7c-.94.95-1.93,1.87-2.94,2.74A.52.52,0,0,1,781.5,295.49Zm5.59-5.66a.48.48,0,0,1-.32-.11.51.51,0,0,1-.06-.71c.84-1,1.64-2.05,2.39-3.12a.5.5,0,0,1,.69-.13.51.51,0,0,1,.13.7c-.77,1.09-1.59,2.17-2.45,3.19A.49.49,0,0,1,787.09,289.83Zm4.56-6.5a.43.43,0,0,1-.25-.07.5.5,0,0,1-.19-.68c.65-1.12,1.27-2.3,1.84-3.49a.5.5,0,0,1,.67-.23.49.49,0,0,1,.23.66c-.58,1.22-1.21,2.41-1.87,3.56A.5.5,0,0,1,791.65,283.33Zm3.41-7.18-.18,0a.51.51,0,0,1-.28-.65c.46-1.21.88-2.47,1.26-3.73a.5.5,0,0,1,.62-.34.51.51,0,0,1,.34.62c-.39,1.29-.82,2.57-1.29,3.81A.51.51,0,0,1,795.06,276.15Zm2.27-7.62-.11,0a.49.49,0,0,1-.38-.59c.28-1.27.52-2.57.71-3.88a.51.51,0,0,1,.57-.42.49.49,0,0,1,.42.57c-.2,1.33-.44,2.66-.72,3.94A.51.51,0,0,1,797.33,268.53Zm1.19-7.87h0a.5.5,0,0,1-.45-.54c.11-1.29.19-2.62.22-3.95a.56.56,0,0,1,.52-.49.5.5,0,0,1,.48.52c0,1.35-.11,2.7-.23,4A.5.5,0,0,1,798.52,260.66Zm.23-8a.5.5,0,0,1-.5-.48c0-1.33-.1-2.66-.21-3.95a.5.5,0,0,1,.46-.54.5.5,0,0,1,.54.46c.1,1.31.18,2.66.21,4a.49.49,0,0,1-.49.51Zm-.67-7.93a.49.49,0,0,1-.49-.42c-.19-1.32-.43-2.62-.7-3.89a.49.49,0,0,1,.38-.59.5.5,0,0,1,.6.38c.27,1.29.51,2.62.71,3.95a.5.5,0,0,1-.42.57ZM796.4,237a.51.51,0,0,1-.48-.36c-.36-1.27-.78-2.53-1.24-3.74a.49.49,0,0,1,.29-.64.5.5,0,0,1,.65.29c.46,1.24.89,2.52,1.26,3.81a.5.5,0,0,1-.34.62Zm-2.8-7.44a.51.51,0,0,1-.45-.29c-.56-1.19-1.17-2.37-1.82-3.49a.52.52,0,0,1,.19-.69.51.51,0,0,1,.68.19c.66,1.15,1.28,2.35,1.86,3.56a.51.51,0,0,1-.24.67A.54.54,0,0,1,793.6,229.56Zm-4-6.9a.49.49,0,0,1-.41-.21c-.74-1.07-1.54-2.13-2.38-3.14a.5.5,0,0,1,.07-.7.49.49,0,0,1,.7.06q1.29,1.56,2.43,3.21a.5.5,0,0,1-.12.69A.52.52,0,0,1,789.64,222.66Zm-5.06-6.12a.51.51,0,0,1-.36-.15c-.91-.93-1.87-1.84-2.86-2.7a.5.5,0,0,1,.65-.76c1,.88,2,1.81,2.93,2.76a.5.5,0,0,1,0,.71A.52.52,0,0,1,784.58,216.54Zm-6-5.21a.47.47,0,0,1-.3-.1c-1-.77-2.14-1.52-3.26-2.22a.5.5,0,1,1,.53-.84c1.14.71,2.26,1.47,3.32,2.26a.5.5,0,0,1-.29.9Zm-256-2.78a.5.5,0,0,1,0-1h4a.51.51,0,0,1,.5.5.5.5,0,0,1-.5.5Zm8,0a.5.5,0,0,1-.5-.5.5.5,0,0,1,.5-.5l4,0h0a.5.5,0,0,1,.5.5.5.5,0,0,1-.5.5l-4,0Zm8,0a.5.5,0,1,1,0-1l4,0a.55.55,0,0,1,.51.49.5.5,0,0,1-.5.51l-4,0Zm8-.05a.5.5,0,0,1,0-1l4,0a.52.52,0,0,1,.5.5.49.49,0,0,1-.49.5l-4,0Zm8-.08a.5.5,0,0,1,0-1l4,0h0a.5.5,0,1,1,0,1l-4,0Zm8-.09a.5.5,0,0,1,0-1l4-.06a.51.51,0,0,1,.5.5.49.49,0,0,1-.49.5l-4,.06Zm8-.12a.5.5,0,0,1,0-1l4-.07a.55.55,0,0,1,.51.5.5.5,0,0,1-.49.5l-4,.07Zm8-.14a.51.51,0,0,1-.5-.49.5.5,0,0,1,.49-.51l4-.08a.51.51,0,0,1,.51.49.5.5,0,0,1-.49.51l-4,.08Zm8-.17a.5.5,0,0,1-.5-.48.52.52,0,0,1,.49-.52l4-.09a.52.52,0,0,1,.52.49.5.5,0,0,1-.49.51l-4,.09Zm8-.19a.5.5,0,0,1,0-1l4-.11a.52.52,0,0,1,.52.49.49.49,0,0,1-.49.51l-4,.11Zm8-.22a.5.5,0,0,1,0-1l4-.12a.52.52,0,0,1,.52.48.5.5,0,0,1-.48.52l-4,.12Zm8-.25a.51.51,0,0,1-.5-.49.5.5,0,0,1,.48-.51l4-.14a.52.52,0,0,1,.52.48.5.5,0,0,1-.48.52l-4,.14Zm161.61-.08a.46.46,0,0,1-.23-.06c-1.14-.61-2.33-1.19-3.55-1.74a.5.5,0,1,1,.41-.91c1.24.55,2.45,1.15,3.61,1.77a.5.5,0,0,1-.24.94Zm-153.65-.21a.5.5,0,0,1,0-1l4-.16a.52.52,0,0,1,.52.48.5.5,0,0,1-.48.52l-4,.16Zm8-.32a.5.5,0,0,1,0-1l4-.18a.5.5,0,1,1,0,1l-4,.18Zm8-.36a.5.5,0,0,1,0-1l4-.2a.5.5,0,1,1,.05,1l-4,.2Zm7.95-.4a.51.51,0,0,1-.5-.48.5.5,0,0,1,.48-.52l4-.22a.5.5,0,0,1,.53.47.5.5,0,0,1-.47.53l-4,.22Zm8-.45a.49.49,0,0,1-.5-.47.5.5,0,0,1,.47-.53l4-.24a.48.48,0,0,1,.53.47.5.5,0,0,1-.47.53l-4,.24Zm8-.49a.5.5,0,0,1,0-1l4-.27a.49.49,0,0,1,.53.47.5.5,0,0,1-.47.53l-4,.27Zm7.94-.54a.51.51,0,0,1-.5-.47.5.5,0,0,1,.47-.53l4-.3a.51.51,0,0,1,.53.47.49.49,0,0,1-.46.53l-4,.29Zm98.68-.51a.57.57,0,0,1-.18,0c-1.2-.46-2.46-.89-3.73-1.29a.5.5,0,0,1,.3-1c1.29.41,2.57.85,3.79,1.32a.49.49,0,0,1,.29.64A.51.51,0,0,1,764.59,203.82Zm-90.74-.09a.5.5,0,0,1,0-1l4-.32a.5.5,0,0,1,.09,1l-4,.32Zm7.94-.66a.49.49,0,0,1-.49-.45.48.48,0,0,1,.45-.54l4-.36a.52.52,0,0,1,.54.46.5.5,0,0,1-.45.54l-4,.35Zm7.94-.71a.5.5,0,0,1-.5-.46.49.49,0,0,1,.45-.54l4-.38a.5.5,0,1,1,.1,1l-4,.39Zm7.92-.78a.5.5,0,0,1,0-1l4-.41a.5.5,0,1,1,.11,1l-4,.42Zm59.35-.15-.12,0c-1.26-.32-2.56-.62-3.86-.89a.51.51,0,0,1-.39-.59.49.49,0,0,1,.59-.39c1.32.27,2.63.58,3.91.9a.5.5,0,0,1,.35.61A.49.49,0,0,1,757,201.43Zm-51.43-.7a.51.51,0,0,1-.5-.44.51.51,0,0,1,.45-.56l4-.44a.5.5,0,0,1,.12,1l-4,.45Zm7.91-.92a.5.5,0,0,1-.06-1l1.36-.17,2.61-.29a.49.49,0,0,1,.55.44.5.5,0,0,1-.45.55l-2.59.3-1.36.16Zm35.73,0h-.08c-1.28-.21-2.6-.39-3.93-.55a.5.5,0,0,1-.44-.55.51.51,0,0,1,.56-.44c1.34.16,2.67.34,4,.55a.5.5,0,0,1-.07,1ZM721.4,199a.5.5,0,0,1-.49-.46.49.49,0,0,1,.46-.54c1.34-.11,2.67-.2,4-.27a.49.49,0,0,1,.53.48.5.5,0,0,1-.48.52c-1.3.07-2.62.16-3.95.26Zm19.9-.11h0c-1.28-.1-2.62-.18-4-.23a.52.52,0,0,1-.48-.53.51.51,0,0,1,.52-.47c1.36,0,2.7.13,4,.24a.5.5,0,0,1,0,1Zm-11.94-.31a.49.49,0,0,1-.5-.48.5.5,0,0,1,.49-.52l2.93,0h1.07a.5.5,0,0,1,0,1h-1.06l-2.91,0Z"/><path class="cls-2" d="M516.39,208.56a.5.5,0,0,1-.5-.5.5.5,0,0,1,.5-.5h2a.5.5,0,0,1,.5.5.5.5,0,0,1-.5.5Z"/></g></svg>