<svg xmlns="http://www.w3.org/2000/svg" xmlns:xlink="http://www.w3.org/1999/xlink" viewBox="0 0 1100 800"><defs><style>.cls-1{fill:none;}.cls-2{fill:#4b4a4a;}.cls-3{clip-path:url(#clip-path);}.cls-4{clip-path:url(#clip-path-2);}.cls-5{clip-path:url(#clip-path-3);}</style><clipPath id="clip-path"><path class="cls-1" d="M38.82-491.2c-52.74,15.32-94.19-16.65-144.73.67l-11.6-163.9,84-30.4,85.57,30.4Z"/></clipPath><clipPath id="clip-path-2"><path class="cls-1" d="M494,623.71C431.1,642,381.66,603.85,321.4,624.5L307.57,352.05l100.2-36.26,102.05,36.26Z"/></clipPath><clipPath id="clip-path-3"><path class="cls-1" d="M776.44,624c-63.58,18.47-113.55-20.07-174.47.81L588,403.14l101.3-36.65,103.14,36.65Z"/></clipPath></defs><title>transparent-findyourshape-directional-mobile</title><g id="Text_OUTLINED" data-name="Text OUTLINED"><path class="cls-2" d="M301.63,137.83h-9.45l-1.91,5.58h-4l9.06-24.92h3.16l9.06,24.92h-4Zm-1.07-3.35L297,123.6h-.07l-3.6,10.88Z"/><path class="cls-2" d="M313.71,118.49h3.78v21.34h12.13v3.58H313.71Z"/><path class="cls-2" d="M336.68,118.49h3.77v21.34h12.14v3.58H336.68Z"/><path class="cls-2" d="M371.53,118.49h3.56l7.14,16.23,7-16.23h3.57v24.92H389V127.87H389l-5.21,12h-3.15l-5.21-12h-.07v15.54h-3.78Z"/><path class="cls-2" d="M400.7,131a41.48,41.48,0,0,1,.26-5.81,6.82,6.82,0,0,1,.84-2.38,8.79,8.79,0,0,1,7.81-4.48,8.76,8.76,0,0,1,4.95,1.4,8.39,8.39,0,0,1,2.84,3.08,5.8,5.8,0,0,1,.87,2.38,47.6,47.6,0,0,1,.22,5.81,47.7,47.7,0,0,1-.22,5.77,5.73,5.73,0,0,1-.87,2.41,8.08,8.08,0,0,1-2.84,3,8.85,8.85,0,0,1-4.95,1.44,8.74,8.74,0,0,1-4.91-1.44,8.27,8.27,0,0,1-2.9-3c-.19-.37-.35-.73-.5-1.07a6.83,6.83,0,0,1-.34-1.34A41.58,41.58,0,0,1,400.7,131Zm3.8,0a29.43,29.43,0,0,0,.27,5,4.11,4.11,0,0,0,1,2.1,4.5,4.5,0,0,0,1.58,1.25,4.37,4.37,0,0,0,2.29.56,4.61,4.61,0,0,0,2.34-.56,4.21,4.21,0,0,0,1.5-1.25,4.31,4.31,0,0,0,1-2.1,31,31,0,0,0,.26-5,31.73,31.73,0,0,0-.26-5,4.38,4.38,0,0,0-1-2.07,4.5,4.5,0,0,0-1.5-1.28,5.45,5.45,0,0,0-2.34-.53,5.16,5.16,0,0,0-2.29.53,4.81,4.81,0,0,0-1.58,1.28,4.16,4.16,0,0,0-1,2.07A30.17,30.17,0,0,0,404.5,131Z"/><path class="cls-2" d="M425.94,118.49h3.78v16.06a5.11,5.11,0,0,0,1.47,3.88,4.84,4.84,0,0,0,3.6,1.4,5,5,0,0,0,3.64-1.4,5.17,5.17,0,0,0,1.44-3.88V118.49h3.78V135a8.36,8.36,0,0,1-2.55,6.24,9.39,9.39,0,0,1-12.56,0,8.07,8.07,0,0,1-2.6-6.24Z"/><path class="cls-2" d="M452,118.49h3.55l11.28,17.7h.07v-17.7h3.78v24.92h-3.57L455.79,125.7h-.07v17.71H452Z"/><path class="cls-2" d="M483.61,121.85h-6.82v-3.36h17.43v3.36h-6.81v21.56h-3.8Z"/><path class="cls-2" d="M510.56,137.83h-9.45l-1.92,5.58h-4l9.05-24.92h3.16l9.06,24.92h-4Zm-1.08-3.35-3.6-10.88h-.07l-3.61,10.88Z"/><path class="cls-2" d="M522.64,118.49h3.77v24.92h-3.77Z"/><path class="cls-2" d="M535.16,118.49h3.56L550,136.19h.06v-17.7h3.78v24.92h-3.57L539,125.7h-.07v17.71h-3.78Z"/><path class="cls-2" d="M574.5,118.49h8.71a8.37,8.37,0,0,1,7.59,4.2,7.63,7.63,0,0,1,1.14,2.94,49.37,49.37,0,0,1,.19,5.32,35.4,35.4,0,0,1-.29,5.6,6.27,6.27,0,0,1-.41,1.44,12.71,12.71,0,0,1-.7,1.28,9.09,9.09,0,0,1-7.78,4.14H574.5Zm3.77,21.34h4.51a5.13,5.13,0,0,0,4.62-2.17,4.08,4.08,0,0,0,.8-2,43.63,43.63,0,0,0,.16-4.55c0-2.16-.06-3.71-.16-4.65a4.33,4.33,0,0,0-1-2.27,5,5,0,0,0-4.45-2.1h-4.51Z"/><path class="cls-2" d="M600,118.49h3.78v24.92H600Z"/><path class="cls-2" d="M612.56,118.49h9.73a7.66,7.66,0,0,1,5.07,1.64,6.6,6.6,0,0,1,2.48,5.31,6.93,6.93,0,0,1-4.82,6.91l5.78,11.06h-4.49l-5.15-10.65h-4.82v10.65h-3.78Zm3.78,10.92h5.71a4.11,4.11,0,0,0,3.18-1.23,3.86,3.86,0,0,0,1-2.74,3.32,3.32,0,0,0-1.25-2.82,4.33,4.33,0,0,0-2.77-.77h-5.91Z"/><path class="cls-2" d="M637.41,118.49h15.91v3.57H641.19v7.11h10.35v3.35H641.19v7.31h12.13v3.58H637.41Z"/><path class="cls-2" d="M677.17,136.43a9.27,9.27,0,0,1-3.12,5.33,8.86,8.86,0,0,1-5.63,1.85,8.71,8.71,0,0,1-4.9-1.44,8.38,8.38,0,0,1-2.91-3c-.18-.37-.34-.73-.49-1.07a6.83,6.83,0,0,1-.34-1.34,41.58,41.58,0,0,1-.26-5.77,41.48,41.48,0,0,1,.26-5.81,7,7,0,0,1,.83-2.38,8.72,8.72,0,0,1,2.91-3.08,8.61,8.61,0,0,1,4.9-1.4,8.47,8.47,0,0,1,5.88,2.14,9.3,9.3,0,0,1,2.87,5.25h-4a5.5,5.5,0,0,0-1.68-2.57,4.93,4.93,0,0,0-3.08-1,5.22,5.22,0,0,0-2.29.53,4.88,4.88,0,0,0-1.57,1.28,4.16,4.16,0,0,0-1,2.07,29.83,29.83,0,0,0-.28,5,29.09,29.09,0,0,0,.28,5,4.11,4.11,0,0,0,1,2.1,4.56,4.56,0,0,0,1.57,1.25,4.42,4.42,0,0,0,2.29.56q3.18,0,4.76-3.4Z"/><path class="cls-2" d="M687.56,121.85h-6.82v-3.36h17.43v3.36h-6.81v21.56h-3.8Z"/><path class="cls-2" d="M704.34,118.49h3.78v24.92h-3.78Z"/><path class="cls-2" d="M716,131a41.48,41.48,0,0,1,.26-5.81,7,7,0,0,1,.83-2.38,8.72,8.72,0,0,1,2.91-3.08,8.61,8.61,0,0,1,4.9-1.4,8.77,8.77,0,0,1,5,1.4,8.39,8.39,0,0,1,2.84,3.08,5.8,5.8,0,0,1,.87,2.38,47.6,47.6,0,0,1,.22,5.81,47.7,47.7,0,0,1-.22,5.77,5.73,5.73,0,0,1-.87,2.41,8.08,8.08,0,0,1-2.84,3,8.86,8.86,0,0,1-5,1.44,8.71,8.71,0,0,1-4.9-1.44,8.38,8.38,0,0,1-2.91-3c-.18-.37-.34-.73-.49-1.07a6.83,6.83,0,0,1-.34-1.34A41.58,41.58,0,0,1,716,131Zm3.79,0a28.06,28.06,0,0,0,.28,5,4.11,4.11,0,0,0,1,2.1,4.46,4.46,0,0,0,1.57,1.25,4.39,4.39,0,0,0,2.29.56,4.61,4.61,0,0,0,2.34-.56,4.24,4.24,0,0,0,1.51-1.25,4.4,4.4,0,0,0,1-2.1,31.33,31.33,0,0,0,.25-5,32.12,32.12,0,0,0-.25-5,4.47,4.47,0,0,0-1-2.07,4.53,4.53,0,0,0-1.51-1.28,5.45,5.45,0,0,0-2.34-.53,5.19,5.19,0,0,0-2.29.53,4.77,4.77,0,0,0-1.57,1.28,4.16,4.16,0,0,0-1,2.07A28.76,28.76,0,0,0,719.8,131Z"/><path class="cls-2" d="M741.71,118.49h3.55l11.28,17.7h.07v-17.7h3.78v24.92h-3.57L745.55,125.7h-.06v17.71h-3.78Z"/><path class="cls-2" d="M781.92,137.83h-9.45l-1.92,5.58h-4l9.06-24.92h3.16l9.06,24.92h-4Zm-1.08-3.35-3.6-10.88h-.07l-3.61,10.88Z"/><path class="cls-2" d="M794,118.49h3.77v21.34h12.14v3.58H794Z"/><path class="cls-2" d="M334.17,666.12H338v21.35h12.13V691H334.17Z"/><path class="cls-2" d="M356.28,678.58a41.58,41.58,0,0,1,.26-5.81,7,7,0,0,1,.83-2.38,8.69,8.69,0,0,1,2.91-3.07,8.56,8.56,0,0,1,4.9-1.4,8.69,8.69,0,0,1,5,1.4,8.37,8.37,0,0,1,2.84,3.07,5.8,5.8,0,0,1,.87,2.38,76.43,76.43,0,0,1,0,11.59,5.84,5.84,0,0,1-.87,2.41,8.15,8.15,0,0,1-2.84,3,8.86,8.86,0,0,1-5,1.43,8.73,8.73,0,0,1-4.9-1.43,8.46,8.46,0,0,1-2.91-3c-.18-.38-.34-.74-.49-1.08a6.72,6.72,0,0,1-.34-1.33A41.76,41.76,0,0,1,356.28,678.58Zm3.8,0a29.35,29.35,0,0,0,.27,5,4.18,4.18,0,0,0,1,2.11,4.53,4.53,0,0,0,1.57,1.24,4.42,4.42,0,0,0,2.29.57,4.65,4.65,0,0,0,2.35-.57,4.27,4.27,0,0,0,1.5-1.24,4.39,4.39,0,0,0,1-2.11,31.24,31.24,0,0,0,.25-5,32.12,32.12,0,0,0-.25-5,4.3,4.3,0,0,0-1-2.06,4.62,4.62,0,0,0-1.5-1.29,5.65,5.65,0,0,0-2.35-.53,5.37,5.37,0,0,0-2.29.53,4.9,4.9,0,0,0-1.57,1.29,4.09,4.09,0,0,0-1,2.06A30.17,30.17,0,0,0,360.08,678.58Z"/><path class="cls-2" d="M382,666.12h3.56l11.27,17.71h.07V666.12h3.78V691h-3.57l-11.26-17.71h-.07V691H382Z"/><path class="cls-2" d="M417.51,677.32h8.85v5.07a8.78,8.78,0,0,1-8.89,8.85,8.7,8.7,0,0,1-4.9-1.43,8.46,8.46,0,0,1-2.91-3c-.18-.38-.34-.74-.49-1.08a6.72,6.72,0,0,1-.34-1.33,64.71,64.71,0,0,1,0-11.59,7,7,0,0,1,.83-2.38,8.69,8.69,0,0,1,2.91-3.07,8.54,8.54,0,0,1,4.9-1.4,8.41,8.41,0,0,1,5.88,2.13,9.39,9.39,0,0,1,2.87,5.25h-4a5.38,5.38,0,0,0-1.67-2.56,4.94,4.94,0,0,0-3.08-1,5.33,5.33,0,0,0-2.29.53,4.79,4.79,0,0,0-1.57,1.29,4.09,4.09,0,0,0-1,2.06,28.76,28.76,0,0,0-.28,5,28,28,0,0,0,.28,5,4.18,4.18,0,0,0,1,2.11,4.44,4.44,0,0,0,1.57,1.24,4.4,4.4,0,0,0,2.29.57,4.78,4.78,0,0,0,3.64-1.51,5.17,5.17,0,0,0,1.47-3.77v-1.3h-5.07Z"/><path class="cls-2" d="M434.27,666.12h15.91v3.57H438.05v7.11H448.4v3.35H438.05v7.32h12.13V691H434.27Z"/><path class="cls-2" d="M457.23,666.12H467a7.66,7.66,0,0,1,5.07,1.64,6.62,6.62,0,0,1,2.48,5.32,6.92,6.92,0,0,1-4.82,6.9L475.47,691H471l-5.14-10.65H461V691h-3.78ZM461,677h5.71a4.11,4.11,0,0,0,3.18-1.23,3.86,3.86,0,0,0,1-2.73,3.3,3.3,0,0,0-1.25-2.82,4.35,4.35,0,0,0-2.77-.77H461Z"/><path class="cls-2" d="M358.71,708.12h3.55l11.28,17.71h.07V708.12h3.78V733h-3.57l-11.27-17.71h-.07V733h-3.77Z"/><path class="cls-2" d="M385.3,720.58a42.11,42.11,0,0,1,.25-5.81,6.82,6.82,0,0,1,.84-2.38,8.84,8.84,0,0,1,7.81-4.47,8.74,8.74,0,0,1,5,1.4,8.34,8.34,0,0,1,2.83,3.07,5.8,5.8,0,0,1,.87,2.38,73.12,73.12,0,0,1,0,11.59,5.84,5.84,0,0,1-.87,2.41,8.12,8.12,0,0,1-2.83,3,8.91,8.91,0,0,1-5,1.43,8.7,8.7,0,0,1-4.9-1.43,8.29,8.29,0,0,1-2.91-3c-.18-.38-.35-.74-.5-1.08a7.49,7.49,0,0,1-.34-1.33A42.28,42.28,0,0,1,385.3,720.58Zm3.79,0a29.35,29.35,0,0,0,.27,5,4.19,4.19,0,0,0,1,2.11,4.44,4.44,0,0,0,1.57,1.24,4.4,4.4,0,0,0,2.29.57,4.61,4.61,0,0,0,2.34-.57,4.22,4.22,0,0,0,1.51-1.24,4.38,4.38,0,0,0,1-2.11,30.86,30.86,0,0,0,.26-5,31.73,31.73,0,0,0-.26-5,4.29,4.29,0,0,0-1-2.06,4.56,4.56,0,0,0-1.51-1.29,5.6,5.6,0,0,0-2.34-.53,5.33,5.33,0,0,0-2.29.53,4.79,4.79,0,0,0-1.57,1.29,4.1,4.1,0,0,0-1,2.06A30.17,30.17,0,0,0,389.09,720.58Z"/><path class="cls-2" d="M418.38,729.47c3.23-.05,4.87-1.2,4.92-3.47q0-2.79-3.25-3.35l-3.29-.46a8.16,8.16,0,0,1-4.89-2.38,6.6,6.6,0,0,1-1.73-4.61,6.83,6.83,0,0,1,2.17-5.27,8.47,8.47,0,0,1,6-2,14,14,0,0,1,8.08,2.58l-2.1,3.11a11.49,11.49,0,0,0-6.17-1.92,4.68,4.68,0,0,0-2.91.88,3.21,3.21,0,0,0-1.24,2.7,2.73,2.73,0,0,0,.83,1.94,4.73,4.73,0,0,0,2.69,1.23c.68.12,1.61.25,2.8.4a7.77,7.77,0,0,1,5.18,2.51,7.08,7.08,0,0,1,1.65,4.65q-.18,7.14-8.75,7.24a14.09,14.09,0,0,1-9.51-3.41L411.3,727A11,11,0,0,0,418.38,729.47Z"/><path class="cls-2" d="M434.58,708.12h15.91v3.57H438.35v7.11h10.36v3.35H438.35v7.32h12.14V733H434.58Z"/><path class="cls-2" d="M613,687.47c3.23-.05,4.87-1.2,4.92-3.47q0-2.79-3.25-3.35l-3.3-.46a8.16,8.16,0,0,1-4.88-2.38,6.56,6.56,0,0,1-1.73-4.61,6.83,6.83,0,0,1,2.17-5.27,8.46,8.46,0,0,1,6-2A14,14,0,0,1,621,668.5l-2.1,3.11a11.49,11.49,0,0,0-6.17-1.92,4.66,4.66,0,0,0-2.91.88,3.25,3.25,0,0,0-1.25,2.7,2.74,2.74,0,0,0,.84,1.94,4.7,4.7,0,0,0,2.68,1.23c.69.12,1.62.25,2.81.4a7.72,7.72,0,0,1,5.17,2.51,7,7,0,0,1,1.66,4.65q-.18,7.14-8.75,7.24a14.13,14.13,0,0,1-9.52-3.41l2.48-2.84A11,11,0,0,0,613,687.47Z"/><path class="cls-2" d="M642.84,680.15H633V691H629.2V666.12H633V676.8h9.86V666.12h3.78V691h-3.78Z"/><path class="cls-2" d="M654.53,678.58a42.11,42.11,0,0,1,.25-5.81,7.25,7.25,0,0,1,.84-2.38,8.84,8.84,0,0,1,7.81-4.47,8.72,8.72,0,0,1,5,1.4,8.34,8.34,0,0,1,2.83,3.07,5.67,5.67,0,0,1,.88,2.38,76.43,76.43,0,0,1,0,11.59,5.7,5.7,0,0,1-.88,2.41,8.12,8.12,0,0,1-2.83,3,8.88,8.88,0,0,1-5,1.43,8.7,8.7,0,0,1-4.9-1.43,8.38,8.38,0,0,1-2.91-3c-.18-.38-.35-.74-.49-1.08a7.42,7.42,0,0,1-.35-1.33A42.28,42.28,0,0,1,654.53,678.58Zm3.79,0a28,28,0,0,0,.28,5,4.1,4.1,0,0,0,1,2.11,4.44,4.44,0,0,0,1.57,1.24,4.4,4.4,0,0,0,2.29.57,4.61,4.61,0,0,0,2.34-.57,4.22,4.22,0,0,0,1.51-1.24,4.48,4.48,0,0,0,1-2.11,31.24,31.24,0,0,0,.25-5,32.12,32.12,0,0,0-.25-5,4.39,4.39,0,0,0-1-2.06,4.56,4.56,0,0,0-1.51-1.29,5.6,5.6,0,0,0-2.34-.53,5.33,5.33,0,0,0-2.29.53,4.79,4.79,0,0,0-1.57,1.29,4,4,0,0,0-1,2.06A28.76,28.76,0,0,0,658.32,678.58Z"/><path class="cls-2" d="M680.23,666.12H690a7.67,7.67,0,0,1,5.08,1.64,6.65,6.65,0,0,1,2.48,5.32,7,7,0,0,1-4.82,6.9L698.46,691H694l-5.15-10.65H684V691h-3.77ZM684,677h5.71a4.1,4.1,0,0,0,3.18-1.23,3.81,3.81,0,0,0,1-2.73,3.29,3.29,0,0,0-1.24-2.82,4.35,4.35,0,0,0-2.77-.77H684Z"/><path class="cls-2" d="M708.66,669.49h-6.82v-3.37h17.43v3.37h-6.81V691h-3.8Z"/><path class="cls-2" d="M725.44,666.12h15.91v3.57H729.22v7.11h10.35v3.35H729.22v7.32h12.13V691H725.44Z"/><path class="cls-2" d="M748.41,666.12h9.72a7.69,7.69,0,0,1,5.08,1.64,6.62,6.62,0,0,1,2.47,5.32,6.92,6.92,0,0,1-4.82,6.9L766.64,691h-4.49L757,680.39h-4.82V691h-3.77ZM752.18,677h5.71a4.11,4.11,0,0,0,3.18-1.23,3.86,3.86,0,0,0,1-2.73,3.3,3.3,0,0,0-1.25-2.82,4.32,4.32,0,0,0-2.76-.77h-5.92Z"/><path class="cls-2" d="M654.29,711.49h-6.82v-3.37H664.9v3.37h-6.82V733h-3.79Z"/><path class="cls-2" d="M681.24,727.47h-9.45L669.87,733h-4l9.06-24.92h3.16L687.15,733h-4Zm-1.08-3.35-3.6-10.89h-.07l-3.61,10.89Z"/><path class="cls-2" d="M693.32,708.12h3.77V733h-3.77Z"/><path class="cls-2" d="M705.84,708.12h3.78v21.35h12.13V733H705.84Z"/></g><g id="Art_OUTLINED" data-name="Art OUTLINED"><g class="cls-3"><path class="cls-2" d="M-33.48,10.38c-20,0-36.9-7.11-48.84-20.55C-98-27.87-104.2-54.92-100.19-88.4-92-156.65-87.87-236-87.87-324.42v-2.4c0-88.36-4.14-167.77-12.32-236-4-33.48,2.17-60.53,17.87-78.23,11.94-13.45,28.83-20.56,48.84-20.56s36.91,7.11,48.84,20.56c15.71,17.7,21.89,44.75,17.87,78.23-8.17,68.24-12.32,147.65-12.32,236v2.4c0,88.37,4.15,167.77,12.32,236,4,33.48-2.16,60.53-17.87,78.23C3.43,3.27-13.46,10.38-33.48,10.38ZM-94.23-563.54c8.2,68.48,12.36,148.12,12.36,236.72v2.4c0,88.6-4.16,168.25-12.36,236.73C-98-56-92.36-30.53-77.83-14.16-67.07-2-51.73,4.38-33.48,4.38S.11-2,10.88-14.16C25.41-30.53,31.08-56,27.28-87.69c-8.21-68.48-12.37-148.13-12.37-236.73v-2.4c0-88.6,4.16-168.24,12.37-236.72,3.8-31.73-1.87-57.16-16.4-73.54-10.77-12.13-26.1-18.54-44.36-18.54s-33.59,6.41-44.35,18.54C-92.36-620.7-98-595.27-94.23-563.54Z"/></g><path class="cls-2" d="M484.25,252.92h-106a.51.51,0,0,1-.5-.5.5.5,0,0,1,.5-.5h106a.5.5,0,0,1,.5.5A.5.5,0,0,1,484.25,252.92Z"/><path class="cls-2" d="M694.9,252.92h-106a.51.51,0,0,1-.5-.5.5.5,0,0,1,.5-.5h106a.5.5,0,0,1,.5.5A.5.5,0,0,1,694.9,252.92Z"/><path class="cls-2" d="M490.9,254.47h-7.15v-4.11h7.15Zm-6.15-1h5.15v-2.11h-5.15Z"/><path class="cls-2" d="M589.42,254.47h-7.15v-4.11h7.15Zm-6.15-1h5.15v-2.11h-5.15Z"/><path class="cls-2" d="M413.78,256a.5.5,0,0,1-.5-.5v-6.25a.5.5,0,0,1,.5-.5.51.51,0,0,1,.5.5v6.25A.51.51,0,0,1,413.78,256Z"/><path class="cls-2" d="M420.91,256a.51.51,0,0,1-.5-.5v-6.25a.51.51,0,0,1,.5-.5.5.5,0,0,1,.5.5v6.25A.5.5,0,0,1,420.91,256Z"/><path class="cls-2" d="M428.05,256a.5.5,0,0,1-.5-.5v-6.25a.5.5,0,0,1,1,0v6.25A.5.5,0,0,1,428.05,256Z"/><path class="cls-2" d="M435.19,256a.5.5,0,0,1-.5-.5v-6.25a.5.5,0,0,1,.5-.5.51.51,0,0,1,.5.5v6.25A.51.51,0,0,1,435.19,256Z"/><path class="cls-2" d="M442.32,256a.51.51,0,0,1-.5-.5v-6.25a.51.51,0,0,1,.5-.5.5.5,0,0,1,.5.5v6.25A.5.5,0,0,1,442.32,256Z"/><path class="cls-2" d="M449.46,256a.51.51,0,0,1-.5-.5v-6.25a.51.51,0,0,1,.5-.5.5.5,0,0,1,.5.5v6.25A.5.5,0,0,1,449.46,256Z"/><path class="cls-2" d="M624.07,256a.5.5,0,0,1-.5-.5v-6.25a.5.5,0,1,1,1,0v6.25A.5.5,0,0,1,624.07,256Z"/><path class="cls-2" d="M631.21,256a.5.5,0,0,1-.5-.5v-6.25a.5.5,0,0,1,.5-.5.51.51,0,0,1,.5.5v6.25A.51.51,0,0,1,631.21,256Z"/><path class="cls-2" d="M638.34,256a.51.51,0,0,1-.5-.5v-6.25a.51.51,0,0,1,.5-.5.5.5,0,0,1,.5.5v6.25A.5.5,0,0,1,638.34,256Z"/><path class="cls-2" d="M645.48,256a.51.51,0,0,1-.5-.5v-6.25a.51.51,0,0,1,.5-.5.5.5,0,0,1,.5.5v6.25A.5.5,0,0,1,645.48,256Z"/><path class="cls-2" d="M652.62,256a.5.5,0,0,1-.5-.5v-6.25a.5.5,0,0,1,.5-.5.51.51,0,0,1,.5.5v6.25A.51.51,0,0,1,652.62,256Z"/><path class="cls-2" d="M659.76,256a.5.5,0,0,1-.5-.5v-6.25a.5.5,0,0,1,.5-.5.51.51,0,0,1,.5.5v6.25A.51.51,0,0,1,659.76,256Z"/><path class="cls-2" d="M341.28,322.55a.5.5,0,0,1-.5-.5v-4a.5.5,0,0,1,.5-.5.51.51,0,0,1,.5.5v4A.5.5,0,0,1,341.28,322.55Zm0-8a.5.5,0,0,1-.5-.5v-4a.5.5,0,0,1,.5-.5.51.51,0,0,1,.5.5v4A.5.5,0,0,1,341.28,314.55Zm0-8a.5.5,0,0,1-.5-.5v-4a.5.5,0,0,1,.5-.5.51.51,0,0,1,.5.5v4A.5.5,0,0,1,341.28,306.55Zm0-8a.5.5,0,0,1-.5-.5v-4a.5.5,0,0,1,.5-.5.51.51,0,0,1,.5.5v4A.5.5,0,0,1,341.28,298.55Zm0-8a.5.5,0,0,1-.5-.5v-4a.5.5,0,0,1,.5-.5.51.51,0,0,1,.5.5v4A.5.5,0,0,1,341.28,290.55Zm0-8a.5.5,0,0,1-.5-.5v-4a.5.5,0,0,1,.5-.5.51.51,0,0,1,.5.5v4A.5.5,0,0,1,341.28,282.55Zm0-8a.5.5,0,0,1-.5-.5v-4a.5.5,0,0,1,.5-.5.51.51,0,0,1,.5.5v4A.5.5,0,0,1,341.28,274.55Zm0-8a.5.5,0,0,1-.5-.5v-4a.5.5,0,0,1,.5-.5.51.51,0,0,1,.5.5v4A.5.5,0,0,1,341.28,266.55Zm0-8a.5.5,0,0,1-.5-.5v-4a.5.5,0,0,1,.5-.5.51.51,0,0,1,.5.5v4A.5.5,0,0,1,341.28,258.55Zm0-8a.5.5,0,0,1-.5-.5v-4a.5.5,0,0,1,.5-.5.51.51,0,0,1,.5.5v4A.5.5,0,0,1,341.28,250.55Zm0-8a.5.5,0,0,1-.5-.5v-4a.5.5,0,0,1,.5-.5.51.51,0,0,1,.5.5v4A.5.5,0,0,1,341.28,242.55Zm0-8a.5.5,0,0,1-.5-.5v-4a.5.5,0,0,1,.5-.5.51.51,0,0,1,.5.5v4A.5.5,0,0,1,341.28,234.55Zm0-8a.5.5,0,0,1-.5-.5v-4a.5.5,0,0,1,.5-.5.51.51,0,0,1,.5.5v4A.5.5,0,0,1,341.28,226.55Zm0-8a.5.5,0,0,1-.5-.5v-4a.5.5,0,0,1,.5-.5.51.51,0,0,1,.5.5v4A.5.5,0,0,1,341.28,218.55Zm0-8a.5.5,0,0,1-.5-.5v-4a.5.5,0,0,1,.5-.5.51.51,0,0,1,.5.5v4A.5.5,0,0,1,341.28,210.55Zm0-8a.5.5,0,0,1-.5-.5v-4a.5.5,0,0,1,.5-.5.51.51,0,0,1,.5.5v4A.5.5,0,0,1,341.28,202.55Zm0-8a.5.5,0,0,1-.5-.5v-4a.5.5,0,0,1,.5-.5.51.51,0,0,1,.5.5v4A.5.5,0,0,1,341.28,194.55Zm0-8a.5.5,0,0,1-.5-.5v-4a.5.5,0,0,1,.5-.5.51.51,0,0,1,.5.5v4A.5.5,0,0,1,341.28,186.55Z"/><path class="cls-2" d="M781.41,313.53c-9.19,0-19.1-1.23-32.25-2.86-15.58-1.93-35-4.33-63.25-6.15-62.95-4-84.26-4-119.58-3.91l-16.33,0h-9.13c-36.95-.08-63.64-.13-126.78,3.91-28.29,1.82-47.67,4.22-63.25,6.15-31.32,3.88-44.28,5.49-72.82-6.37-27.14-11.28-29.31-18.18-29.31-51.88s2.17-40.61,29.31-51.89c28.54-11.86,41.5-10.25,72.82-6.37,15.58,1.93,35,4.34,63.25,6.15,63.14,4,89.83,4,126.78,3.91H550l16.33,0c35.32.07,56.63.12,119.58-3.91,28.29-1.81,47.67-4.22,63.25-6.15,31.31-3.88,44.28-5.49,72.82,6.37,27.14,11.28,29.31,18.18,29.31,51.89S849.12,293,822,304.3C805.42,311.18,794.1,313.53,781.41,313.53Zm-202-18.94c28.57,0,51.88.42,106.93,4,28.47,1.82,48,4.24,63.61,6.18,31.07,3.85,42.7,5.29,69.77-6,24.19-10.05,25.62-14.68,25.62-46.34s-1.43-36.3-25.62-46.35c-27.07-11.25-38.7-9.81-69.77-6-15.66,1.94-35.14,4.36-63.61,6.18-63.14,4.05-84.53,4-120,3.93l-16.06,0h-9.37c-37.06.08-63.84.13-127.17-3.93-28.47-1.82-47.95-4.24-63.61-6.18-31.07-3.85-42.7-5.29-69.77,6-24.19,10.05-25.62,14.68-25.62,46.35s1.43,36.29,25.62,46.34c27.07,11.25,38.7,9.81,69.77,6,15.66-1.94,35.14-4.36,63.61-6.18,63.33-4.06,90.11-4,127.17-3.93h9.38l16,0Z"/><path class="cls-2" d="M731.9,322.55a.5.5,0,0,1-.5-.5v-4a.5.5,0,0,1,1,0v4A.5.5,0,0,1,731.9,322.55Zm0-8a.5.5,0,0,1-.5-.5v-4a.5.5,0,0,1,1,0v4A.5.5,0,0,1,731.9,314.55Zm0-8a.5.5,0,0,1-.5-.5v-4a.5.5,0,0,1,1,0v4A.5.5,0,0,1,731.9,306.55Zm0-8a.5.5,0,0,1-.5-.5v-4a.5.5,0,0,1,1,0v4A.5.5,0,0,1,731.9,298.55Zm0-8a.5.5,0,0,1-.5-.5v-4a.5.5,0,0,1,1,0v4A.5.5,0,0,1,731.9,290.55Zm0-8a.5.5,0,0,1-.5-.5v-4a.5.5,0,0,1,1,0v4A.5.5,0,0,1,731.9,282.55Zm0-8a.5.5,0,0,1-.5-.5v-4a.5.5,0,0,1,1,0v4A.5.5,0,0,1,731.9,274.55Zm0-8a.5.5,0,0,1-.5-.5v-4a.5.5,0,0,1,1,0v4A.5.5,0,0,1,731.9,266.55Zm0-8a.5.5,0,0,1-.5-.5v-4a.5.5,0,0,1,1,0v4A.5.5,0,0,1,731.9,258.55Zm0-8a.5.5,0,0,1-.5-.5v-4a.5.5,0,0,1,1,0v4A.5.5,0,0,1,731.9,250.55Zm0-8a.5.5,0,0,1-.5-.5v-4a.5.5,0,0,1,1,0v4A.5.5,0,0,1,731.9,242.55Zm0-8a.5.5,0,0,1-.5-.5v-4a.5.5,0,0,1,1,0v4A.5.5,0,0,1,731.9,234.55Zm0-8a.5.5,0,0,1-.5-.5v-4a.5.5,0,0,1,1,0v4A.5.5,0,0,1,731.9,226.55Zm0-8a.5.5,0,0,1-.5-.5v-4a.5.5,0,0,1,1,0v4A.5.5,0,0,1,731.9,218.55Zm0-8a.5.5,0,0,1-.5-.5v-4a.5.5,0,0,1,1,0v4A.5.5,0,0,1,731.9,210.55Zm0-8a.5.5,0,0,1-.5-.5v-4a.5.5,0,0,1,1,0v4A.5.5,0,0,1,731.9,202.55Zm0-8a.5.5,0,0,1-.5-.5v-4a.5.5,0,0,1,1,0v4A.5.5,0,0,1,731.9,194.55Zm0-8a.5.5,0,0,1-.5-.5v-4a.5.5,0,0,1,1,0v4A.5.5,0,0,1,731.9,186.55Z"/><g class="cls-4"><path class="cls-2" d="M408.69,707.26a.5.5,0,0,1-.5-.5V570.12a.5.5,0,0,1,1,0V706.76A.5.5,0,0,1,408.69,707.26Z"/><path class="cls-2" d="M411.2,701.85h-5v-8.93h5Zm-4-1h3v-6.93h-3Z"/><path class="cls-2" d="M412.72,648.61h-8.06a.51.51,0,0,1-.5-.5.5.5,0,0,1,.5-.5h8.06a.5.5,0,0,1,.5.5A.51.51,0,0,1,412.72,648.61Z"/><path class="cls-2" d="M412.72,639.41h-8.06a.51.51,0,0,1-.5-.5.5.5,0,0,1,.5-.5h8.06a.5.5,0,0,1,.5.5A.51.51,0,0,1,412.72,639.41Z"/><path class="cls-2" d="M412.72,630.21h-8.06a.51.51,0,0,1-.5-.5.5.5,0,0,1,.5-.5h8.06a.5.5,0,0,1,.5.5A.51.51,0,0,1,412.72,630.21Z"/><path class="cls-2" d="M412.72,621h-8.06a.5.5,0,0,1-.5-.5.51.51,0,0,1,.5-.5h8.06a.51.51,0,0,1,.5.5A.5.5,0,0,1,412.72,621Z"/><path class="cls-2" d="M412.72,611.8h-8.06a.5.5,0,0,1-.5-.5.51.51,0,0,1,.5-.5h8.06a.51.51,0,0,1,.5.5A.5.5,0,0,1,412.72,611.8Z"/><path class="cls-2" d="M412.72,602.6h-8.06a.5.5,0,1,1,0-1h8.06a.5.5,0,0,1,0,1Z"/><path class="cls-2" d="M408.69,1144.53c-40.95,0-51.18-1.36-66.09-37.25-15.21-36.58-13.15-53.23-8.16-93.44,2.49-20.1,5.59-45.1,7.93-81.6,5.22-81.45,5.15-115.88,5.06-163.54l0-11.46a2.83,2.83,0,0,1,0-.29c0-7.54,0-14.48,0-21,.09-45.56.15-73.06-5.05-154.25-2.34-36.5-5.44-61.51-7.93-81.6-5-40.21-7.05-56.86,8.16-93.44l2.77,1.15-2.77-1.15c14.91-35.89,25.14-37.26,66.09-37.26s51.18,1.37,66.1,37.26c15.2,36.58,13.14,53.23,8.15,93.44-2.49,20.1-5.59,45.1-7.93,81.6-5.2,81.19-5.14,108.69-5.05,154.25,0,6.56,0,13.5,0,21a2.81,2.81,0,0,1,0,.29l0,11.46c-.1,47.66-.17,82.09,5.05,163.54,2.34,36.5,5.44,61.5,7.93,81.6,5,40.21,7.05,56.86-8.15,93.44C459.87,1143.17,449.64,1144.53,408.69,1144.53Zm-55.3-387.87a2.81,2.81,0,0,1,0,.29l0,11.74c.09,47.77.16,82.29-5.07,163.93-2.35,36.68-5.46,61.78-8,82-5,40.23-6.86,55.28,7.74,90.4,13.56,32.63,20.58,33.55,60.55,33.55s47-.92,60.56-33.55c14.59-35.12,12.72-50.17,7.74-90.4-2.51-20.18-5.62-45.28-8-82C463.79,851,463.86,816.46,464,768.69L464,757a2.81,2.81,0,0,1,0-.29c0-7.42,0-14.26,0-20.74-.09-45.68-.15-73.25,5.06-154.64,2.35-36.68,5.46-61.78,8-82,5-40.23,6.85-55.28-7.74-90.4-13.57-32.63-20.59-33.56-60.56-33.56s-47,.93-60.55,33.56c-14.6,35.12-12.73,50.17-7.74,90.4,2.5,20.18,5.61,45.28,8,82,5.21,81.39,5.15,109,5.06,154.64C353.41,742.4,353.39,749.24,353.39,756.66Z"/><path class="cls-2" d="M513.33,522.92h-4a.5.5,0,0,1-.5-.5.5.5,0,0,1,.5-.5h4a.51.51,0,0,1,.5.5A.5.5,0,0,1,513.33,522.92Zm-8,0h-4a.5.5,0,0,1-.5-.5.5.5,0,0,1,.5-.5h4a.51.51,0,0,1,.5.5A.5.5,0,0,1,505.33,522.92Zm-8,0h-4a.5.5,0,0,1-.5-.5.5.5,0,0,1,.5-.5h4a.51.51,0,0,1,.5.5A.5.5,0,0,1,497.33,522.92Zm-8,0h-4a.5.5,0,0,1-.5-.5.5.5,0,0,1,.5-.5h4a.51.51,0,0,1,.5.5A.5.5,0,0,1,489.33,522.92Zm-8,0h-4a.5.5,0,0,1-.5-.5.5.5,0,0,1,.5-.5h4a.51.51,0,0,1,.5.5A.5.5,0,0,1,481.33,522.92Zm-8,0h-4a.5.5,0,0,1-.5-.5.5.5,0,0,1,.5-.5h4a.51.51,0,0,1,.5.5A.5.5,0,0,1,473.33,522.92Zm-8,0h-4a.5.5,0,0,1-.5-.5.5.5,0,0,1,.5-.5h4a.51.51,0,0,1,.5.5A.5.5,0,0,1,465.33,522.92Zm-8,0h-4a.5.5,0,0,1-.5-.5.5.5,0,0,1,.5-.5h4a.51.51,0,0,1,.5.5A.5.5,0,0,1,457.33,522.92Zm-8,0h-4a.5.5,0,0,1-.5-.5.5.5,0,0,1,.5-.5h4a.51.51,0,0,1,.5.5A.5.5,0,0,1,449.33,522.92Zm-8,0h-4a.5.5,0,0,1-.5-.5.5.5,0,0,1,.5-.5h4a.51.51,0,0,1,.5.5A.5.5,0,0,1,441.33,522.92Zm-8,0h-4a.5.5,0,0,1-.5-.5.5.5,0,0,1,.5-.5h4a.51.51,0,0,1,.5.5A.5.5,0,0,1,433.33,522.92Zm-8,0h-4a.5.5,0,0,1-.5-.5.5.5,0,0,1,.5-.5h4a.51.51,0,0,1,.5.5A.5.5,0,0,1,425.33,522.92Zm-8,0h-4a.5.5,0,0,1-.5-.5.5.5,0,0,1,.5-.5h4a.51.51,0,0,1,.5.5A.5.5,0,0,1,417.33,522.92Zm-8,0h-4a.5.5,0,0,1-.5-.5.5.5,0,0,1,.5-.5h4a.51.51,0,0,1,.5.5A.5.5,0,0,1,409.33,522.92Zm-8,0h-4a.5.5,0,0,1-.5-.5.5.5,0,0,1,.5-.5h4a.51.51,0,0,1,.5.5A.5.5,0,0,1,401.33,522.92Zm-8,0h-4a.5.5,0,0,1-.5-.5.5.5,0,0,1,.5-.5h4a.51.51,0,0,1,.5.5A.5.5,0,0,1,393.33,522.92Zm-8,0h-4a.5.5,0,0,1-.5-.5.5.5,0,0,1,.5-.5h4a.51.51,0,0,1,.5.5A.5.5,0,0,1,385.33,522.92Zm-8,0h-4a.5.5,0,0,1-.5-.5.5.5,0,0,1,.5-.5h4a.51.51,0,0,1,.5.5A.5.5,0,0,1,377.33,522.92Zm-8,0h-4a.5.5,0,0,1-.5-.5.5.5,0,0,1,.5-.5h4a.51.51,0,0,1,.5.5A.5.5,0,0,1,369.33,522.92Zm-8,0h-4a.5.5,0,0,1-.5-.5.5.5,0,0,1,.5-.5h4a.51.51,0,0,1,.5.5A.5.5,0,0,1,361.33,522.92Zm-8,0h-4a.5.5,0,0,1-.5-.5.5.5,0,0,1,.5-.5h4a.51.51,0,0,1,.5.5A.5.5,0,0,1,353.33,522.92Zm-8,0h-4a.5.5,0,0,1-.5-.5.5.5,0,0,1,.5-.5h4a.51.51,0,0,1,.5.5A.5.5,0,0,1,345.33,522.92Zm-8,0h-4a.5.5,0,0,1-.5-.5.5.5,0,0,1,.5-.5h4a.51.51,0,0,1,.5.5A.5.5,0,0,1,337.33,522.92Zm-8,0h-4a.5.5,0,0,1-.5-.5.5.5,0,0,1,.5-.5h4a.51.51,0,0,1,.5.5A.5.5,0,0,1,329.33,522.92Zm-8,0h-4a.5.5,0,0,1-.5-.5.5.5,0,0,1,.5-.5h4a.51.51,0,0,1,.5.5A.5.5,0,0,1,321.33,522.92Zm-8,0h-4a.5.5,0,0,1-.5-.5.5.5,0,0,1,.5-.5h4a.51.51,0,0,1,.5.5A.5.5,0,0,1,313.33,522.92Zm-8,0h-4a.5.5,0,0,1-.5-.5.5.5,0,0,1,.5-.5h4a.51.51,0,0,1,.5.5A.5.5,0,0,1,305.33,522.92Z"/></g><path class="cls-2" d="M456.83,629.31c-16.88,0-33-2.72-48.85-5.38-28.75-4.84-55.91-9.41-86.42,1a.5.5,0,0,1-.32-.94c30.74-10.54,59.3-5.73,86.91-1.09,27,4.54,54.88,9.24,85.7.29a.5.5,0,0,1,.62.34.51.51,0,0,1-.34.62A132.09,132.09,0,0,1,456.83,629.31Z"/><g class="cls-5"><path class="cls-2" d="M690.21,708.71a.5.5,0,0,1-.5-.5V570.09a.5.5,0,0,1,.5-.5.5.5,0,0,1,.5.5V708.21A.5.5,0,0,1,690.21,708.71Z"/><path class="cls-2" d="M692.74,703.38h-5.06v-9h5.06Zm-4.06-1h3.06v-7h-3.06Z"/><path class="cls-2" d="M694.28,603.52h-8.14a.51.51,0,0,1-.5-.5.5.5,0,0,1,.5-.5h8.14a.5.5,0,0,1,.5.5A.5.5,0,0,1,694.28,603.52Z"/><path class="cls-2" d="M694.28,612.82h-8.14a.51.51,0,0,1-.5-.5.5.5,0,0,1,.5-.5h8.14a.5.5,0,0,1,.5.5A.5.5,0,0,1,694.28,612.82Z"/><path class="cls-2" d="M694.28,622.12h-8.14a.5.5,0,0,1,0-1h8.14a.5.5,0,0,1,0,1Z"/><path class="cls-2" d="M694.28,631.42h-8.14a.5.5,0,0,1,0-1h8.14a.5.5,0,0,1,0,1Z"/><path class="cls-2" d="M694.28,640.72h-8.14a.5.5,0,0,1-.5-.5.51.51,0,0,1,.5-.5h8.14a.5.5,0,0,1,.5.5A.5.5,0,0,1,694.28,640.72Z"/><path class="cls-2" d="M694.28,650h-8.14a.5.5,0,0,1-.5-.5.51.51,0,0,1,.5-.5h8.14a.5.5,0,0,1,.5.5A.5.5,0,0,1,694.28,650Z"/><path class="cls-2" d="M798.74,522.37h-4a.5.5,0,0,1,0-1h4a.5.5,0,0,1,0,1Zm-8,0h-4a.5.5,0,0,1,0-1h4a.5.5,0,0,1,0,1Zm-8,0h-4a.5.5,0,0,1,0-1h4a.5.5,0,0,1,0,1Zm-8,0h-4a.5.5,0,0,1,0-1h4a.5.5,0,0,1,0,1Zm-8,0h-4a.5.5,0,0,1,0-1h4a.5.5,0,0,1,0,1Zm-8,0h-4a.5.5,0,0,1,0-1h4a.5.5,0,0,1,0,1Zm-8,0h-4a.5.5,0,0,1,0-1h4a.5.5,0,0,1,0,1Zm-8,0h-4a.5.5,0,0,1,0-1h4a.5.5,0,0,1,0,1Zm-8,0h-4a.5.5,0,0,1,0-1h4a.5.5,0,0,1,0,1Zm-8,0h-4a.5.5,0,0,1,0-1h4a.5.5,0,0,1,0,1Zm-8,0h-4a.5.5,0,0,1,0-1h4a.5.5,0,0,1,0,1Zm-8,0h-4a.5.5,0,0,1,0-1h4a.5.5,0,0,1,0,1Zm-8,0h-4a.5.5,0,0,1,0-1h4a.5.5,0,0,1,0,1Zm-8,0h-4a.5.5,0,0,1,0-1h4a.5.5,0,0,1,0,1Zm-8,0h-4a.5.5,0,0,1,0-1h4a.5.5,0,0,1,0,1Zm-8,0h-4a.5.5,0,0,1,0-1h4a.5.5,0,0,1,0,1Zm-8,0h-4a.5.5,0,0,1,0-1h4a.5.5,0,0,1,0,1Zm-8,0h-4a.5.5,0,0,1,0-1h4a.5.5,0,0,1,0,1Zm-8,0h-4a.5.5,0,0,1,0-1h4a.5.5,0,0,1,0,1Zm-8,0h-4a.5.5,0,0,1,0-1h4a.5.5,0,0,1,0,1Zm-8,0h-4a.5.5,0,0,1,0-1h4a.5.5,0,0,1,0,1Zm-8,0h-4a.5.5,0,0,1,0-1h4a.5.5,0,0,1,0,1Zm-8,0h-4a.5.5,0,0,1,0-1h4a.5.5,0,0,1,0,1Zm-8,0h-4a.5.5,0,0,1,0-1h4a.5.5,0,0,1,0,1Zm-8,0h-4a.5.5,0,0,1,0-1h4a.5.5,0,0,1,0,1Zm-8,0h-4a.5.5,0,0,1,0-1h4a.5.5,0,0,1,0,1Zm-8,0h-4a.5.5,0,0,1,0-1h4a.5.5,0,0,1,0,1Zm-8,0h-1a.5.5,0,0,1,0-1h1a.5.5,0,0,1,0,1Z"/><path class="cls-2" d="M690.21,1185.65c-41.37,0-51.71-1.38-66.78-37.64-15.37-37-13.28-53.79-8.24-94.44,2.52-20.31,5.65-45.59,8-82.48,5.25-82.08,5.2-109.88,5.1-155.93,0-6.63,0-13.65,0-21.26,0-.1,0-.2,0-.3l0-11.58c.09-48.17.16-83-5.11-165.31-2.37-36.9-5.5-62.18-8-82.49s-4.33-35-3.56-48.8c.8-14.17,4.22-27.39,11.8-45.64,15.07-36.26,25.41-37.64,66.78-37.64s51.72,1.38,66.78,37.64c15.37,37,13.29,53.79,8.25,94.44-2.52,20.31-5.66,45.59-8,82.49C752,699,752,733.84,752.11,782l0,11.59c0,.1,0,.2,0,.3,0,7.61,0,14.63,0,21.26-.1,46.06-.16,73.85,5.1,155.93,2.36,36.89,5.5,62.17,8,82.48s4.33,35,3.55,48.8c-.79,14.17-4.21,27.39-11.8,45.64C741.92,1184.27,731.59,1185.65,690.21,1185.65ZM634.28,794.18c0,7.5,0,14.42,0,21,.1,46.18.16,74.05-5.11,156.32-2.38,37.07-5.53,62.45-8.05,82.84-5,40.68-6.94,55.89,7.82,91.4,13.72,33,20.82,33.94,61.24,33.94s47.53-.94,61.24-33.94l2.77,1.15-2.77-1.15c14.76-35.51,12.88-50.72,7.83-91.4-2.53-20.39-5.67-45.77-8-82.84C746,889.2,746,861.33,746.12,815.15c0-6.54,0-13.47,0-21,0-.09,0-.18,0-.28l0-11.87c-.1-48.29-.17-83.18,5.12-165.71,2.38-37.07,5.52-62.45,8-82.84,5.05-40.67,6.93-55.89-7.83-91.4-13.71-33-20.81-33.94-61.24-33.94s-47.52.94-61.24,33.94c-14.76,35.51-12.87,50.73-7.82,91.4,2.52,20.39,5.67,45.77,8.05,82.84,5.28,82.53,5.21,117.42,5.12,165.71l0,11.87A2.64,2.64,0,0,1,634.28,794.18Z"/></g><path class="cls-2" d="M738.88,629.67c-17.06,0-33.38-2.74-49.38-5.44-29.07-4.89-56.53-9.51-87.36,1.06a.5.5,0,1,1-.33-.95c31.08-10.65,59.94-5.79,87.86-1.09,27.27,4.59,55.47,9.33,86.63.28a.5.5,0,0,1,.28,1A133.57,133.57,0,0,1,738.88,629.67Z"/></g></svg>