<svg xmlns="http://www.w3.org/2000/svg" xmlns:xlink="http://www.w3.org/1999/xlink" viewBox="0 0 1100 800"><defs><style>.cls-1{fill:none;}.cls-2{fill:#4b4a4a;}.cls-3{clip-path:url(#clip-path);}.cls-4{clip-path:url(#clip-path-2);}.cls-5{clip-path:url(#clip-path-3);}</style><clipPath id="clip-path"><path class="cls-1" d="M1084.56-491.2c-52.74,15.32-94.19-16.65-144.73.67l-11.6-163.9,84-30.4,85.57,30.4Z"/></clipPath><clipPath id="clip-path-2"><path class="cls-1" d="M495.19,624c-63.38,18.41-113.2-20-173.94.8l-13.94-197,101-36.53,102.84,36.53Z"/></clipPath><clipPath id="clip-path-3"><path class="cls-1" d="M776.74,624c-63.38,18.41-113.2-20-173.94.8l-13.94-197,101-36.53,102.84,36.53Z"/></clipPath></defs><title>transparent-findyourshape-twin-mobile</title><g id="Text_OUTLINED" data-name="Text OUTLINED"><path class="cls-2" d="M510.34,121.85h-6.82v-3.36H521v3.36h-6.81v21.56h-3.8Z"/><path class="cls-2" d="M524.88,118.49h4l3.92,17.7h.07l4.83-17.7h2.74l4.82,17.7h.06l3.94-17.7h4L547,143.41h-3.17l-4.75-18H539l-4.77,18H531.1Z"/><path class="cls-2" d="M559.74,118.49h3.78v24.92h-3.78Z"/><path class="cls-2" d="M572.27,118.49h3.55l11.28,17.7h.07v-17.7h3.77v24.92h-3.57L576.11,125.7H576v17.71h-3.77Z"/><path class="cls-2" d="M367.05,666.12h3.56l11.28,17.71H382V666.12h3.77V691h-3.57L370.9,673.33h-.07V691h-3.78Z"/><path class="cls-2" d="M393.64,678.58a41.58,41.58,0,0,1,.26-5.81,6.82,6.82,0,0,1,.84-2.38,8.81,8.81,0,0,1,7.81-4.47,8.68,8.68,0,0,1,4.95,1.4,8.37,8.37,0,0,1,2.84,3.07,5.8,5.8,0,0,1,.87,2.38,76.43,76.43,0,0,1,0,11.59,5.84,5.84,0,0,1-.87,2.41,8.15,8.15,0,0,1-2.84,3,8.85,8.85,0,0,1-4.95,1.43,8.74,8.74,0,0,1-4.91-1.43,8.34,8.34,0,0,1-2.9-3c-.19-.38-.35-.74-.5-1.08a6.72,6.72,0,0,1-.34-1.33A41.76,41.76,0,0,1,393.64,678.58Zm3.8,0a29.35,29.35,0,0,0,.27,5,4.18,4.18,0,0,0,1,2.11,4.48,4.48,0,0,0,1.58,1.24,4.37,4.37,0,0,0,2.29.57,4.61,4.61,0,0,0,2.34-.57,4.18,4.18,0,0,0,1.5-1.24,4.39,4.39,0,0,0,1-2.11,30.86,30.86,0,0,0,.26-5,31.73,31.73,0,0,0-.26-5,4.3,4.3,0,0,0-1-2.06,4.52,4.52,0,0,0-1.5-1.29,5.6,5.6,0,0,0-2.34-.53,5.3,5.3,0,0,0-2.29.53,4.84,4.84,0,0,0-1.58,1.29,4.09,4.09,0,0,0-1,2.06A30.17,30.17,0,0,0,397.44,678.58Z"/><path class="cls-2" d="M426.72,687.47c3.24-.05,4.88-1.2,4.93-3.47q0-2.79-3.25-3.35l-3.3-.46a8.21,8.21,0,0,1-4.89-2.38,6.59,6.59,0,0,1-1.72-4.61,6.83,6.83,0,0,1,2.17-5.27,8.46,8.46,0,0,1,6-2,14,14,0,0,1,8.09,2.58l-2.11,3.11a11.43,11.43,0,0,0-6.17-1.92,4.63,4.63,0,0,0-2.9.88,3.22,3.22,0,0,0-1.25,2.7,2.74,2.74,0,0,0,.84,1.94,4.7,4.7,0,0,0,2.68,1.23c.69.12,1.62.25,2.8.4a7.73,7.73,0,0,1,5.18,2.51,7,7,0,0,1,1.66,4.65q-.18,7.14-8.75,7.24a14.13,14.13,0,0,1-9.52-3.41l2.48-2.84A11,11,0,0,0,426.72,687.47Z"/><path class="cls-2" d="M442.92,666.12h15.91v3.57H446.7v7.11h10.36v3.35H446.7v7.32h12.13V691H442.92Z"/><path class="cls-2" d="M662.64,669.49h-6.82v-3.37h17.43v3.37h-6.82V691h-3.79Z"/><path class="cls-2" d="M689.58,685.47h-9.45L678.22,691h-4l9.06-24.92h3.16L695.5,691h-4Zm-1.07-3.35-3.61-10.89h-.07l-3.6,10.89Z"/><path class="cls-2" d="M701.66,666.12h3.78V691h-3.78Z"/><path class="cls-2" d="M714.19,666.12H718v21.35H730.1V691H714.19Z"/></g><g id="Art_OUTLINED" data-name="Art OUTLINED"><g class="cls-3"><path class="cls-2" d="M1012.26,10.38c-20,0-36.9-7.11-48.84-20.55-15.7-17.7-21.88-44.75-17.87-78.23,8.18-68.25,12.33-147.65,12.33-236v-2.4c0-88.36-4.15-167.77-12.33-236-4-33.48,2.17-60.53,17.87-78.23,11.94-13.45,28.83-20.56,48.84-20.56s36.91,7.11,48.84,20.56c15.71,17.7,21.89,44.75,17.88,78.23-8.18,68.24-12.33,147.65-12.33,236v2.4c0,88.37,4.15,167.77,12.33,236,4,33.48-2.17,60.53-17.88,78.23C1049.17,3.27,1032.28,10.38,1012.26,10.38ZM951.51-563.54c8.2,68.48,12.37,148.12,12.37,236.72v2.4c0,88.6-4.17,168.25-12.37,236.73-3.8,31.73,1.87,57.16,16.4,73.53C978.67-2,994,4.38,1012.26,4.38s33.59-6.41,44.36-18.54c14.53-16.37,20.2-41.8,16.4-73.53-8.21-68.48-12.37-148.13-12.37-236.73v-2.4c0-88.6,4.16-168.24,12.37-236.72,3.8-31.73-1.87-57.16-16.4-73.54-10.77-12.13-26.1-18.54-44.36-18.54s-33.59,6.41-44.35,18.54C953.38-620.7,947.71-595.27,951.51-563.54Z"/></g><path class="cls-2" d="M779.68,313.94a145.31,145.31,0,0,1-17.17-1.06c-61.13-7.33-132.27-11-211.44-11h-2.14c-79.17,0-150.31,3.71-211.44,11-30.09,3.6-54.42-2-70.34-16.09-12.12-10.76-18.53-26-18.53-44s6.41-33.24,18.53-44c15.92-14.13,40.25-19.69,70.34-16.08,61.14,7.32,132.28,11,211.44,11h2.14c79.16,0,150.3-3.72,211.44-11h0c30.09-3.61,54.42,1.95,70.34,16.08,12.12,10.76,18.53,26,18.53,44s-6.41,33.24-18.53,44C820.08,308.12,801.9,313.94,779.68,313.94ZM550,295.83h1.07c79.41,0,150.78,3.73,212.16,11.08,28.34,3.4,51-1.66,65.64-14.62,10.8-9.58,16.51-23.25,16.51-39.51s-5.71-29.92-16.51-39.51c-14.61-13-37.3-18-65.64-14.62h0c-61.39,7.36-132.76,11.09-212.16,11.09h-2.14c-79.4,0-150.77-3.73-212.16-11.09-28.33-3.39-51,1.66-65.64,14.62-10.8,9.59-16.51,23.25-16.51,39.51s5.71,29.93,16.51,39.51c14.61,13,37.3,18,65.64,14.62,61.38-7.35,132.75-11.08,212.16-11.08ZM762.87,195.69h0Z"/><path class="cls-2" d="M501.81,253.29h-106a.5.5,0,0,1,0-1h106a.5.5,0,0,1,0,1Z"/><path class="cls-2" d="M704.2,253.29h-106a.5.5,0,0,1,0-1h106a.5.5,0,0,1,0,1Z"/><path class="cls-2" d="M508.46,254.85h-7.15v-4.12h7.15Zm-6.15-1h5.15v-2.12h-5.15Z"/><path class="cls-2" d="M598.69,254.85h-7.15v-4.12h7.15Zm-6.15-1h5.15v-2.12h-5.15Z"/><path class="cls-2" d="M431.31,256.41a.5.5,0,0,1-.5-.5v-6.24a.5.5,0,0,1,.5-.5.5.5,0,0,1,.5.5v6.24A.5.5,0,0,1,431.31,256.41Z"/><path class="cls-2" d="M438.45,256.41a.5.5,0,0,1-.5-.5v-6.24a.5.5,0,0,1,.5-.5.5.5,0,0,1,.5.5v6.24A.5.5,0,0,1,438.45,256.41Z"/><path class="cls-2" d="M445.59,256.41a.5.5,0,0,1-.5-.5v-6.24a.5.5,0,0,1,.5-.5.5.5,0,0,1,.5.5v6.24A.5.5,0,0,1,445.59,256.41Z"/><path class="cls-2" d="M452.73,256.41a.5.5,0,0,1-.5-.5v-6.24a.5.5,0,1,1,1,0v6.24A.5.5,0,0,1,452.73,256.41Z"/><path class="cls-2" d="M459.87,256.41a.5.5,0,0,1-.5-.5v-6.24a.5.5,0,1,1,1,0v6.24A.5.5,0,0,1,459.87,256.41Z"/><path class="cls-2" d="M467,256.41a.5.5,0,0,1-.5-.5v-6.24a.5.5,0,1,1,1,0v6.24A.5.5,0,0,1,467,256.41Z"/><path class="cls-2" d="M633.35,256.41a.5.5,0,0,1-.5-.5v-6.24a.5.5,0,0,1,.5-.5.5.5,0,0,1,.5.5v6.24A.5.5,0,0,1,633.35,256.41Z"/><path class="cls-2" d="M640.48,256.41a.5.5,0,0,1-.5-.5v-6.24a.5.5,0,0,1,.5-.5.5.5,0,0,1,.5.5v6.24A.5.5,0,0,1,640.48,256.41Z"/><path class="cls-2" d="M647.62,256.41a.5.5,0,0,1-.5-.5v-6.24a.5.5,0,0,1,.5-.5.5.5,0,0,1,.5.5v6.24A.5.5,0,0,1,647.62,256.41Z"/><path class="cls-2" d="M654.76,256.41a.5.5,0,0,1-.5-.5v-6.24a.5.5,0,0,1,.5-.5.5.5,0,0,1,.5.5v6.24A.5.5,0,0,1,654.76,256.41Z"/><path class="cls-2" d="M661.9,256.41a.5.5,0,0,1-.5-.5v-6.24a.5.5,0,0,1,.5-.5.5.5,0,0,1,.5.5v6.24A.5.5,0,0,1,661.9,256.41Z"/><path class="cls-2" d="M669,256.41a.5.5,0,0,1-.5-.5v-6.24a.5.5,0,1,1,1,0v6.24A.5.5,0,0,1,669,256.41Z"/><g class="cls-4"><path class="cls-2" d="M408.3,1226.26c-23.88,0-44-8.48-58.24-24.51-18.76-21.13-26.13-53.48-21.33-93.54,9.83-82,14.81-177.51,14.81-283.74v-2.88c0-106.22-5-201.68-14.81-283.73-4.8-40.06,2.57-72.41,21.33-93.54,14.22-16,34.36-24.51,58.24-24.51s44,8.48,58.25,24.51c18.75,21.13,26.13,53.48,21.33,93.54-9.83,82-14.81,177.51-14.81,283.73v2.88c0,106.23,5,201.69,14.81,283.74,4.8,40.06-2.58,72.41-21.33,93.54C452.33,1217.78,432.18,1226.26,408.3,1226.26Zm0-800.45c-22.11,0-40.7,7.78-53.76,22.49-17.58,19.81-24.45,50.54-19.86,88.85,9.86,82.28,14.86,178,14.86,284.44v2.88c0,106.47-5,202.17-14.86,284.45-4.59,38.31,2.28,69,19.86,88.85,13.06,14.71,31.65,22.49,53.76,22.49s40.71-7.78,53.76-22.49c17.59-19.82,24.45-50.54,19.86-88.85-9.86-82.28-14.85-178-14.85-284.45v-2.88c0-106.46,5-202.16,14.85-284.44,4.59-38.31-2.27-69-19.86-88.85C449,433.59,430.42,425.81,408.3,425.81Z"/><path class="cls-2" d="M408.3,642.31a.51.51,0,0,1-.5-.5v-64a.5.5,0,0,1,.5-.5.5.5,0,0,1,.5.5v64A.5.5,0,0,1,408.3,642.31Z"/><path class="cls-2" d="M414.07,610.7H402.53a.51.51,0,0,1-.5-.5.5.5,0,0,1,.5-.5h11.54a.5.5,0,0,1,.5.5A.5.5,0,0,1,414.07,610.7Z"/><path class="cls-2" d="M414.07,619.35H402.53a.5.5,0,0,1,0-1h11.54a.5.5,0,1,1,0,1Z"/></g><path class="cls-2" d="M457.74,629.67c-17,0-33.27-2.74-49.23-5.42-29-4.88-56.35-9.49-87.1,1a.5.5,0,0,1-.32-.94c31-10.62,59.76-5.78,87.59-1.1,27.19,4.58,55.31,9.31,86.37.29a.49.49,0,0,1,.62.34.5.5,0,0,1-.34.62A133,133,0,0,1,457.74,629.67Z"/><g class="cls-5"><path class="cls-2" d="M689.85,1226.26c-23.88,0-44-8.48-58.25-24.51-18.75-21.13-26.13-53.48-21.33-93.54,9.84-82,14.82-177.51,14.82-283.74v-2.88c0-106.22-5-201.68-14.82-283.73-4.8-40.06,2.58-72.41,21.34-93.54,14.22-16,34.36-24.51,58.24-24.51s44,8.48,58.25,24.51c18.75,21.13,26.13,53.48,21.33,93.54-9.83,82-14.82,177.51-14.82,283.73v2.88c0,106.23,5,201.69,14.82,283.74,4.8,40.06-2.58,72.41-21.33,93.54C733.87,1217.78,713.73,1226.26,689.85,1226.26Zm0-800.45c-22.11,0-40.7,7.78-53.76,22.49-17.58,19.81-24.45,50.54-19.86,88.85,9.86,82.28,14.86,178,14.86,284.44v2.88c0,106.47-5,202.17-14.86,284.45-4.59,38.31,2.28,69,19.86,88.85,13.06,14.71,31.65,22.49,53.76,22.49s40.71-7.78,53.76-22.49c17.58-19.82,24.45-50.54,19.86-88.85-9.86-82.28-14.86-178-14.86-284.45v-2.88c0-106.46,5-202.16,14.86-284.44,4.59-38.31-2.28-69-19.86-88.85C730.56,433.59,712,425.81,689.85,425.81Z"/><path class="cls-2" d="M689.85,642.31a.51.51,0,0,1-.5-.5v-64a.5.5,0,0,1,.5-.5.5.5,0,0,1,.5.5v64A.5.5,0,0,1,689.85,642.31Z"/><path class="cls-2" d="M695.62,610.7H684.08a.51.51,0,0,1-.5-.5.5.5,0,0,1,.5-.5h11.54a.5.5,0,0,1,.5.5A.5.5,0,0,1,695.62,610.7Z"/><path class="cls-2" d="M695.62,619.35H684.08a.5.5,0,0,1,0-1h11.54a.5.5,0,0,1,0,1Z"/></g><path class="cls-2" d="M739.29,629.67c-17,0-33.28-2.74-49.23-5.42-29-4.88-56.36-9.49-87.1,1a.51.51,0,0,1-.64-.31.5.5,0,0,1,.32-.63c31-10.62,59.76-5.78,87.59-1.1,27.19,4.58,55.31,9.31,86.37.29a.5.5,0,0,1,.28,1A133,133,0,0,1,739.29,629.67Z"/></g></svg>